<?xml version="1.0" encoding="utf-8"?>
<!-- Generator: Adobe Illustrator 23.0.1, SVG Export Plug-In . SVG Version: 6.00 Build 0)  -->
<svg version="1.1" id="Layer_1" xmlns="http://www.w3.org/2000/svg" xmlns:xlink="http://www.w3.org/1999/xlink" x="0px" y="0px"
	 viewBox="0 0 331.16278 345.74417" style="enable-background:new 0 0 331.16278 345.74417;" xml:space="preserve">
<path style="display:none;fill:#FFFFFF;stroke:#676769;stroke-width:21;stroke-miterlimit:10;" d="M248.00581,304.9726
	l-164.38185-0.05545c-23.16555-0.00781-42.03278-18.61423-42.36303-41.77744l-1.77246-124.31886
	c-0.1875-13.15103,5.74123-25.64384,16.04753-33.81481l85.12008-67.48427c15.46268-12.25901,37.33997-12.22458,52.76398,0.08304
	l86.71877,69.19739c10.61761,8.47233,16.53085,21.52055,15.90201,35.08957l-5.68454,122.66118
	C289.30777,287.17807,270.65521,304.98022,248.00581,304.9726z"/>
<g>
	<path style="fill:#676769;" d="M49.71631,177.69324v-6.14822c0-2.99611,1.7818-5.70523,4.53286-6.89197l51.23973-22.10344
		c4.95486-2.13739,10.47887,1.49576,10.47887,6.89197v0.92824c0,3.0182-1.80784,5.74283-4.58878,6.91583l-24.69826,10.41766
		c-6.11838,2.58072-6.11838,11.25095,0,13.83167l24.69826,10.41766c2.78094,1.173,4.58878,3.89763,4.58878,6.91583v0.92783
		c0,5.39619-5.52398,9.02934-10.47884,6.892l-51.23973-22.10307C51.49812,183.3985,49.71631,180.68936,49.71631,177.69324z"/>
	<path style="fill:#676769;" d="M194.47206,98.8418h4.4314c5.29433,0,8.92467,5.33375,6.9827,10.25904L152.04921,245.6438
		c-1.13074,2.86783-3.89999,4.75269-6.9827,4.75269h-4.4314c-5.29433,0-8.92467-5.33374-6.9827-10.25905l53.83694-136.54295
		C188.6201,100.72665,191.38936,98.8418,194.47206,98.8418z"/>
	<path style="fill:#676769;" d="M228.1591,191.95264l24.69826-10.41766c6.11838-2.58072,6.11838-11.25095,0-13.83167
		l-24.69826-10.41766c-2.78094-1.173-4.58879-3.89763-4.58879-6.91583v-0.92821c0-5.39622,5.52403-9.02937,10.4789-6.89197
		l51.23924,22.10341c2.75104,1.18674,4.53284,3.89586,4.53284,6.89195v6.14825c0,2.99611-1.7818,5.70525-4.53287,6.89197
		l-51.23926,22.10303c-4.95485,2.13737-10.47885-1.49579-10.47885-6.89198v-0.9278
		C223.57031,195.85027,225.37816,193.12564,228.1591,191.95264z"/>
</g>
<g>
</g>
<g>
</g>
<g>
</g>
<g>
</g>
<g>
</g>
</svg>
