<?xml version="1.0" encoding="utf-8"?>
<!-- Generator: Adobe Illustrator 23.0.1, SVG Export Plug-In . SVG Version: 6.00 Build 0)  -->
<svg version="1.1" id="Layer_1" xmlns="http://www.w3.org/2000/svg" xmlns:xlink="http://www.w3.org/1999/xlink" x="0px" y="0px"
	 viewBox="0 0 331.16278 345.74417" style="enable-background:new 0 0 331.16278 345.74417;" xml:space="preserve">
<path id="Home" style="display:none;fill:none;stroke:#676769;stroke-width:21;stroke-miterlimit:10;" d="M248.00581,304.9726
	l-164.38185-0.05545c-23.16555-0.00781-42.03278-18.61423-42.36303-41.77744l-1.77246-124.31886
	c-0.1875-13.15103,5.74123-25.64384,16.04753-33.81481l85.12008-67.48427c15.46268-12.25901,37.33997-12.22458,52.76398,0.08304
	l86.71877,69.19739c10.61761,8.47233,16.53085,21.52055,15.90201,35.08957l-5.68454,122.66118
	C289.30777,287.17807,270.65521,304.98022,248.00581,304.9726z"/>
<g id="Coding" style="display:none;">
	<path style="display:inline;fill:#676769;" d="M18.84213,161.99281v-7.47594c0-3.64313,2.16658-6.93729,5.51173-8.38029
		l62.30505-26.87673c6.02488-2.59897,12.74181,1.81877,12.74181,8.3803v1.12869c0,3.67-2.19824,6.983-5.57974,8.40932
		L63.7891,149.84555c-7.43966,3.13803-7.43966,13.6806,0,16.81863l30.03189,12.66739
		c3.3815,1.42632,5.57974,4.73932,5.57974,8.40932v1.12819c0,6.56151-6.71689,10.97925-12.74176,8.38033l-62.30505-26.87627
		C21.00873,168.93015,18.84213,165.63597,18.84213,161.99281z"/>
	<path style="display:inline;fill:#676769;" d="M194.85818,66.11326h5.38837c6.43764,0,10.85197,6.48557,8.49063,12.4745
		l-65.46315,166.02969c-1.37494,3.48714-4.74222,5.77904-8.49063,5.77904h-5.38837c-6.43764,0-10.85197-6.48558-8.49062-12.4745
		L186.36755,71.8923C187.74249,68.40515,191.10977,66.11326,194.85818,66.11326z"/>
	<path style="display:inline;fill:#676769;" d="M235.82001,179.33157l30.03189-12.66739c7.43967-3.13803,7.43967-13.6806,0-16.81863
		l-30.03189-12.66739c-3.3815-1.42632-5.57974-4.73932-5.57974-8.40932v-1.12865c0-6.56154,6.71695-10.97928,12.74182-8.38029
		l62.30447,26.87666c3.34515,1.44302,5.51172,4.73718,5.51172,8.38029v7.47597c0,3.64314-2.1666,6.93732-5.51178,8.38033
		l-62.30446,26.87621c-6.02487,2.59894-12.74178-1.81879-12.74178-8.38031v-1.12816
		C230.24026,184.07089,232.43851,180.75789,235.82001,179.33157z"/>
</g>
<g id="Contacts" style="display:none;">
	<path style="display:inline;fill:#676769;" d="M167.27316,315.47144c-46.68062,0-93.36122,0.00204-140.04182-0.00177
		c-9.40312-0.00076-13.1695-3.85651-13.14094-13.24771c0.02788-9.16907,1.06163-18.31747,2.6644-27.24359
		c1.25166-6.97076,3.36935-13.93674,5.73152-20.76091c4.29446-12.40643,10.09445-24.05801,17.32907-34.88895
		c5.7949-8.67551,12.53611-16.6666,20.0924-24.04079c7.07136-6.90092,14.64568-13.0289,22.79536-18.47427
		c4.96276-3.31598,10.12872-6.35292,15.51131-9.01091c4.11801-2.03351,3.82327-2.31142,1.01225-5.85933
		c-4.85455-6.12711-9.02917-12.71022-12.19598-19.92719c-2.38264-5.42993-4.01134-11.08548-5.41998-16.78749
		c-0.88578-3.58549-1.37399-7.30693-1.53843-11.05224c-0.55388-12.61573,0.38515-25.01361,4.90723-36.94933
		c2.94774-7.78038,6.89169-14.98345,11.7876-21.73775c7.90962-10.91194,17.74075-19.59223,29.66663-25.74409
		c19.28833-9.94973,39.40659-12.83707,60.82829-7.72363c16.7012,3.98664,30.82359,12.02329,42.63324,24.14616
		c11.25888,11.55748,18.87267,25.25091,22.47957,41.12738c2.49286,10.97276,2.61087,21.92113,1.16165,33.02888
		c-1.96368,15.0505-8.23085,28.19559-17.02142,40.3176c-0.25798,0.35576-0.56754,0.67546-0.86485,1.00116
		c-3.59198,3.93488-3.56215,4.06677,1.351,6.54179c11.7592,5.9238,22.73296,13.13899,32.38103,22.02684
		c11.52884,10.62044,21.74271,22.41011,29.5871,36.20146c4.52341,7.9527,8.76978,16.02536,11.91611,24.54469
		c2.51471,6.80914,4.55963,13.8465,6.01419,21.04199c2.04697,10.12601,3.32022,20.32547,3.71994,30.61624
		c0.32526,8.37326-4.2919,12.87439-12.64371,12.8761c-46.90094,0.00955-93.80185,0.00461-140.70276,0.00461
		C167.27316,315.48807,167.27316,315.47974,167.27316,315.47144z M241.86761,293.95831
		c0.00003,0.02426,0.00003,0.04852,0.00005,0.07278c16.2195,0,32.43901-0.00333,48.65852,0.00137
		c8.60022,0.00247,8.68283-0.03513,7.05658-8.57083c-1.36853-7.18292-2.9505-14.29227-5.16141-21.30701
		c-2.61563-8.29877-6.03564-16.18405-10.18729-23.76323c-5.13913-9.38191-11.46207-17.94427-18.75699-25.77921
		c-6.33627-6.8053-13.34102-12.9335-20.85599-18.30989c-7.62808-5.45735-16.10794-9.64482-24.71765-13.42317
		c-1.95726-0.85892-4.14119-2.07712-6.43759-0.45021c-2.50388,1.77386-5.39622,2.83298-8.08754,4.23531
		c-9.72646,5.06815-20.24174,6.81958-30.90114,7.93826c-6.81435,0.71513-13.56392-0.23265-20.34329-1.42314
		c-10.01802-1.7592-19.3741-5.02257-28.13141-10.11635c-1.69605-0.98651-3.20831-1.80754-5.40712-0.86719
		c-6.73475,2.88023-13.28304,6.05632-19.65112,9.70973c-9.12164,5.23314-16.99966,11.97838-24.47676,19.21434
		c-6.98936,6.76396-12.97551,14.38974-18.26942,22.57951c-5.54318,8.57542-9.83071,17.72394-13.15327,27.34262
		c-1.67557,4.85068-2.94173,9.80685-4.13902,14.81393c-1.30976,5.47742-2.41799,10.87793-2.4323,16.49905
		c-0.00259,1.01846-0.13501,1.85764,1.5079,1.81174c3.71162-0.10376,7.45213,0.38791,11.14488,0.1272
		c12.28892-0.86758,24.58157,0.28406,36.87132-0.27985c4.91651-0.22559,9.88045,0.49731,14.78949,0.21323
		c8.67759-0.5022,17.34355-0.03778,26.01341-0.1546c8.43988-0.11368,16.91162,0.36279,25.31935,0.11359
		c12.82248-0.38004,25.6282,0.14352,38.44447-0.13589C207.65793,293.6777,224.76582,293.95831,241.86761,293.95831z
		 M166.9718,172.9753c36.81378,0.47272,66.27531-29.6458,66.23593-65.85203c-0.03947-36.28791-29.1301-65.72527-65.55864-65.95045
		c-37.09648-0.22931-66.25996,29.66649-66.38448,65.74827C101.13942,143.20338,130.49594,173.1675,166.9718,172.9753z"/>
</g>
<g id="Running" style="display:none;">
	<path style="display:inline;fill:#676769;" d="M268.17041,149.49696c0,0.00006-0.00003,0.00012-0.00009,0.00014
		c-11.39941,2.90192-22.61942,6.29999-32.99292,12.01468c-2.71315,1.49466-5.39659,3.04326-8.54555,4.82239
		c-0.00009,0.00005-0.00011,0.0002-0.00002,0.00026c6.45729,5.1064,13.72627,7.88115,20.6996,11.18607
		c4.00737,1.89925,8.05696,3.71843,11.99455,5.75352c4.8573,2.51042,8.08722,6.2984,9.93964,11.63768
		c1.96387,5.66066,3.271,11.72771,7.81726,16.24872c1.68689,1.67757,1.63376,4.04695,0.45306,6.03166
		c-1.43442,2.41116-3.39468,0.99202-5.25378,0.38298c-6.97913-2.28645-12.55603-5.41547-12.25522-14.2776
		c0.1557-4.58574-2.96042-8.13969-7.13058-9.8613c-12.07985-4.98706-24.45787-9.17412-37.62462-13.40572
		c-0.00011-0.00003-0.00023,0.00008-0.0002,0.0002c3.79156,15.75993,10.48611,29.29454,19.58466,41.79802
		c5.57677,7.66379,12.43668,13.08481,21.92868,14.80122c1.37299,0.24828,2.87582,1.10739,3.03476,2.32347
		c0.68234,5.22009,4.39227,4.49913,7.98679,4.63011c8.3291,0.30353,16.64764,0.85956,24.82001,3.07561
		c0.00015,0.00005,0.00015,0.00029,0,0.00034c-7.88486,2.2617-15.88931,2.78078-23.97568,2.93518
		c-3.82138,0.07297-7.80295-1.14551-11.47919,0.92117c-0.00003,0.00002-0.00006,0.00002-0.00006,0.00002h-98.9875
		c-0.00006,0-0.00011-0.00003-0.00014-0.00008c-1.14478-1.90778-3.00494-0.96852-4.47794-0.93422
		c-19.12358,0.44498-38.20738-0.87991-57.31235-1.2039c-4.5946-0.07793-9.09768-1.33308-13.75568-1.67094
		c-0.0002-0.00002-0.0002-0.00027-0.00001-0.00029c51.64458-3.55827,103.36451-3.90886,155.1821-4.08383
		c0.00014,0,0.0002-0.00017,0.00011-0.00026c-13.37955-14.48151-23.18983-31.41783-36.29343-45.75011
		c-3.97501-4.34773-7.66541-9.01596-10.36975-14.33839c-0.00003-0.00006-0.00002-0.00014,0.00003-0.00018
		c1.54388-1.6768,0.2007-1.80611-1.06094-1.97913c-1.28719-0.58968-1.83421-1.66824-1.98659-3.00748
		c-0.00002-0.00011,0.00006-0.0002,0.00017-0.0002c3.82283,0.12711,8.16069,3.06549,11.02852-2.02028
		c0.00005-0.00011,0.0002-0.00012,0.00026-0.00003c3.02798,4.15137,4.662,9.28275,9.08662,13.33043
		c0.00011,0.00011,0.00029,0.00003,0.00029-0.00012c-0.11011-7.97723-2.71568-15.02135-1.90237-22.33122
		c0.00002-0.00005,0.00003-0.00009,0.00006-0.00011c2.7924-2.53833,7.32158-3.72372,6.85541-8.80042
		c0-0.00006,0.00003-0.00012,0.00009-0.00015c4.86661-2.31277,9.66309-4.78952,14.61324-6.907
		c13.83884-5.91968,28.07858-10.08163,43.3779-9.12918c0.00009,0,0.00015,0.00006,0.00018,0.00014
		c0.36072,2.06538-0.71155,3.88542-0.99988,5.83968v0.00031C268.88742,147.55908,268.2103,148.20436,268.17041,149.49696z"/>
	<path style="display:inline;fill:#676769;" d="M188.66304,95.51273c14.48582,1.01277,27.17834,6.34712,37.9615,16.035
		c5.45155,4.89784,8.42239,6.11112,15.35255,4.91499c0.37257-0.90447,0.47942-1.16385,0.85201-2.06832
		c-1.82887-2.51126-3.66382-5.03088-5.63202-7.73348c0.45888-0.94474,0.55464-1.14189,1.01353-2.08663
		c1.79184-0.06953,3.3007-0.14621,4.75008,0.11161c10.66832,1.89772,21.38602,3.62668,31.92776,6.09283
		c7.84677,1.83569,16.00952,3.43028,21.99991,9.49088c-0.13199,0.86595-0.18564,1.21805-0.3176,2.08401
		c-1.97647,1.09429-3.74774,2.39317-4.77032,4.43855c-0.83401,0.18132-1.18051,0.25665-2.01453,0.43797
		c-8.71774-7.40718-19.43506-8.99007-30.30984-10.34653c-1.34747-0.16808-2.03589,1.5679-0.93567,2.3638l1.81906,1.31591
		c-0.15424,1.0273-0.18414,1.2495-0.32379,2.28734c-1.13187,0.44635-2.22421,0.59277-3.34662,0.6615
		c-8.07513,0.49452-16.12422,1.52162-24.14676,2.35007c-6.95151,0.71785-11.74977-1.24841-16.34737-5.81317
		c-16.72542-16.60601-36.97745-20.18958-59.38223-16.04076c-17.9485,3.32364-35.73717,7.83395-54.20144,7.58469
		c-1.94717-0.02629-3.89779,0.20197-6.15097,0.475c-0.24672,1.24508-0.2388,1.20509-0.48552,2.45018
		c1.80984,1.01276,3.38316,1.87041,5.05138,2.45912c3.92787,1.38613,3.47306,3.22151,1.2593,5.7963
		c-4.6981,5.46429-10.04694,10.05403-16.71241,12.97804c-1.36759,0.59993-2.40365,1.33684-1.01682,2.37228
		c0.14548,0.51175,0.29,1.02017,0.43549,1.53192c-0.45502,1.35722-1.60548,2.17963-2.88776,2.91942
		c-3.21383,1.85416-3.07497,3.67429,0.36534,4.84085c2.21196,0.75006,3.01057,2.26561,3.4895,4.07431
		c-0.28079,0.57629-0.46179,0.9478-0.74258,1.52409c-9.6604,4.37442-17.55701,12.08167-28.07059,14.87265
		c-4.79063,1.27174-9.62874,2.15712-14.55725,2.57497c-3.67155,0.31128-4.83306-0.27533-3.34039-4.63455
		c2.37611-6.93919,7.18764-9.51189,13.70888-10.15413c8.22742-0.81029,15.03139-5.01448,22.73184-8.73732
		c-0.02837-1.12834-0.0317-1.26059-0.06007-2.38892c-9.87358-3.96606-19.12252-3.28502-28.90377-0.58197
		c-11.39715,3.14958-21.8828,8.58598-33.18653,11.87241c-3.04018,0.8839-6.00735,0.48055-8.98061,0.59546
		c-0.53335-0.51472-0.82108-0.79242-1.35444-1.30714l0,0c0.15904-0.34508,0.29614-0.64256,0.45518-0.98764
		c2.0662-1.87776,3.2053-4.47147,4.10503-6.89665c1.63362-4.40334,4.63212-6.45622,8.92991-7.20294
		c3.07285-0.53387,6.13802-1.18665,9.23564-1.48862c7.9579-0.77577,16.01658-1.87915,21.76318-7.88461
		c5.18284-5.41632,10.37762-4.72414,16.2219-2.18291c0.28876,0.12556,0.68458-0.00487,0.98373,0.10799
		c10.20116,3.84863,18.62843,1.6767,25.23791-6.61612c-0.10553-0.72984-0.1627-1.12524-0.26824-1.85509
		c-4.37566-3.21298-8.66682-6.63084-13.31573-9.46106c-3.13126-1.90629-1.55047-3.09879-0.36702-4.94611
		c1.2257-1.91327,2.98946-1.14841,4.49758-1.14484c10.95451,0.02602,21.83875-0.96174,32.75042-1.77095
		c11.70118-0.86776,23.08122-3.53839,34.57385-5.48895c5.65265-0.95937,11.50906-0.77564,16.99696-2.70818
		c0.11874-0.04182,0.24332-0.06612,0.36914-0.07033l12.89879-0.43093"/>
	<path style="display:inline;fill:#676769;" d="M312.19919,134.47662c5.21777,3.39264,9.31708,8.56143,15.76019,10.00815
		c0.09811,0.50386,0.10519,0.54027,0.20334,1.04414c-3.74585,2.46605-7.14072,5.65396-11.99829,5.83345
		c-0.00009,0-0.00018-0.00008-0.00015-0.00018c0.21365-0.95239,0.1037-2.25963,0.69458-2.79837
		c3.38248-3.08427,2.23456-5.16347-1.00641-7.44737c-2.13501-1.50452-4.05664-3.54129-3.65353-6.63969
		C312.19894,134.47662,312.1991,134.47655,312.19919,134.47662z"/>
	<path style="display:inline;fill:#676769;" d="M199.1382,175.52635c-2.86786,5.08603-7.20584,2.14745-11.02875,2.02042
		c-0.00003,0-0.00006-0.00002-0.00008-0.00003c-1.92543-1.23891-3.76656-2.64073-5.79094-3.6884
		c-8.54956-4.42456-13.8835-12.04431-19.33167-19.48535c-3.59918-4.91573-8.35207-8.34119-13.25893-11.69461
		c-1.90273-1.30034-3.50356-0.88838-5.3551,0.15782c-7.25279,4.09816-14.97278,6.98042-23.18349,8.49321
		c0.0219-0.48302-0.14079-1.09589,0.09375-1.42934c2.86595-4.07465,2.49393-7.49651-1.88273-10.23187
		c-0.18832-0.11769-0.14604-0.60432-0.21119-0.9191c3.34394-0.9955,6.7376-1.86882,10.04859-3.81912
		c0.00011-0.00006,0.00011-0.00023,0-0.00029c-4.8102-2.70328-10.16771-2.50116-14.48573-5.35866
		c-0.00012-0.00008-0.00008-0.00027,0.00005-0.00031c27.18121-5.91589,48.91672,3.86598,66.70348,24.31262
		c0.00006,0.00006,0.00018,0.00006,0.00024-0.00002c3.56903-4.11903-0.26073-8.40405,1.3611-12.1658
		c0.00003-0.00008,0.00012-0.00012,0.0002-0.00011c4.06224,0.8188,5.76199,3.46529,6.93756,6.97272
		c3.01114,8.98413,5.33749,18.21346,9.38362,26.83606C199.13823,175.52625,199.13823,175.52631,199.1382,175.52635z"/>
	<path style="display:inline;fill:#676769;" d="M119.18908,138.7491c0.06515,0.31477,0.02287,0.80141,0.21119,0.9191
		c4.37666,2.73537,4.74868,6.15723,1.88273,10.23187c-0.23451,0.33344-0.07188,0.94621-0.09374,1.42921
		c-0.00001,0.00008-0.00006,0.00014-0.00013,0.00015c-8.36177,1.9819-16.6883,1.68764-24.96576-0.46622
		c-3.6239-0.94296-6.56898,1.7766-10.0125,1.71576c-0.00007,0-0.00014-0.00006-0.00015-0.00014
		c-0.47305-2.27672-1.09795-4.26639-3.74141-5.16275c-3.44031-1.16656-3.57917-2.98669-0.36534-4.84085
		c1.53465-0.88539,2.88048-1.88911,3.07129-3.78638c0.49152-0.0966,0.49827-0.09793,0.98979-0.19453
		c1.34181,2.1852,2.77676,3.84096,5.0128,0.94215c0.00003-0.00003,0.00008-0.00006,0.00014-0.00006
		C100.54972,140.50871,109.9147,141.24088,119.18908,138.7491z"/>
	<path style="display:inline;fill:#676769;" d="M190.09602,180.55444c1.26166,0.17302,2.60487,0.30232,1.06087,1.97922
		C190.21486,182.18932,190.28969,181.29991,190.09602,180.55444z"/>
	<path style="display:inline;fill:#676769;" d="M312.19897,134.47647c-0.40329,3.09856,1.51837,5.13541,3.65347,6.63997
		c3.24097,2.28391,4.38889,4.3631,1.00641,7.44737c-0.59088,0.53876-0.48093,1.84608-0.69461,2.79848
		c0,0.00006-0.00006,0.00009-0.00009,0.00012c-6.55197,2.77095-13.03357,0.58807-19.50345-0.36435
		c-6.79947-1.00093-13.49265-2.93102-20.47708-2.07655c-0.00009,0.00002-0.00015-0.00005-0.00015-0.00014
		c-0.3381-2.40527-0.67618-4.81061-1.01428-7.21594c0-0.00009,0.00006-0.00018,0.00015-0.00018
		c4.25262-0.12308,8.42383-0.18549,12.72122,0.58849c4.61295,0.8308,9.30215,1.53517,13.97061,2.05914
		c1.7923,0.20117,6.56647,1.58025,4.17722-3.77205c-0.00003-0.00008,0-0.00017,0.00006-0.0002
		c0.8374-0.45457,1.14078-1.11172,0.56067-1.92883c-0.78711-1.10864-1.69415-0.33221-2.5567-0.06821
		c-0.00003,0.00002-0.00009,0-0.00012-0.00002c-4.78204-2.73715-8.57031-6.73964-12.86172-10.10152
		c-0.00003-0.00003-0.00006-0.00011-0.00003-0.00017c0.91876-3.68117,3.82877-5.37688,6.896-6.91582
		c0.00003-0.00002,0.00012-0.00002,0.00015,0.00002c3.08932,2.2283,5.72498,4.92516,8.12418,7.8662
		c0.00003,0.00002,0.00003,0.00005,0.00003,0.00006c0.70029,3.24095,2.52509,5.14523,6.01993,5.06442L312.19897,134.47647z"/>
	<path style="display:inline;fill:#676769;" d="M275.16922,141.7057c0.3381,2.40523,0.67618,4.81047,1.01422,7.21567
		c0.00003,0.00008-0.00003,0.00017-0.00012,0.00017c-0.67041,0.07971-1.34082,0.15947-2.01123,0.23923
		c-0.00006,0.00002-0.00015-0.00006-0.00015-0.00014c-0.30472-3.06746-2.39203-1.76447-4.0018-1.63214
		c-0.00012,0-0.00021-0.00009-0.00018-0.0002c0.28839-1.95416,1.36053-3.77412,0.99985-5.83942
		c-0.00003-0.00009,0.00003-0.00017,0.00015-0.00017l2.01392-0.01166c0.34634,0.5426,0.70065,0.50409,1.06342-0.1402
		C274.71246,141.62206,274.70404,141.62051,275.16922,141.7057z"/>
	<path style="display:inline;fill:#676769;" d="M270.17004,147.52849c1.6098-0.13228,3.69714-1.43536,4.00189,1.63213
		c0,0.00009-0.00006,0.00018-0.00015,0.0002l-2.16742,0.11086c-0.72415-0.68806-1.11029-1.05496-1.83444-1.74303l0,0
		C270.16992,147.52856,270.16998,147.5285,270.17004,147.52849z"/>
	<path style="display:inline;fill:#676769;" d="M270.16992,147.52881l0.00046,1.83652c0,0.00008-0.00006,0.00015-0.00015,0.00015
		l-1.99982,0.13159C268.21027,148.20439,268.88739,147.55908,270.16992,147.52881z"/>
	<path style="display:inline;fill:#676769;" d="M206.32286,166.52524c-2.01157-6.41116-2.01147-6.41124,6.85533-8.80028
		c0.00009-0.00002,0.0002,0.00006,0.00021,0.00015c0.46609,5.07654-4.0629,6.26198-6.8553,8.8002
		C206.32303,166.52539,206.32289,166.52534,206.32286,166.52524z"/>
	<path style="display:inline;fill:#676769;" d="M312.22046,134.49678c-3.49451,0.08066-5.31921-1.82349-6.0195-5.06418
		c-0.00003-0.00012,0.00012-0.00024,0.00024-0.0002c2.69662,0.86766,4.35248,2.97249,6.01941,5.0641
		C312.22067,134.49661,312.22061,134.49678,312.22046,134.49678z"/>
	<path style="display:inline;fill:#676769;" d="M86.20705,138.66205c1.72642-0.10379,3.49941-0.47235,4.97073,0.87425
		c0.00006,0.00006,0.00007,0.00018,0.00002,0.00024c-2.21275,2.86858-3.64101,1.27692-4.97086-0.87425
		C86.20686,138.6622,86.20692,138.66206,86.20705,138.66205z"/>
	<path style="display:inline;fill:#676769;" d="M306.03833,140.58069c-0.66531-0.6657-1.33066-1.33139-1.99597-1.99709
		c0.86258-0.26398,1.76962-1.04048,2.55676,0.06819C307.17926,139.46895,306.87582,140.12611,306.03833,140.58069z"/>
	<path style="display:inline;fill:#676769;" d="M273.18387,141.67705c0.32315,0.00447,0.64633,0.00894,0.96948,0.01341
		C273.8233,142.18346,273.50024,142.17271,273.18387,141.67705z"/>
	<g style="display:inline;">
		<g>
			<path style="fill:#676769;" d="M85.5746,152.80798c1.93036,0,1.93356-3,0-3
				C83.64425,149.80798,83.64105,152.80798,85.5746,152.80798L85.5746,152.80798z"/>
		</g>
	</g>
	<g style="display:inline;">
		<g>
			<path style="fill:#676769;" d="M85.19541,152.99759c1.93036,0,1.93356-3,0-3
				C83.26505,149.99759,83.26186,152.99759,85.19541,152.99759L85.19541,152.99759z"/>
		</g>
	</g>
	<g style="display:inline;">
		<g>
			<path style="fill:#676769;" d="M84.91102,141.81143c1.93036,0,1.93356-3,0-3
				C82.98066,138.81143,82.97746,141.81143,84.91102,141.81143L84.91102,141.81143z"/>
		</g>
	</g>
	<g style="display:inline;">
		<g>
			<path style="fill:#676769;" d="M84.15263,141.43225c1.93036,0,1.93356-3,0-3
				C82.22228,138.43225,82.21908,141.43225,84.15263,141.43225L84.15263,141.43225z"/>
		</g>
	</g>
	<g style="display:inline;">
		<g>
			<path style="fill:#676769;" d="M85.38638,138.66072c-1.00552-0.13405-1.63557-1.20164-2.1277-1.99159
				c-0.78529,0.60591-1.57058,1.21182-2.35587,1.81773c1.44952,1.84525,4.06064,2.23149,6.19338,2.87915
				c2.70144,0.82034,5.40158,1.8719,8.24475,1.97978c1.93073,0.07326,1.9276-2.92686,0-3
				c-2.22676-0.08449-4.34261-0.92984-6.45535-1.57143c-1.7832-0.5415-4.66097-0.8806-5.86146-2.40883
				c-1.05724-1.34586-3.2446,0.3912-2.35587,1.81775c1.19359,1.91589,2.42294,3.17145,4.71812,3.47743
				C87.29393,141.91504,87.27524,138.91255,85.38638,138.66072L85.38638,138.66072z"/>
		</g>
	</g>
	<g style="display:inline;">
		<g>
			<path style="fill:#676769;" d="M288.07391,125.62218c2.06778,1.06107,3.76578,2.70435,5.88834,3.66903
				c0.38525-0.91388,0.77054-1.82775,1.15582-2.74162c-0.94836-0.33114-1.85669-0.80605-2.63507-1.44749
				c-0.70483-0.58083-1.18405-1.32507-2.11295-1.55587c-1.19513-0.29694-2.45645,1.07174-1.69397,2.2035
				c1.19916,1.77994,3.32385,2.95464,5.12164,4.04575c0.38528-0.91388,0.77057-1.82774,1.15585-2.74162
				c-2.00027-0.8383-4.28879-1.82732-5.16183-3.97654c-0.7171-1.76535-3.62033-0.99344-2.89282,0.79752
				c1.33969,3.29805,4.12842,4.76063,7.25714,6.07186c1.60577,0.67297,2.5592-1.88989,1.15582-2.74162
				c-1.29282-0.78465-3.18051-1.68578-4.04541-2.9695c-0.56464,0.7345-1.1293,1.46899-1.69394,2.20349
				c-0.23151-0.17981-0.1756-0.10834,0.16776,0.21442c0.19894,0.19891,0.40607,0.38889,0.6214,0.56994
				c0.36411,0.30948,0.75018,0.6002,1.14636,0.86707c0.86996,0.58604,1.82492,1.00711,2.8125,1.35193
				c1.58456,0.55327,2.71042-2.03509,1.15582-2.74163c-2.12231-0.96458-3.82062-2.608-5.88831-3.66902
				C287.87338,122.15189,286.35382,124.73953,288.07391,125.62218L288.07391,125.62218z"/>
		</g>
	</g>
	<g style="display:inline;">
		<g>
			<path style="fill:#676769;" d="M293.68951,121.3811c1.5683,0.60123,2.93353,2.06696,4.07501,3.25449
				c1.22427,1.27367,2.28412,2.66082,3.23016,4.15133c1.0318,1.62558,3.62909,0.12228,2.59042-1.51416
				c-2.15433-3.39413-5.23343-7.30295-9.09808-8.7845C292.68283,117.79662,291.90213,120.6959,293.68951,121.3811
				L293.68951,121.3811z"/>
		</g>
	</g>
	<g style="display:inline;">
		<g>
			<path style="fill:#676769;" d="M268.65051,148.8855c1.12784,0.28975,2.28394,0.42062,3.44733,0.36458
				c-0.35358-0.85355-0.70712-1.70711-1.06067-2.56065c-0.04187,0.0338-0.08374,0.0676-0.12561,0.10139
				c0.22061-0.12859,0.44125-0.25717,0.6619-0.38576c-0.29361,0.08076-1.23651,0.00098-1.73755-0.02122
				c-0.70947-0.03145-1.41562-0.09241-2.12122-0.17197c-0.80627-0.09091-1.5,0.75449-1.5,1.5c0,0.88644,0.69138,1.40883,1.5,1.5
				c0.97687,0.11014,1.95636,0.18138,2.93951,0.1971c0.95016,0.01518,1.73285,0.02443,2.50427-0.59822
				c1.01529-0.81949,0.17218-2.62006-1.06064-2.56067c-0.91052,0.04387-1.76758-0.03076-2.64981-0.25742
				C267.57709,145.51198,266.77893,148.40466,268.65051,148.8855L268.65051,148.8855z"/>
		</g>
	</g>
	<g style="display:inline;">
		<g>
			<path style="fill:#676769;" d="M258.52182,121.91928c0.69012,0.17596,1.38025,0.35193,2.07037,0.5279
				c0.20984-0.37135,0.41968-0.74271,0.62955-1.11407c-0.40121,0.17091-0.60284,0.25065-1.07492,0.27737
				c-0.63654,0.03603-1.50723,0.21039-1.92465,0.74658c-0.4053,0.52066,0.35077,0.70426,0.73993,0.68224
				c1.15134-0.06516,2.27686-0.30164,3.34027-0.75462c0.28964-0.12337,0.69922-0.29248,0.84576-0.59924
				c0.10449-0.2187,0.06213-0.44386-0.21622-0.51482c-0.69012-0.17596-1.38025-0.35193-2.07037-0.5279
				c-0.67432-0.17193-1.43497-0.02023-2.04007,0.31577C258.54742,121.11065,257.83859,121.74508,258.52182,121.91928
				L258.52182,121.91928z"/>
		</g>
	</g>
</g>
<g id="Maps">
	<path style="fill:#676769;" d="M163.54497,17.57172c45.61105-0.27693,84.13477,29.97843,93.90395,70.18054
		c5.71133,23.50316-0.39322,45.14108-8.55579,66.66045c-20.17947,53.19984-46.71875,103.29944-74.63007,152.72244
		c-4.38518,7.76486-10.12732,7.69073-14.67059-0.43558c-22.5047-40.25247-44.17629-80.94278-62.16431-123.46021
		c-8.56322-20.24049-17.03658-40.5526-20.93252-62.39585c-5.77245-32.36436,10.62913-68.87547,38.40434-86.93938
		C130.90572,23.49468,148.25703,18.398,163.54497,17.57172z M167.17796,164.16011
		c29.14938,0.7019,55.2386-23.03157,56.10028-53.64754c0.85643-30.42956-24.83229-56.40974-54.86214-56.79152
		c-30.81572-0.39175-57.02813,25.1906-56.84807,55.48164C111.74759,139.40717,136.67451,164.04161,167.17796,164.16011z"/>
</g>
<g>
</g>
<g>
</g>
<g>
</g>
<g>
</g>
<g>
</g>
</svg>
