<?xml version="1.0" encoding="utf-8"?>
<!-- Generator: Adobe Illustrator 23.0.1, SVG Export Plug-In . SVG Version: 6.00 Build 0)  -->
<svg version="1.1" xmlns="http://www.w3.org/2000/svg" xmlns:xlink="http://www.w3.org/1999/xlink" x="0px" y="0px"
	 viewBox="0 0 52.34628 49.8668" style="enable-background:new 0 0 52.34628 49.8668;" xml:space="preserve">
<g id="logo" style="display:none;">
	<g style="display:inline;">
		<g>
			<path style="fill:#868689;" d="M7.89312,1.51107h5.6167v20.99219c0,1.09375-0.12256,2.13184-0.36865,3.11621
				c-0.24609,0.98389-0.6499,1.85205-1.20947,2.60352c-0.56055,0.75195-1.27832,1.35254-2.15283,1.80371
				c-0.875,0.45117-1.94092,0.67676-3.19775,0.67676c-0.79297,0-1.6543-0.08203-2.58301-0.24609
				c-0.92969-0.16406-1.73535-0.396-2.41895-0.69727l1.22998-4.5918c0.71045,0.35547,1.51709,0.5332,2.41895,0.5332
				c1.14795,0,1.87891-0.42383,2.19336-1.271c0.31396-0.84717,0.47168-1.96826,0.47168-3.3623V1.51107z"/>
			<path style="fill:#868689;" d="M18.42974,10.90023c1.09326-0.49219,2.3916-0.88135,3.89502-1.16846
				c1.50293-0.28711,3.0752-0.43066,4.71533-0.43066c1.4209,0,2.60986,0.17139,3.56689,0.5127
				c0.95654,0.34229,1.71484,0.82715,2.27539,1.45557c0.56006,0.62891,0.95654,1.38037,1.18896,2.25488
				c0.23193,0.875,0.34863,1.85889,0.34863,2.95215c0,1.20313-0.04102,2.4126-0.12305,3.62842
				c-0.08203,1.21631-0.12988,2.4126-0.14355,3.5874c-0.01416,1.17578,0.02051,2.31641,0.10254,3.42334
				c0.08203,1.10742,0.28711,2.15283,0.61475,3.13672h-4.3457l-0.86084-2.8291h-0.20508
				c-0.54736,0.84766-1.30566,1.57861-2.27588,2.19336c-0.97021,0.61523-2.2207,0.92285-3.75146,0.92285
				c-0.95703,0-1.81787-0.14355-2.58301-0.43066s-1.42139-0.69678-1.96777-1.22998c-0.54736-0.5332-0.9707-1.16162-1.271-1.88574
				c-0.30127-0.72412-0.45117-1.5376-0.45117-2.43994c0-1.25684,0.28027-2.31641,0.84082-3.17725
				c0.55957-0.86084,1.36621-1.55811,2.41895-2.09082c1.05176-0.5332,2.30908-0.90234,3.77197-1.10742
				c1.46191-0.20459,3.09521-0.26611,4.89941-0.18408c0.19092-1.53076,0.08203-2.63086-0.32813-3.30078
				c-0.40967-0.66943-1.32617-1.00439-2.74707-1.00439c-1.06592,0-2.19336,0.10938-3.38232,0.32813s-2.1665,0.50586-2.93164,0.86084
				L18.42974,10.90023z M25.19488,26.15218c1.06592,0,1.91309-0.23877,2.54199-0.71729
				c0.62842-0.47803,1.09277-0.99072,1.39404-1.5376v-2.66504c-0.84766-0.08203-1.66064-0.09521-2.43945-0.04102
				c-0.7793,0.05518-1.46973,0.17822-2.0708,0.36914c-0.60156,0.19141-1.08008,0.46484-1.43457,0.81982
				c-0.35596,0.35547-0.5332,0.80664-0.5332,1.35303c0,0.76563,0.22559,1.35986,0.67627,1.78369
				C23.78033,25.94076,24.40191,26.15218,25.19488,26.15218z"/>
			<path style="fill:#868689;" d="M44.01324,9.71126v11.64404c0,1.66748,0.19824,2.87012,0.59473,3.60791
				c0.396,0.73828,1.16846,1.10693,2.31641,1.10693c1.01074,0,1.85156-0.30029,2.52148-0.90186
				c0.66943-0.60107,1.16846-1.33887,1.49658-2.21387V9.71126h5.33008v14.26807c0,1.12109,0.0542,2.22119,0.16357,3.30029
				c0.10938,1.08008,0.27295,2.05713,0.49219,2.93164h-4.01807l-0.94287-3.03418h-0.16406
				c-0.62891,1.03906-1.50342,1.90039-2.62402,2.58301c-1.12109,0.68311-2.44629,1.02539-3.97705,1.02539
				c-1.03906,0-1.96777-0.13721-2.78809-0.41016c-0.81982-0.27295-1.50342-0.72412-2.0498-1.35303
				c-0.54688-0.62842-0.96338-1.47607-1.25049-2.54199s-0.43066-2.40479-0.43066-4.01807V9.71126H44.01324z M43.07037,0.69125
				c0.46436,0.81982,1.11328,1.42871,1.94727,1.82471c0.8335,0.39648,1.71533,0.59424,2.64453,0.59424
				s1.78369-0.20508,2.5625-0.61475c0.7793-0.41016,1.37354-1.01123,1.78369-1.8042l2.45996,1.10693
				c-0.08203,0.65625-0.30762,1.30566-0.67627,1.94775c-0.36914,0.64258-0.85498,1.20947-1.45557,1.70117
				c-0.60156,0.49219-1.30566,0.88867-2.11182,1.18896c-0.80615,0.30127-1.67432,0.45117-2.60352,0.45117
				c-1.80371,0-3.34814-0.45752-4.63281-1.37354c-1.28516-0.91553-2.11865-2.15234-2.50098-3.71045L43.07037,0.69125z"/>
			<path style="fill:#868689;" d="M73.49175,30.21127V18.56722c0-1.66699-0.23242-2.87012-0.69678-3.60791
				c-0.46533-0.73828-1.31201-1.10693-2.54199-1.10693c-0.90186,0-1.729,0.30762-2.48047,0.92236
				c-0.75195,0.61523-1.25049,1.40088-1.49658,2.35742v13.0791h-5.33008V1.51107h5.33008v10.49609h0.16406
				c0.65576-0.87451,1.46191-1.57129,2.41895-2.09082c0.95654-0.51904,2.17285-0.7793,3.64893-0.7793
				c1.03857,0,1.9541,0.13721,2.74707,0.41016c0.79248,0.27344,1.45557,0.72461,1.98828,1.35303
				c0.5332,0.62891,0.9292,1.48291,1.18945,2.5625c0.25928,1.08008,0.38916,2.4126,0.38916,3.99756v12.75098H73.49175z"/>
			<path style="fill:#868689;" d="M82.96246,3.9305c0-0.79248,0.29346-1.46924,0.88184-2.02979
				c0.5874-0.56006,1.40039-0.84033,2.43945-0.84033c1.03857,0,1.87891,0.28027,2.52148,0.84033
				c0.6416,0.56055,0.96338,1.2373,0.96338,2.02979c0,0.79297-0.32178,1.45508-0.96338,1.98828
				c-0.64258,0.5332-1.48291,0.79932-2.52148,0.79932c-1.03906,0-1.85205-0.26611-2.43945-0.79932
				C83.25591,5.38558,82.96246,4.72347,82.96246,3.9305z M83.74175,9.71126h5.33008v20.5h-5.33008V9.71126z"/>
			<path style="fill:#868689;" d="M110.71929,28.44808c-0.81982,0.65625-1.93408,1.20947-3.34131,1.66064
				c-1.4082,0.45117-2.90479,0.67676-4.48975,0.67676c-3.30713,0-5.72607-0.96387-7.25684-2.89063
				c-1.53125-1.92725-2.2959-4.57178-2.2959-7.93359c0-3.60791,0.86084-6.31397,2.58301-8.11817
				c1.72217-1.80371,4.14111-2.70605,7.25684-2.70605c1.03857,0,2.05029,0.13721,3.03418,0.41016
				c0.98389,0.27344,1.8584,0.72461,2.62402,1.35303c0.76465,0.62891,1.37988,1.47607,1.84473,2.54199
				s0.69727,2.39209,0.69727,3.97705c0,0.57422-0.03467,1.18896-0.10254,1.84521c-0.06787,0.65576-0.17041,1.33936-0.30615,2.0498
				H98.7066c0.08105,1.72217,0.52393,3.02051,1.32813,3.89502c0.80322,0.875,2.104,1.31201,3.90186,1.31201
				c1.1167,0,2.11768-0.17041,3.00342-0.5127c0.88525-0.34131,1.55908-0.68994,2.02246-1.04541L110.71929,28.44808z
				 M103.11138,13.40121c-1.38672,0-2.41309,0.41699-3.07959,1.25049c-0.66602,0.83398-1.06641,1.94775-1.20215,3.3418h7.58496
				c0.10889-1.47607-0.11523-2.61035-0.67285-3.40332C105.18462,13.79769,104.30767,13.40121,103.11138,13.40121z"/>
			<path style="fill:#868689;" d="M127.69292,30.21127V18.56722c0-1.66699-0.23926-2.87012-0.71729-3.60791
				c-0.47852-0.73828-1.2915-1.10693-2.43945-1.10693c-1.01172,0-1.86572,0.29395-2.5625,0.88135
				c-0.69727,0.58789-1.19629,1.31885-1.49658,2.19336v13.28418h-5.33008v-20.5h4.22314l0.61475,2.70605h0.16406
				c0.62842-0.87451,1.46191-1.64014,2.50098-2.2959c1.03857-0.65625,2.37793-0.98438,4.01807-0.98438
				c1.01123,0,1.91308,0.13721,2.70605,0.41016c0.79248,0.27344,1.46191,0.72461,2.00928,1.35303
				c0.54639,0.62891,0.95605,1.48291,1.22998,2.5625c0.27246,1.08008,0.40967,2.4126,0.40967,3.99756v12.75098H127.69292z"/>
			<path style="fill:#868689;" d="M166.15044,30.21127h-18.16309V1.51107h5.61719v23.69824h12.5459V30.21127z"/>
			<path style="fill:#868689;" d="M183.90337,28.44808c-0.81982,0.65625-1.93408,1.20947-3.34131,1.66064
				c-1.4082,0.45117-2.90479,0.67676-4.48975,0.67676c-3.30713,0-5.72607-0.96387-7.25684-2.89063
				c-1.53125-1.92725-2.2959-4.57178-2.2959-7.93359c0-3.60791,0.86084-6.31397,2.58301-8.11817
				c1.72217-1.80371,4.14111-2.70605,7.25684-2.70605c1.03857,0,2.05029,0.13721,3.03418,0.41016
				c0.98389,0.27344,1.8584,0.72461,2.62402,1.35303c0.76465,0.62891,1.37988,1.47607,1.84473,2.54199
				s0.69727,2.39209,0.69727,3.97705c0,0.57422-0.03467,1.18896-0.10254,1.84521c-0.06787,0.65576-0.17041,1.33936-0.30615,2.0498
				h-12.26025c0.08105,1.72217,0.52393,3.02051,1.32813,3.89502c0.80322,0.875,2.104,1.31201,3.90186,1.31201
				c1.1167,0,2.11768-0.17041,3.00342-0.5127c0.88525-0.34131,1.55908-0.68994,2.02246-1.04541L183.90337,28.44808z
				 M176.29546,13.40121c-1.38672,0-2.41309,0.41699-3.07959,1.25049c-0.66602,0.83398-1.06641,1.94775-1.20215,3.3418h7.58496
				c0.10889-1.47607-0.11523-2.61035-0.67285-3.40332C178.3687,13.79769,177.49174,13.40121,176.29546,13.40121z"/>
			<path style="fill:#868689;" d="M188.20805,10.90023c1.09326-0.49219,2.3916-0.88135,3.89502-1.16846
				c1.50293-0.28711,3.0752-0.43066,4.71533-0.43066c1.4209,0,2.60986,0.17139,3.56689,0.5127
				c0.95654,0.34229,1.71484,0.82715,2.27539,1.45557c0.56006,0.62891,0.95654,1.38037,1.18896,2.25488
				c0.23193,0.875,0.34863,1.85889,0.34863,2.95215c0,1.20313-0.04102,2.4126-0.12305,3.62842
				c-0.08203,1.21631-0.12988,2.4126-0.14355,3.5874c-0.01416,1.17578,0.02051,2.31641,0.10254,3.42334
				c0.08203,1.10742,0.28711,2.15283,0.61475,3.13672h-4.3457l-0.86084-2.8291h-0.20508
				c-0.54736,0.84766-1.30566,1.57861-2.27588,2.19336c-0.97021,0.61523-2.2207,0.92285-3.75146,0.92285
				c-0.95703,0-1.81787-0.14355-2.58301-0.43066s-1.42139-0.69678-1.96777-1.22998c-0.54736-0.5332-0.9707-1.16162-1.271-1.88574
				c-0.30127-0.72412-0.45117-1.5376-0.45117-2.43994c0-1.25684,0.28027-2.31641,0.84082-3.17725
				c0.55957-0.86084,1.36621-1.55811,2.41895-2.09082c1.05176-0.5332,2.30908-0.90234,3.77197-1.10742
				c1.46191-0.20459,3.09521-0.26611,4.89941-0.18408c0.19092-1.53076,0.08203-2.63086-0.32813-3.30078
				c-0.40967-0.66943-1.32617-1.00439-2.74707-1.00439c-1.06592,0-2.19336,0.10938-3.38232,0.32813s-2.1665,0.50586-2.93164,0.86084
				L188.20805,10.90023z M194.97319,26.15218c1.06592,0,1.91309-0.23877,2.54199-0.71729
				c0.62842-0.47803,1.09277-0.99072,1.39404-1.5376v-2.66504c-0.84766-0.08203-1.66064-0.09521-2.43945-0.04102
				c-0.7793,0.05518-1.46973,0.17822-2.0708,0.36914c-0.60156,0.19141-1.08008,0.46484-1.43457,0.81982
				c-0.35596,0.35547-0.5332,0.80664-0.5332,1.35303c0,0.76563,0.22559,1.35986,0.67627,1.78369
				C193.55864,25.94076,194.18022,26.15218,194.97319,26.15218z"/>
			<path style="fill:#868689;" d="M221.21245,30.21127V18.56722c0-1.66699-0.23926-2.87012-0.71729-3.60791
				c-0.47852-0.73828-1.2915-1.10693-2.43945-1.10693c-1.01172,0-1.86572,0.29395-2.5625,0.88135
				c-0.69727,0.58789-1.19629,1.31885-1.49658,2.19336v13.28418h-5.33008v-20.5h4.22314l0.61475,2.70605h0.16406
				c0.62842-0.87451,1.46191-1.64014,2.50098-2.2959c1.03857-0.65625,2.37793-0.98438,4.01807-0.98438
				c1.01123,0,1.91309,0.13721,2.70605,0.41016c0.79248,0.27344,1.46191,0.72461,2.00928,1.35303
				c0.54639,0.62891,0.95605,1.48291,1.22998,2.5625c0.27246,1.08008,0.40967,2.4126,0.40967,3.99756v12.75098H221.21245z"/>
			<path style="fill:#868689;" d="M230.68315,3.9305c0-0.79248,0.29346-1.46924,0.88184-2.02979
				c0.5874-0.56006,1.40039-0.84033,2.43945-0.84033c1.03857,0,1.87891,0.28027,2.52148,0.84033
				c0.6416,0.56055,0.96338,1.2373,0.96338,2.02979c0,0.79297-0.32178,1.45508-0.96338,1.98828
				c-0.64258,0.5332-1.48291,0.79932-2.52148,0.79932c-1.03906,0-1.85205-0.26611-2.43945-0.79932
				C230.97661,5.38558,230.68315,4.72347,230.68315,3.9305z M231.46245,9.71126h5.33008v20.5h-5.33008V9.71126z"/>
			<path style="fill:#868689;" d="M247.16508,9.71126v11.64404c0,1.66748,0.19824,2.87012,0.59473,3.60791
				c0.396,0.73828,1.16846,1.10693,2.31641,1.10693c1.01074,0,1.85156-0.30029,2.52148-0.90186
				c0.66943-0.60107,1.16846-1.33887,1.49658-2.21387V9.71126h5.33009v14.26807c0,1.12109,0.0542,2.22119,0.16357,3.30029
				c0.10938,1.08008,0.27295,2.05713,0.49219,2.93164h-4.01807l-0.94289-3.03418h-0.16406
				c-0.62891,1.03906-1.50342,1.90039-2.62402,2.58301c-1.12109,0.68311-2.44629,1.02539-3.97705,1.02539
				c-1.03906,0-1.96777-0.13721-2.78809-0.41016c-0.81982-0.27295-1.50342-0.72412-2.0498-1.35303
				c-0.54688-0.62842-0.96338-1.47607-1.25049-2.54199s-0.43066-2.40479-0.43066-4.01807V9.71126H247.16508z"/>
			<path style="fill:#868689;" d="M270.86285,21.72445h-1.43506v8.48682h-5.33008V1.51107h5.33008v16.93311l1.22998-0.57373
				l4.67383-8.15918h5.86328l-4.91992,7.79004l-2.09131,1.55811l2.25537,1.59863l5.53467,9.55322h-6.10889L270.86285,21.72445z"/>
		</g>
	</g>
	<g style="display:inline;">
		<path style="fill:#868689;" d="M7.89312,65.71517h5.6167v20.99219c0,1.09375-0.12256,2.13184-0.36865,3.11621
			c-0.24609,0.98389-0.6499,1.85205-1.20947,2.60352c-0.56055,0.75195-1.27832,1.35254-2.15283,1.80371
			c-0.875,0.45117-1.94092,0.67676-3.19775,0.67676c-0.79297,0-1.6543-0.08203-2.58301-0.24609
			c-0.92969-0.16406-1.73535-0.396-2.41895-0.69727l1.22998-4.5918c0.71045,0.35547,1.51709,0.5332,2.41895,0.5332
			c1.14795,0,1.87891-0.42383,2.19336-1.271c0.31396-0.84717,0.47168-1.96826,0.47168-3.3623V65.71517z"/>
		<path style="fill:#868689;" d="M18.42974,75.10433c1.09326-0.49219,2.3916-0.88135,3.89502-1.16846
			c1.50293-0.28711,3.0752-0.43066,4.71533-0.43066c1.4209,0,2.60986,0.17139,3.56689,0.5127
			c0.95654,0.34229,1.71484,0.82715,2.27539,1.45557c0.56006,0.62891,0.95654,1.38037,1.18896,2.25488
			c0.23193,0.875,0.34863,1.85889,0.34863,2.95215c0,1.20313-0.04102,2.4126-0.12305,3.62842
			c-0.08203,1.21631-0.12988,2.4126-0.14355,3.5874c-0.01416,1.17578,0.02051,2.31641,0.10254,3.42334
			c0.08203,1.10742,0.28711,2.15283,0.61475,3.13672h-4.3457l-0.86084-2.8291h-0.20508
			c-0.54736,0.84766-1.30566,1.57861-2.27588,2.19336c-0.97021,0.61523-2.2207,0.92285-3.75146,0.92285
			c-0.95703,0-1.81787-0.14355-2.58301-0.43066s-1.42139-0.69678-1.96777-1.22998c-0.54736-0.5332-0.9707-1.16162-1.271-1.88574
			c-0.30127-0.72412-0.45117-1.5376-0.45117-2.43994c0-1.25684,0.28027-2.31641,0.84082-3.17725
			c0.55957-0.86084,1.36621-1.55811,2.41895-2.09082c1.05176-0.5332,2.30908-0.90234,3.77197-1.10742
			c1.46191-0.20459,3.09521-0.26611,4.89941-0.18408c0.19092-1.53076,0.08203-2.63086-0.32813-3.30078
			c-0.40967-0.66943-1.32617-1.00439-2.74707-1.00439c-1.06592,0-2.19336,0.10938-3.38232,0.32813s-2.1665,0.50586-2.93164,0.86084
			L18.42974,75.10433z M25.19488,90.35629c1.06592,0,1.91309-0.23877,2.54199-0.71729
			c0.62842-0.47803,1.09277-0.99072,1.39404-1.5376v-2.66504c-0.84766-0.08203-1.66064-0.09521-2.43945-0.04102
			c-0.7793,0.05518-1.46973,0.17822-2.0708,0.36914c-0.60156,0.19141-1.08008,0.46484-1.43457,0.81982
			c-0.35596,0.35547-0.5332,0.80664-0.5332,1.35303c0,0.76563,0.22559,1.35986,0.67627,1.78369
			C23.78033,90.14486,24.40191,90.35629,25.19488,90.35629z"/>
		<path style="fill:#868689;" d="M44.01324,73.91537v11.64404c0,1.66748,0.19824,2.87012,0.59473,3.60791
			c0.396,0.73828,1.16846,1.10693,2.31641,1.10693c1.01074,0,1.85156-0.30029,2.52148-0.90186
			c0.66943-0.60107,1.16846-1.33887,1.49658-2.21387V73.91537h5.33008v14.26807c0,1.12109,0.0542,2.22119,0.16357,3.30029
			c0.10938,1.08008,0.27295,2.05713,0.49219,2.93164h-4.01807l-0.94287-3.03418h-0.16406
			c-0.62891,1.03906-1.50342,1.90039-2.62402,2.58301c-1.12109,0.68311-2.44629,1.02539-3.97705,1.02539
			c-1.03906,0-1.96777-0.13721-2.78809-0.41016c-0.81982-0.27295-1.50342-0.72412-2.0498-1.35303
			c-0.54688-0.62842-0.96338-1.47607-1.25049-2.54199s-0.43066-2.40479-0.43066-4.01807V73.91537H44.01324z M43.07037,64.89535
			c0.46436,0.81982,1.11328,1.42871,1.94727,1.82471c0.8335,0.39648,1.71533,0.59424,2.64453,0.59424
			s1.78369-0.20508,2.5625-0.61475c0.7793-0.41016,1.37354-1.01123,1.78369-1.8042l2.45996,1.10693
			c-0.08203,0.65625-0.30762,1.30566-0.67627,1.94775c-0.36914,0.64258-0.85498,1.20947-1.45557,1.70117
			c-0.60156,0.49219-1.30566,0.88867-2.11182,1.18896c-0.80615,0.30127-1.67432,0.45117-2.60352,0.45117
			c-1.80371,0-3.34814-0.45752-4.63281-1.37354c-1.28516-0.91553-2.11865-2.15234-2.50098-3.71045L43.07037,64.89535z"/>
		<path style="fill:#868689;" d="M73.49175,94.41537V82.77132c0-1.66699-0.23242-2.87012-0.69678-3.60791
			c-0.46533-0.73828-1.31201-1.10693-2.54199-1.10693c-0.90186,0-1.729,0.30762-2.48047,0.92236
			c-0.75195,0.61523-1.25049,1.40088-1.49658,2.35742v13.0791h-5.33008v-28.7002h5.33008v10.49609h0.16406
			c0.65576-0.87451,1.46191-1.57129,2.41895-2.09082c0.95654-0.51904,2.17285-0.7793,3.64893-0.7793
			c1.03857,0,1.9541,0.13721,2.74707,0.41016c0.79248,0.27344,1.45557,0.72461,1.98828,1.35303
			c0.5332,0.62891,0.9292,1.48291,1.18945,2.5625c0.25928,1.08008,0.38916,2.4126,0.38916,3.99756v12.75098H73.49175z"/>
		<path style="fill:#868689;" d="M82.96246,68.13461c0-0.79248,0.29346-1.46924,0.88184-2.02979
			c0.5874-0.56006,1.40039-0.84033,2.43945-0.84033c1.03857,0,1.87891,0.28027,2.52148,0.84033
			c0.6416,0.56055,0.96338,1.2373,0.96338,2.02979c0,0.79297-0.32178,1.45508-0.96338,1.98828
			c-0.64258,0.5332-1.48291,0.79932-2.52148,0.79932c-1.03906,0-1.85205-0.26611-2.43945-0.79932
			C83.25591,69.58968,82.96246,68.92757,82.96246,68.13461z M83.74175,73.91537h5.33008v20.5h-5.33008V73.91537z"/>
		<path style="fill:#868689;" d="M110.71929,92.65218c-0.81982,0.65625-1.93408,1.20947-3.34131,1.66064
			c-1.4082,0.45117-2.90479,0.67676-4.48975,0.67676c-3.30713,0-5.72607-0.96387-7.25684-2.89063
			c-1.53125-1.92725-2.2959-4.57178-2.2959-7.93359c0-3.60791,0.86084-6.31396,2.58301-8.11816
			c1.72217-1.80371,4.14111-2.70605,7.25684-2.70605c1.03857,0,2.05029,0.13721,3.03418,0.41016
			c0.98389,0.27344,1.8584,0.72461,2.62402,1.35303c0.76465,0.62891,1.37988,1.47607,1.84473,2.54199
			s0.69727,2.39209,0.69727,3.97705c0,0.57422-0.03467,1.18896-0.10254,1.84521c-0.06787,0.65576-0.17041,1.33936-0.30615,2.0498
			H98.7066c0.08105,1.72217,0.52393,3.02051,1.32813,3.89502c0.80322,0.875,2.104,1.31201,3.90186,1.31201
			c1.1167,0,2.11768-0.17041,3.00342-0.5127c0.88525-0.34131,1.55908-0.68994,2.02246-1.04541L110.71929,92.65218z
			 M103.11138,77.60531c-1.38672,0-2.41309,0.41699-3.07959,1.25049c-0.66602,0.83398-1.06641,1.94775-1.20215,3.3418h7.58496
			c0.10889-1.47607-0.11523-2.61035-0.67285-3.40332C105.18462,78.00179,104.30767,77.60531,103.11138,77.60531z"/>
		<path style="fill:#868689;" d="M127.69292,94.41537V82.77132c0-1.66699-0.23926-2.87012-0.71729-3.60791
			c-0.47852-0.73828-1.2915-1.10693-2.43945-1.10693c-1.01172,0-1.86572,0.29395-2.5625,0.88135
			c-0.69727,0.58789-1.19629,1.31885-1.49658,2.19336v13.28418h-5.33008v-20.5h4.22314l0.61475,2.70605h0.16406
			c0.62842-0.87451,1.46191-1.64014,2.50098-2.2959c1.03857-0.65625,2.37793-0.98438,4.01807-0.98438
			c1.01123,0,1.91308,0.13721,2.70605,0.41016c0.79248,0.27344,1.46191,0.72461,2.00928,1.35303
			c0.54639,0.62891,0.95605,1.48291,1.22998,2.5625c0.27246,1.08008,0.40967,2.4126,0.40967,3.99756v12.75098H127.69292z"/>
		<path style="fill:#868689;" d="M166.15044,94.41537h-18.16309v-28.7002h5.61719v23.69824h12.5459V94.41537z"/>
		<path style="fill:#868689;" d="M183.90337,92.65218c-0.81982,0.65625-1.93408,1.20947-3.34131,1.66064
			c-1.4082,0.45117-2.90479,0.67676-4.48975,0.67676c-3.30713,0-5.72607-0.96387-7.25684-2.89063
			c-1.53125-1.92725-2.2959-4.57178-2.2959-7.93359c0-3.60791,0.86084-6.31396,2.58301-8.11816
			c1.72217-1.80371,4.14111-2.70605,7.25684-2.70605c1.03857,0,2.05029,0.13721,3.03418,0.41016
			c0.98389,0.27344,1.8584,0.72461,2.62402,1.35303c0.76465,0.62891,1.37988,1.47607,1.84473,2.54199
			s0.69727,2.39209,0.69727,3.97705c0,0.57422-0.03467,1.18896-0.10254,1.84521c-0.06787,0.65576-0.17041,1.33936-0.30615,2.0498
			h-12.26025c0.08105,1.72217,0.52393,3.02051,1.32813,3.89502c0.80322,0.875,2.104,1.31201,3.90186,1.31201
			c1.1167,0,2.11768-0.17041,3.00342-0.5127c0.88525-0.34131,1.55908-0.68994,2.02246-1.04541L183.90337,92.65218z
			 M176.29546,77.60531c-1.38672,0-2.41309,0.41699-3.07959,1.25049c-0.66602,0.83398-1.06641,1.94775-1.20215,3.3418h7.58496
			c0.10889-1.47607-0.11523-2.61035-0.67285-3.40332C178.3687,78.00179,177.49174,77.60531,176.29546,77.60531z"/>
		<path style="fill:#868689;" d="M188.20805,75.10433c1.09326-0.49219,2.3916-0.88135,3.89502-1.16846
			c1.50293-0.28711,3.0752-0.43066,4.71533-0.43066c1.4209,0,2.60986,0.17139,3.56689,0.5127
			c0.95654,0.34229,1.71484,0.82715,2.27539,1.45557c0.56006,0.62891,0.95654,1.38037,1.18896,2.25488
			c0.23193,0.875,0.34863,1.85889,0.34863,2.95215c0,1.20313-0.04102,2.4126-0.12305,3.62842
			c-0.08203,1.21631-0.12988,2.4126-0.14355,3.5874c-0.01416,1.17578,0.02051,2.31641,0.10254,3.42334
			c0.08203,1.10742,0.28711,2.15283,0.61475,3.13672h-4.3457l-0.86084-2.8291h-0.20508
			c-0.54736,0.84766-1.30566,1.57861-2.27588,2.19336c-0.97021,0.61523-2.2207,0.92285-3.75146,0.92285
			c-0.95703,0-1.81787-0.14355-2.58301-0.43066s-1.42139-0.69678-1.96777-1.22998c-0.54736-0.5332-0.9707-1.16162-1.271-1.88574
			c-0.30127-0.72412-0.45117-1.5376-0.45117-2.43994c0-1.25684,0.28027-2.31641,0.84082-3.17725
			c0.55957-0.86084,1.36621-1.55811,2.41895-2.09082c1.05176-0.5332,2.30908-0.90234,3.77197-1.10742
			c1.46191-0.20459,3.09521-0.26611,4.89941-0.18408c0.19092-1.53076,0.08203-2.63086-0.32813-3.30078
			c-0.40967-0.66943-1.32617-1.00439-2.74707-1.00439c-1.06592,0-2.19336,0.10938-3.38232,0.32813s-2.1665,0.50586-2.93164,0.86084
			L188.20805,75.10433z M194.97319,90.35629c1.06592,0,1.91309-0.23877,2.54199-0.71729
			c0.62842-0.47803,1.09277-0.99072,1.39404-1.5376v-2.66504c-0.84766-0.08203-1.66064-0.09521-2.43945-0.04102
			c-0.7793,0.05518-1.46973,0.17822-2.0708,0.36914c-0.60156,0.19141-1.08008,0.46484-1.43457,0.81982
			c-0.35596,0.35547-0.5332,0.80664-0.5332,1.35303c0,0.76563,0.22559,1.35986,0.67627,1.78369
			C193.55864,90.14486,194.18022,90.35629,194.97319,90.35629z"/>
		<path style="fill:#868689;" d="M221.21245,94.41537V82.77132c0-1.66699-0.23926-2.87012-0.71729-3.60791
			c-0.47852-0.73828-1.2915-1.10693-2.43945-1.10693c-1.01172,0-1.86572,0.29395-2.5625,0.88135
			c-0.69727,0.58789-1.19629,1.31885-1.49658,2.19336v13.28418h-5.33008v-20.5h4.22314l0.61475,2.70605h0.16406
			c0.62842-0.87451,1.46191-1.64014,2.50098-2.2959c1.03857-0.65625,2.37793-0.98438,4.01807-0.98438
			c1.01123,0,1.91309,0.13721,2.70605,0.41016c0.79248,0.27344,1.46191,0.72461,2.00928,1.35303
			c0.54639,0.62891,0.95605,1.48291,1.22998,2.5625c0.27246,1.08008,0.40967,2.4126,0.40967,3.99756v12.75098H221.21245z"/>
		<path style="fill:#868689;" d="M230.68315,68.13461c0-0.79248,0.29346-1.46924,0.88184-2.02979
			c0.5874-0.56006,1.40039-0.84033,2.43945-0.84033c1.03857,0,1.87891,0.28027,2.52148,0.84033
			c0.6416,0.56055,0.96338,1.2373,0.96338,2.02979c0,0.79297-0.32178,1.45508-0.96338,1.98828
			c-0.64258,0.5332-1.48291,0.79932-2.52148,0.79932c-1.03906,0-1.85205-0.26611-2.43945-0.79932
			C230.97661,69.58968,230.68315,68.92757,230.68315,68.13461z M231.46245,73.91537h5.33008v20.5h-5.33008V73.91537z"/>
		<path style="fill:#868689;" d="M247.16508,73.91537v11.64404c0,1.66748,0.19824,2.87012,0.59473,3.60791
			c0.396,0.73828,1.16846,1.10693,2.31641,1.10693c1.01074,0,1.85156-0.30029,2.52148-0.90186
			c0.66943-0.60107,1.16846-1.33887,1.49658-2.21387V73.91537h5.33009v14.26807c0,1.12109,0.0542,2.22119,0.16357,3.30029
			c0.10938,1.08008,0.27295,2.05713,0.49219,2.93164h-4.01807l-0.94289-3.03418h-0.16406
			c-0.62891,1.03906-1.50342,1.90039-2.62402,2.58301c-1.12109,0.68311-2.44629,1.02539-3.97705,1.02539
			c-1.03906,0-1.96777-0.13721-2.78809-0.41016c-0.81982-0.27295-1.50342-0.72412-2.0498-1.35303
			c-0.54688-0.62842-0.96338-1.47607-1.25049-2.54199s-0.43066-2.40479-0.43066-4.01807V73.91537H247.16508z"/>
		<path style="fill:#868689;" d="M270.86285,85.92855h-1.43506v8.48682h-5.33008v-28.7002h5.33008v16.93311l1.22998-0.57373
			l4.67383-8.15918h5.86328l-4.91992,7.79004l-2.09131,1.55811l2.25537,1.59863l5.53467,9.55322h-6.10889L270.86285,85.92855z"/>
	</g>
	<g style="display:inline;">
		<g>
			<path style="fill:#BC5050;" d="M7.89312,33.61312h5.6167v20.99219c0,1.09375-0.12256,2.13184-0.36865,3.11621
				s-0.6499,1.85254-1.20947,2.60352c-0.56055,0.75195-1.27832,1.35254-2.15283,1.80371
				c-0.875,0.45117-1.94092,0.67676-3.19775,0.67676c-0.79297,0-1.6543-0.08203-2.58301-0.24609
				c-0.92969-0.16406-1.73535-0.39551-2.41895-0.69727l1.22998-4.5918c0.71045,0.35547,1.51709,0.5332,2.41895,0.5332
				c1.14795,0,1.87891-0.42383,2.19336-1.27051c0.31396-0.84766,0.47168-1.96875,0.47168-3.3623V33.61312z"/>
			<path style="fill:#BC5050;" d="M18.42974,43.00277c1.09326-0.49219,2.3916-0.88184,3.89502-1.16895
				c1.50293-0.28711,3.0752-0.43066,4.71533-0.43066c1.4209,0,2.60986,0.17188,3.56689,0.5127
				c0.95654,0.34277,1.71484,0.82715,2.27539,1.45605c0.56006,0.62891,0.95654,1.37988,1.18896,2.25488
				c0.23193,0.875,0.34863,1.8584,0.34863,2.95215c0,1.20313-0.04102,2.41211-0.12305,3.62793
				c-0.08203,1.2168-0.12988,2.41309-0.14355,3.58789c-0.01416,1.17578,0.02051,2.31641,0.10254,3.42285
				c0.08203,1.10742,0.28711,2.15332,0.61475,3.13672h-4.3457l-0.86084-2.8291h-0.20508
				c-0.54736,0.84766-1.30566,1.5791-2.27588,2.19336c-0.97021,0.61523-2.2207,0.92285-3.75146,0.92285
				c-0.95703,0-1.81787-0.14355-2.58301-0.43066s-1.42139-0.69629-1.96777-1.22949c-0.54736-0.5332-0.9707-1.16211-1.271-1.88574
				c-0.30127-0.72461-0.45117-1.53809-0.45117-2.44043c0-1.25684,0.28027-2.31641,0.84082-3.17676
				c0.55957-0.86133,1.36621-1.55859,2.41895-2.09082c1.05176-0.5332,2.30908-0.90234,3.77197-1.10742
				c1.46191-0.20508,3.09521-0.2666,4.89941-0.18457c0.19092-1.53027,0.08203-2.63086-0.32813-3.30078
				c-0.40967-0.66895-1.32617-1.00391-2.74707-1.00391c-1.06592,0-2.19336,0.10938-3.38232,0.32813s-2.1665,0.50586-2.93164,0.86035
				L18.42974,43.00277z M25.19488,58.25472c1.06592,0,1.91309-0.23926,2.54199-0.71777
				c0.62842-0.47754,1.09277-0.99023,1.39404-1.53711V53.3348c-0.84766-0.08203-1.66064-0.0957-2.43945-0.04102
				c-0.7793,0.05469-1.46973,0.17773-2.0708,0.36914c-0.60156,0.19141-1.08008,0.46484-1.43457,0.81934
				c-0.35596,0.35547-0.5332,0.80664-0.5332,1.35352c0,0.76563,0.22559,1.35938,0.67627,1.7832
				C23.78033,58.04281,24.40191,58.25472,25.19488,58.25472z"/>
			<path style="fill:#BC5050;" d="M44.01324,41.81332v11.64453c0,1.66699,0.19824,2.87012,0.59473,3.60742
				c0.396,0.73828,1.16846,1.10742,2.31641,1.10742c1.01074,0,1.85156-0.30078,2.52148-0.90234
				c0.66943-0.60059,1.16846-1.33887,1.49658-2.21387V41.81332h5.33008v14.26855c0,1.12109,0.0542,2.2207,0.16357,3.2998
				c0.10938,1.08008,0.27295,2.05762,0.49219,2.93164h-4.01807l-0.94287-3.03418h-0.16406
				c-0.62891,1.03906-1.50342,1.90039-2.62402,2.58301c-1.12109,0.68359-2.44629,1.02539-3.97705,1.02539
				c-1.03906,0-1.96777-0.13672-2.78809-0.41016c-0.81982-0.27246-1.50342-0.72363-2.0498-1.35254
				c-0.54688-0.62891-0.96338-1.47656-1.25049-2.54199c-0.28711-1.06641-0.43066-2.40527-0.43066-4.01855V41.81332H44.01324z
				 M43.07037,32.79379c0.46436,0.81934,1.11328,1.42871,1.94727,1.82422c0.8335,0.39648,1.71533,0.59473,2.64453,0.59473
				s1.78369-0.20508,2.5625-0.61523c0.7793-0.41016,1.37354-1.01074,1.78369-1.80371l2.45996,1.10645
				c-0.08203,0.65625-0.30762,1.30566-0.67627,1.94824c-0.36914,0.64258-0.85498,1.20898-1.45557,1.70117
				c-0.60156,0.49219-1.30566,0.88867-2.11182,1.18848c-0.80615,0.30176-1.67432,0.45117-2.60352,0.45117
				c-1.80371,0-3.34814-0.45703-4.63281-1.37305c-1.28516-0.91602-2.11865-2.15234-2.50098-3.71094L43.07037,32.79379z"/>
			<path style="fill:#BC5050;" d="M73.49175,62.31332V50.66976c0-1.66699-0.23242-2.87012-0.69678-3.6084
				c-0.46533-0.73828-1.31201-1.10645-2.54199-1.10645c-0.90186,0-1.729,0.30762-2.48047,0.92188
				c-0.75195,0.61523-1.25049,1.40137-1.49658,2.35742v13.0791h-5.33008v-28.7002h5.33008v10.49609h0.16406
				c0.65576-0.87402,1.46191-1.57129,2.41895-2.09082c0.95654-0.51855,2.17285-0.7793,3.64893-0.7793
				c1.03857,0,1.9541,0.1377,2.74707,0.41016c0.79248,0.27344,1.45557,0.72461,1.98828,1.35352
				c0.5332,0.62891,0.9292,1.48242,1.18945,2.5625c0.25928,1.08008,0.38916,2.41211,0.38916,3.99707v12.75098H73.49175z"/>
			<path style="fill:#BC5050;" d="M82.96246,36.03304c0-0.79297,0.29346-1.46973,0.88184-2.03027
				c0.5874-0.55957,1.40039-0.83984,2.43945-0.83984c1.03857,0,1.87891,0.28027,2.52148,0.83984
				c0.6416,0.56055,0.96338,1.2373,0.96338,2.03027s-0.32178,1.45508-0.96338,1.98828
				c-0.64258,0.5332-1.48291,0.79883-2.52148,0.79883c-1.03906,0-1.85205-0.26563-2.43945-0.79883
				C83.25591,37.48812,82.96246,36.82601,82.96246,36.03304z M83.74175,41.81332h5.33008v20.5h-5.33008V41.81332z"/>
			<path style="fill:#BC5050;" d="M110.71929,60.55062c-0.81982,0.65625-1.93408,1.20898-3.34131,1.66016
				c-1.4082,0.45117-2.90479,0.67676-4.48975,0.67676c-3.30713,0-5.72607-0.96387-7.25684-2.89063
				c-1.53125-1.92676-2.2959-4.57129-2.2959-7.93359c0-3.60742,0.86084-6.31348,2.58301-8.11816
				c1.72217-1.80371,4.14111-2.70605,7.25684-2.70605c1.03857,0,2.05029,0.1377,3.03418,0.41016
				c0.98389,0.27344,1.8584,0.72461,2.62402,1.35352c0.76465,0.62891,1.37988,1.47559,1.84473,2.54199
				c0.46484,1.06543,0.69727,2.3916,0.69727,3.97656c0,0.57422-0.03467,1.18945-0.10254,1.8457
				c-0.06787,0.65527-0.17041,1.33887-0.30615,2.0498H98.7066c0.08105,1.72168,0.52393,3.02051,1.32813,3.89453
				c0.80322,0.875,2.104,1.3125,3.90186,1.3125c1.1167,0,2.11768-0.1709,3.00342-0.5127
				c0.88525-0.3418,1.55908-0.69043,2.02246-1.0459L110.71929,60.55062z M103.11138,45.50375
				c-1.38672,0-2.41309,0.41699-3.07959,1.25c-0.66602,0.83398-1.06641,1.94824-1.20215,3.3418h7.58496
				c0.10889-1.47559-0.11523-2.61035-0.67285-3.40332C105.18462,45.90023,104.30767,45.50375,103.11138,45.50375z"/>
			<path style="fill:#BC5050;" d="M127.69292,62.31332V50.66976c0-1.66699-0.23926-2.87012-0.71729-3.6084
				c-0.47852-0.73828-1.2915-1.10645-2.43945-1.10645c-1.01172,0-1.86572,0.29395-2.5625,0.88086
				c-0.69727,0.58789-1.19629,1.31934-1.49658,2.19336v13.28418h-5.33008v-20.5h4.22314l0.61475,2.70605h0.16406
				c0.62842-0.87402,1.46191-1.63965,2.50098-2.2959c1.03857-0.65625,2.37793-0.98438,4.01807-0.98438
				c1.01123,0,1.91308,0.1377,2.70605,0.41016c0.79248,0.27344,1.46191,0.72461,2.00928,1.35352
				c0.54639,0.62891,0.95605,1.48242,1.22998,2.5625c0.27246,1.08008,0.40967,2.41211,0.40967,3.99707v12.75098H127.69292z"/>
			<path style="fill:#BC5050;" d="M166.15044,62.31332h-18.16309v-28.7002h5.61719v23.69824h12.5459V62.31332z"/>
			<path style="fill:#BC5050;" d="M183.90337,60.55062c-0.81982,0.65625-1.93408,1.20898-3.34131,1.66016
				c-1.4082,0.45117-2.90479,0.67676-4.48975,0.67676c-3.30713,0-5.72607-0.96387-7.25684-2.89063
				c-1.53125-1.92676-2.2959-4.57129-2.2959-7.93359c0-3.60742,0.86084-6.31348,2.58301-8.11816
				c1.72217-1.80371,4.14111-2.70605,7.25684-2.70605c1.03857,0,2.05029,0.1377,3.03418,0.41016
				c0.98389,0.27344,1.8584,0.72461,2.62402,1.35352c0.76465,0.62891,1.37988,1.47559,1.84473,2.54199
				c0.46484,1.06543,0.69727,2.3916,0.69727,3.97656c0,0.57422-0.03467,1.18945-0.10254,1.8457
				c-0.06787,0.65527-0.17041,1.33887-0.30615,2.0498h-12.26025c0.08105,1.72168,0.52393,3.02051,1.32813,3.89453
				c0.80322,0.875,2.104,1.3125,3.90186,1.3125c1.1167,0,2.11768-0.1709,3.00342-0.5127
				c0.88525-0.3418,1.55908-0.69043,2.02246-1.0459L183.90337,60.55062z M176.29546,45.50375
				c-1.38672,0-2.41309,0.41699-3.07959,1.25c-0.66602,0.83398-1.06641,1.94824-1.20215,3.3418h7.58496
				c0.10889-1.47559-0.11523-2.61035-0.67285-3.40332C178.3687,45.90023,177.49174,45.50375,176.29546,45.50375z"/>
			<path style="fill:#BC5050;" d="M188.20805,43.00277c1.09326-0.49219,2.3916-0.88184,3.89502-1.16895
				c1.50293-0.28711,3.0752-0.43066,4.71533-0.43066c1.4209,0,2.60986,0.17188,3.56689,0.5127
				c0.95654,0.34277,1.71484,0.82715,2.27539,1.45605c0.56006,0.62891,0.95654,1.37988,1.18896,2.25488
				c0.23193,0.875,0.34863,1.8584,0.34863,2.95215c0,1.20313-0.04102,2.41211-0.12305,3.62793
				c-0.08203,1.2168-0.12988,2.41309-0.14355,3.58789c-0.01416,1.17578,0.02051,2.31641,0.10254,3.42285
				c0.08203,1.10742,0.28711,2.15332,0.61475,3.13672h-4.3457l-0.86084-2.8291h-0.20508
				c-0.54736,0.84766-1.30566,1.5791-2.27588,2.19336c-0.97021,0.61523-2.2207,0.92285-3.75146,0.92285
				c-0.95703,0-1.81787-0.14355-2.58301-0.43066s-1.42139-0.69629-1.96777-1.22949c-0.54736-0.5332-0.9707-1.16211-1.271-1.88574
				c-0.30127-0.72461-0.45117-1.53809-0.45117-2.44043c0-1.25684,0.28027-2.31641,0.84082-3.17676
				c0.55957-0.86133,1.36621-1.55859,2.41895-2.09082c1.05176-0.5332,2.30908-0.90234,3.77197-1.10742
				c1.46191-0.20508,3.09521-0.2666,4.89941-0.18457c0.19092-1.53027,0.08203-2.63086-0.32813-3.30078
				c-0.40967-0.66895-1.32617-1.00391-2.74707-1.00391c-1.06592,0-2.19336,0.10938-3.38232,0.32813s-2.1665,0.50586-2.93164,0.86035
				L188.20805,43.00277z M194.97319,58.25472c1.06592,0,1.91309-0.23926,2.54199-0.71777
				c0.62842-0.47754,1.09277-0.99023,1.39404-1.53711V53.3348c-0.84766-0.08203-1.66064-0.0957-2.43945-0.04102
				c-0.7793,0.05469-1.46973,0.17773-2.0708,0.36914c-0.60156,0.19141-1.08008,0.46484-1.43457,0.81934
				c-0.35596,0.35547-0.5332,0.80664-0.5332,1.35352c0,0.76563,0.22559,1.35938,0.67627,1.7832
				C193.55864,58.04281,194.18022,58.25472,194.97319,58.25472z"/>
			<path style="fill:#BC5050;" d="M221.21245,62.31332V50.66976c0-1.66699-0.23926-2.87012-0.71729-3.6084
				c-0.47852-0.73828-1.2915-1.10645-2.43945-1.10645c-1.01172,0-1.86572,0.29395-2.5625,0.88086
				c-0.69727,0.58789-1.19629,1.31934-1.49658,2.19336v13.28418h-5.33008v-20.5h4.22314l0.61475,2.70605h0.16406
				c0.62842-0.87402,1.46191-1.63965,2.50098-2.2959c1.03857-0.65625,2.37793-0.98438,4.01807-0.98438
				c1.01123,0,1.91309,0.1377,2.70605,0.41016c0.79248,0.27344,1.46191,0.72461,2.00928,1.35352
				c0.54639,0.62891,0.95605,1.48242,1.22998,2.5625c0.27246,1.08008,0.40967,2.41211,0.40967,3.99707v12.75098H221.21245z"/>
			<path style="fill:#BC5050;" d="M230.68315,36.03304c0-0.79297,0.29346-1.46973,0.88184-2.03027
				c0.5874-0.55957,1.40039-0.83984,2.43945-0.83984c1.03857,0,1.87891,0.28027,2.52148,0.83984
				c0.6416,0.56055,0.96338,1.2373,0.96338,2.03027s-0.32178,1.45508-0.96338,1.98828
				c-0.64258,0.5332-1.48291,0.79883-2.52148,0.79883c-1.03906,0-1.85205-0.26563-2.43945-0.79883
				C230.97661,37.48812,230.68315,36.82601,230.68315,36.03304z M231.46245,41.81332h5.33008v20.5h-5.33008V41.81332z"/>
			<path style="fill:#BC5050;" d="M247.16508,41.81332v11.64453c0,1.66699,0.19824,2.87012,0.59473,3.60742
				c0.396,0.73828,1.16846,1.10742,2.31641,1.10742c1.01074,0,1.85156-0.30078,2.52148-0.90234
				c0.66943-0.60059,1.16846-1.33887,1.49658-2.21387V41.81332h5.33009v14.26855c0,1.12109,0.0542,2.2207,0.16357,3.2998
				c0.10938,1.08008,0.27295,2.05762,0.49219,2.93164h-4.01807l-0.94289-3.03418h-0.16406
				c-0.62891,1.03906-1.50342,1.90039-2.62402,2.58301c-1.12109,0.68359-2.44629,1.02539-3.97705,1.02539
				c-1.03906,0-1.96777-0.13672-2.78809-0.41016c-0.81982-0.27246-1.50342-0.72363-2.0498-1.35254
				c-0.54688-0.62891-0.96338-1.47656-1.25049-2.54199c-0.28711-1.06641-0.43066-2.40527-0.43066-4.01855V41.81332H247.16508z"/>
			<path style="fill:#BC5050;" d="M270.86285,53.82699h-1.43506v8.48633h-5.33008v-28.7002h5.33008v16.93359l1.22998-0.57422
				l4.67383-8.15918h5.86328l-4.91992,7.79004l-2.09131,1.55859l2.25537,1.59863l5.53467,9.55273h-6.10889L270.86285,53.82699z"/>
		</g>
	</g>
</g>
<g id="logo_x5F_2" style="display:none;">
	<rect x="0.15207" style="display:inline;fill:#868689;" width="283.72012" height="32.53811"/>
	<rect x="0.15207" y="65.07622" style="display:inline;fill:#868689;" width="283.72012" height="32.53811"/>
	<rect x="0.15207" y="32.53811" style="display:inline;fill:#BC5050;" width="283.72012" height="32.53811"/>
	<g style="display:inline;">
		<path style="fill:#333333;" d="M11.9439,54.48617H8.35943l-1.4502,6.21289H2.60015l1.44971-6.21289H1.06939l0.88623-3.91357
			h3.02051l1.00684-4.27637h-2.8999l0.88623-3.91357h2.93994l1.40967-5.80957h4.26904l-1.36914,5.80957h3.58447l1.40967-5.80957
			h4.26904l-1.36914,5.80957h2.89941l-1.00684,3.91357h-2.81934l-1.00684,4.27637h2.7793l-0.9668,3.91357h-2.73877l-1.44971,6.21289
			h-4.30957L11.9439,54.48617z M9.2857,50.57259h3.58447l1.00684-4.27637h-3.58447L9.2857,50.57259z"/>
		<path style="fill:#333333;" d="M25.55621,34.79769c1.12744-0.21484,2.36914-0.3833,3.72559-0.50439
			c1.35547-0.12061,2.70459-0.18115,4.04736-0.18115c1.396,0,2.79932,0.11475,4.20898,0.34277
			c1.40967,0.229,2.67822,0.68604,3.80566,1.37158c1.12793,0.68604,2.04736,1.64111,2.75879,2.86475
			c0.71143,1.22412,1.06738,2.81787,1.06738,4.78076c0,1.7749-0.30908,3.2749-0.92627,4.49854
			c-0.61816,1.22412-1.43652,2.22559-2.45654,3.00537c-1.021,0.78076-2.18213,1.34521-3.48389,1.69482
			c-1.30273,0.34961-2.65186,0.52441-4.04785,0.52441c-0.13477,0-0.34912,0-0.64404,0c-0.2959,0-0.60449-0.00635-0.92676-0.02051
			c-0.32178-0.01318-0.6377-0.0332-0.94629-0.06055c-0.30908-0.02637-0.53027-0.05322-0.66455-0.08057v9.72314h-5.51758V34.79769z
			 M33.77203,38.8724c-0.53711,0-1.04688,0.02051-1.53027,0.06055c-0.4834,0.04053-0.87256,0.08789-1.16797,0.1416v9.1582
			c0.10693,0.02686,0.26807,0.0542,0.4834,0.08057c0.21436,0.02686,0.44287,0.04736,0.68457,0.06055
			c0.2417,0.01367,0.47656,0.02002,0.70508,0.02002c0.22754,0,0.39551,0,0.50342,0c0.72461,0,1.44287-0.06689,2.1543-0.20166
			c0.71143-0.13428,1.34961-0.3833,1.91309-0.74658c0.56396-0.36279,1.01318-0.86719,1.34961-1.5127
			c0.33545-0.64551,0.50342-1.49268,0.50342-2.5415c0-0.8877-0.16113-1.62012-0.4834-2.19922
			c-0.32227-0.57764-0.74512-1.04199-1.26855-1.3916c-0.52393-0.34912-1.12158-0.59131-1.79248-0.72607
			C35.15484,38.94027,34.47027,38.8724,33.77203,38.8724z"/>
		<path style="fill:#333333;" d="M58.42046,47.50619c-0.83252-0.29541-1.58447-0.44336-2.25537-0.44336
			c-0.94043,0-1.72559,0.24854-2.35596,0.74609c-0.63135,0.49805-1.0542,1.13672-1.26904,1.9165v13.03125h-5.23535V42.58431h4.06738
			l0.60449,2.6626h0.16064c0.45654-0.99463,1.07373-1.76123,1.85303-2.29932c0.77832-0.53809,1.69141-0.80713,2.73877-0.80713
			c0.69775,0,1.48975,0.14844,2.37598,0.44385L58.42046,47.50619z"/>
		<path style="fill:#333333;" d="M61.31988,43.75423c1.07373-0.48389,2.34912-0.86719,3.82617-1.1499
			c1.47607-0.28223,3.02051-0.42334,4.63135-0.42334c1.396,0,2.56396,0.16846,3.50439,0.50439
			c0.93945,0.33643,1.68457,0.81348,2.23486,1.43213c0.55029,0.61914,0.93945,1.3584,1.16797,2.21875
			c0.22803,0.86133,0.34229,1.82959,0.34229,2.90479c0,1.18408-0.04004,2.37402-0.12061,3.5708s-0.12793,2.37402-0.14111,3.52979
			c-0.01367,1.15723,0.02051,2.27979,0.10059,3.36914c0.08057,1.08936,0.28223,2.11816,0.60449,3.08643h-4.26904l-0.84619-2.78418
			h-0.20117c-0.5376,0.83398-1.28271,1.55371-2.23535,2.15869c-0.95313,0.60498-2.18164,0.90771-3.68506,0.90771
			c-0.93994,0-1.78613-0.14111-2.53711-0.42383c-0.75244-0.28223-1.39648-0.68555-1.93359-1.20996s-0.95313-1.14307-1.24854-1.85596
			c-0.29541-0.7124-0.44287-1.51318-0.44287-2.40039c0-1.23682,0.2749-2.27979,0.82568-3.12695
			c0.5498-0.84717,1.34229-1.5332,2.37598-2.05762s2.26904-0.8877,3.70557-1.08936c1.43604-0.20166,3.04053-0.26221,4.81299-0.18164
			c0.1875-1.50586,0.08057-2.58789-0.32227-3.24756c-0.40283-0.65869-1.30273-0.98828-2.69873-0.98828
			c-1.04688,0-2.1543,0.10791-3.32227,0.32275c-1.16797,0.21533-2.12842,0.49805-2.87988,0.84717L61.31988,43.75423z
			 M67.96539,58.76254c1.04688,0,1.87891-0.23535,2.49707-0.70605c0.61719-0.47021,1.07324-0.97461,1.36914-1.5127v-2.62256
			c-0.83252-0.08057-1.63086-0.09375-2.39648-0.04053c-0.76514,0.0542-1.44336,0.17529-2.03369,0.36328
			c-0.59082,0.18848-1.06104,0.45752-1.40967,0.80664c-0.34912,0.3501-0.52344,0.79395-0.52344,1.33154
			c0,0.75342,0.22119,1.33838,0.66455,1.75488C66.57574,58.55453,67.18609,58.76254,67.96539,58.76254z"/>
		<path style="fill:#333333;" d="M88.74664,53.92123l0.7251,3.14697h0.2417l0.52344-3.1875l3.06104-11.29639h5.39697
			l-6.12207,18.19531c-0.51025,1.50684-1.00049,2.88477-1.46973,4.13525c-0.47021,1.25098-0.98682,2.3335-1.55078,3.24805
			c-0.56396,0.91406-1.18799,1.62012-1.87256,2.11816c-0.68506,0.49707-1.49707,0.74609-2.43701,0.74609
			c-1.396,0-2.51074-0.22852-3.34277-0.68555l0.9668-4.1958c0.40283,0.16113,0.80566,0.2417,1.20801,0.2417
			c0.61768,0,1.21484-0.26221,1.79248-0.78662c0.57715-0.52441,1.01318-1.47266,1.30908-2.84424l-8.41748-20.17236h6.28271
			L88.74664,53.92123z"/>
		<path style="fill:#333333;" d="M100.78863,34.51546h16.71387v4.92188h-11.19629v6.97998h10.31055v4.92188h-10.31055v11.41748
			h-5.51758V34.51546z"/>
		<path style="fill:#333333;" d="M120.1607,52.67074c0-3.41553,0.83203-6.04492,2.49707-7.8877
			c1.66455-1.8418,4.00049-2.76367,7.0078-2.76367c1.61084,0,3.00684,0.25586,4.18848,0.7666
			c1.18115,0.51123,2.16113,1.23047,2.93994,2.15869c0.77881,0.92773,1.36279,2.05127,1.75195,3.36865
			c0.38916,1.31787,0.58398,2.77051,0.58398,4.35742c0,3.41602-0.82568,6.04541-2.47656,7.88721
			c-1.65137,1.84277-3.98096,2.76367-6.98779,2.76367c-1.61084,0-3.00732-0.25586-4.18847-0.7666
			c-1.18213-0.51074-2.16895-1.23047-2.96045-2.15869c-0.79199-0.92773-1.3833-2.05029-1.77197-3.36865
			C120.35503,55.71029,120.1607,54.25765,120.1607,52.67074z M125.55767,52.67074c0,0.88721,0.08057,1.70801,0.2417,2.46094
			c0.16064,0.75293,0.40234,1.41211,0.72461,1.97656c0.32227,0.56494,0.74512,1.00244,1.26855,1.31152
			c0.52392,0.30957,1.14794,0.46387,1.87304,0.46387c1.36914,0,2.38916-0.49756,3.06104-1.49268
			c0.67041-0.99463,1.00684-2.56836,1.00684-4.72021c0-1.85596-0.30908-3.35498-0.92627-4.49854
			c-0.61816-1.14307-1.66553-1.71484-3.1416-1.71484c-1.28906,0-2.29589,0.48438-3.0205,1.45264
			C125.91998,48.87826,125.55767,50.46566,125.55767,52.67074z"/>
		<path style="fill:#333333;" d="M153.87016,47.50619c-0.83252-0.29541-1.58447-0.44336-2.25537-0.44336
			c-0.94043,0-1.72559,0.24854-2.35596,0.74609c-0.63135,0.49805-1.0542,1.13672-1.26904,1.9165v13.03125h-5.23535V42.58431h4.06738
			l0.60449,2.6626h0.16064c0.45654-0.99463,1.07373-1.76123,1.85303-2.29932c0.77832-0.53809,1.69141-0.80713,2.73877-0.80713
			c0.69775,0,1.48975,0.14844,2.37598,0.44385L153.87016,47.50619z"/>
		<path style="fill:#333333;" d="M175.981,41.09164c0,0.69971-0.08643,1.39893-0.26025,2.09766
			c-0.17383,0.69971-0.46094,1.33838-0.86084,1.9165c-0.40039,0.57861-0.9209,1.08936-1.56152,1.5332
			s-1.41455,0.77344-2.32178,0.98828v0.24219c0.80078,0.13477,1.5625,0.36328,2.28369,0.68604s1.34912,0.7666,1.8833,1.33105
			c0.53418,0.56494,0.95508,1.25098,1.26221,2.05762c0.30713,0.80713,0.46143,1.76221,0.46143,2.86475
			c0,1.45215-0.30908,2.70996-0.92627,3.77197c-0.61816,1.06299-1.44385,1.93018-2.47705,2.60254
			c-1.03369,0.67236-2.2085,1.16992-3.52393,1.49268c-1.31592,0.32275-2.67188,0.48389-4.06787,0.48389
			c-0.45654,0-1.04053,0-1.75195,0s-1.47705-0.02002-2.29541-0.06055c-0.81934-0.04004-1.65137-0.10059-2.49707-0.18115
			c-0.8457-0.08105-1.61816-0.20215-2.31592-0.36328V34.71712c0.50977-0.08057,1.09375-0.16113,1.75195-0.24219
			c0.65771-0.08057,1.3623-0.14746,2.11426-0.20166c0.75146-0.05371,1.52393-0.09375,2.31592-0.12109
			c0.7915-0.02637,1.57715-0.04004,2.35596-0.04004c1.31543,0,2.59814,0.10059,3.84619,0.30225
			c1.24854,0.20166,2.36279,0.55859,3.34326,1.06934c0.97949,0.51123,1.76514,1.22412,2.35596,2.13818
			C175.68559,38.53646,175.981,39.6932,175.981,41.09164z M164.18071,46.37679c0.37549,0,0.81152-0.01318,1.30908-0.03955
			c0.49609-0.02686,0.90576-0.06689,1.22803-0.12012c1.02002-0.31885,1.89941-0.79785,2.63818-1.43701
			c0.73828-0.63867,1.10742-1.47705,1.10742-2.51514c0-0.69238-0.13477-1.26416-0.40283-1.7168
			c-0.26855-0.45264-0.62402-0.81201-1.06689-1.07813c-0.44336-0.26563-0.94678-0.45166-1.51025-0.55811
			c-0.56396-0.10693-1.15479-0.16016-1.77246-0.16016c-0.69824,0-1.34277,0.01367-1.93311,0.04004
			c-0.59082,0.02637-1.04688,0.06641-1.36914,0.11914v7.46582H164.18071z M165.92778,58.52035
			c0.65869,0,1.29785-0.0791,1.91748-0.23926c0.61914-0.15967,1.1665-0.40625,1.64111-0.73877
			c0.47461-0.33301,0.85645-0.75244,1.14648-1.2583c0.28955-0.50586,0.43506-1.10498,0.43506-1.79736
			c0-0.87891-0.17188-1.5708-0.51416-2.07666c-0.34326-0.50537-0.79102-0.89795-1.34521-1.17822
			c-0.55371-0.27979-1.17285-0.45947-1.85791-0.53955c-0.68555-0.0791-1.37061-0.11963-2.05566-0.11963h-2.88623v7.7085
			c0.13135,0.05322,0.34229,0.09326,0.63232,0.11963c0.28955,0.02637,0.59912,0.04688,0.92871,0.06006
			c0.33008,0.01367,0.67236,0.02686,1.02832,0.04004C165.35454,58.514,165.66411,58.52035,165.92778,58.52035z"/>
		<path style="fill:#333333;" d="M196.80278,61.02181c-0.80566,0.64551-1.8999,1.19043-3.28271,1.63379
			c-1.38281,0.44385-2.85303,0.66602-4.41016,0.66602c-3.24902,0-5.625-0.94824-7.12842-2.84424
			c-1.50391-1.89648-2.25537-4.49854-2.25537-7.80664c0-3.55078,0.8457-6.21338,2.53711-7.98828
			c1.69189-1.77539,4.06787-2.66309,7.12891-2.66309c1.02002,0,2.01367,0.13525,2.98047,0.40381
			c0.96631,0.26904,1.8252,0.71289,2.57715,1.33105c0.75146,0.61914,1.35596,1.45264,1.8125,2.50146s0.68457,2.354,0.68457,3.91357
			c0,0.56445-0.03369,1.16992-0.10059,1.81543c-0.06641,0.64551-0.16748,1.31787-0.30078,2.01709H185.002
			c0.08008,1.69434,0.51465,2.97217,1.30469,3.83301c0.78906,0.86084,2.06738,1.29102,3.83301,1.29102
			c1.09668,0,2.08057-0.16797,2.9502-0.50439c0.86963-0.33594,1.53174-0.6792,1.98682-1.02881L196.80278,61.02181z
			 M189.32915,46.21517c-1.3623,0-2.37061,0.41064-3.0249,1.23047c-0.65479,0.8208-1.04785,1.9165-1.18115,3.28809h7.45068
			c0.10693-1.45215-0.11328-2.56787-0.66064-3.34814C191.36577,46.6058,190.50395,46.21517,189.32915,46.21517z"/>
		<path style="fill:#333333;" d="M206.54887,55.97884c0,0.94189,0.12109,1.62744,0.36279,2.05762
			c0.24121,0.43066,0.63037,0.64551,1.16797,0.64551c0.32178,0,0.63721-0.02637,0.94629-0.08057
			c0.30811-0.05371,0.69092-0.1748,1.14795-0.36328l0.56348,4.11523c-0.42969,0.21533-1.0874,0.42969-1.97314,0.64551
			c-0.88623,0.21484-1.79932,0.32275-2.73877,0.32275c-1.53027,0-2.69824-0.35693-3.50391-1.06934s-1.2085-1.88916-1.2085-3.53027
			V34.51546h5.23584V55.97884z"/>
		<path style="fill:#333333;" d="M212.87163,43.75423c1.07373-0.48389,2.34912-0.86719,3.82617-1.1499
			c1.47607-0.28223,3.02051-0.42334,4.63135-0.42334c1.396,0,2.56396,0.16846,3.50439,0.50439
			c0.93945,0.33643,1.68457,0.81348,2.23486,1.43213c0.55029,0.61914,0.93945,1.3584,1.16797,2.21875
			c0.22803,0.86133,0.34229,1.82959,0.34229,2.90479c0,1.18408-0.04004,2.37402-0.12061,3.5708s-0.12793,2.37402-0.14111,3.52979
			c-0.01367,1.15723,0.02051,2.27979,0.10059,3.36914c0.08057,1.08936,0.28223,2.11816,0.60449,3.08643h-4.26904l-0.84619-2.78418
			h-0.20117c-0.5376,0.83398-1.28271,1.55371-2.23535,2.15869c-0.95313,0.60498-2.18164,0.90771-3.68506,0.90771
			c-0.93994,0-1.78613-0.14111-2.53711-0.42383c-0.75244-0.28223-1.39648-0.68555-1.93359-1.20996s-0.95313-1.14307-1.24854-1.85596
			c-0.29541-0.7124-0.44287-1.51318-0.44287-2.40039c0-1.23682,0.2749-2.27979,0.82568-3.12695
			c0.5498-0.84717,1.34229-1.5332,2.37598-2.05762s2.26904-0.8877,3.70557-1.08936c1.43604-0.20166,3.04053-0.26221,4.81299-0.18164
			c0.1875-1.50586,0.08057-2.58789-0.32227-3.24756c-0.40283-0.65869-1.30273-0.98828-2.69873-0.98828
			c-1.04688,0-2.1543,0.10791-3.32227,0.32275c-1.16797,0.21533-2.12842,0.49805-2.87988,0.84717L212.87163,43.75423z
			 M219.51714,58.76254c1.04688,0,1.87891-0.23535,2.49707-0.70605c0.61719-0.47021,1.07324-0.97461,1.36914-1.5127v-2.62256
			c-0.83252-0.08057-1.63086-0.09375-2.39648-0.04053c-0.76514,0.0542-1.44336,0.17529-2.03369,0.36328
			c-0.59082,0.18848-1.06104,0.45752-1.40967,0.80664c-0.34912,0.3501-0.52344,0.79395-0.52344,1.33154
			c0,0.75342,0.22119,1.33838,0.66455,1.75488C218.12749,58.55453,218.73784,58.76254,219.51714,58.76254z"/>
		<path style="fill:#333333;" d="M244.08452,47.50619c-0.83252-0.29541-1.58447-0.44336-2.25537-0.44336
			c-0.94043,0-1.72559,0.24854-2.35596,0.74609c-0.63135,0.49805-1.0542,1.13672-1.26904,1.9165v13.03125h-5.23535V42.58431h4.06738
			l0.60449,2.6626h0.16064c0.45654-0.99463,1.07373-1.76123,1.85303-2.29932c0.77832-0.53809,1.69141-0.80713,2.73877-0.80713
			c0.69775,0,1.48975,0.14844,2.37598,0.44385L244.08452,47.50619z"/>
		<path style="fill:#333333;" d="M252.13921,42.58431v11.45801c0,1.64063,0.19434,2.82422,0.58398,3.55029
			c0.38867,0.72607,1.14795,1.08936,2.27539,1.08936c0.99316,0,1.81886-0.2959,2.47707-0.8877
			c0.65771-0.59131,1.14795-1.31738,1.47021-2.17871V42.58431h5.23535v14.04004c0,1.10303,0.05371,2.18555,0.16113,3.24756
			c0.10693,1.06299,0.26807,2.02441,0.4834,2.88477h-3.94678l-0.92627-2.98535h-0.16113
			c-0.61816,1.02246-1.47705,1.86963-2.57764,2.5415c-1.10156,0.67188-2.40334,1.00879-3.90675,1.00879
			c-1.021,0-1.93311-0.13525-2.73877-0.40332c-0.80566-0.26855-1.47705-0.7124-2.01367-1.33154
			c-0.5376-0.61865-0.94629-1.45264-1.22852-2.50146c-0.28174-1.04883-0.42285-2.36621-0.42285-3.95361V42.58431H252.13921z"/>
		<path style="fill:#333333;" d="M277.10895,57.18929c0-0.53809-0.22803-0.96826-0.68457-1.29102s-1.02051-0.61865-1.69141-0.8877
			c-0.67139-0.26855-1.40967-0.54492-2.21533-0.82715c-0.80518-0.28223-1.54395-0.67188-2.21484-1.16992
			c-0.67139-0.49756-1.23535-1.12988-1.69141-1.89648c-0.45703-0.76611-0.68506-1.75488-0.68506-2.96533
			c0-1.98975,0.59033-3.50977,1.77246-4.55859c1.18115-1.04932,2.88574-1.57373,5.11475-1.57373
			c1.53027,0,2.91309,0.16162,4.14844,0.48438c1.23438,0.32275,2.20117,0.68555,2.89941,1.08936l-1.16797,3.79248
			c-0.61768-0.24219-1.396-0.49756-2.33594-0.7666c-0.93994-0.26855-1.89258-0.40381-2.85938-0.40381
			c-1.55762,0-2.33594,0.60547-2.33594,1.81592c0,0.48389,0.22803,0.87402,0.68457,1.16992s1.02051,0.57178,1.69189,0.82715
			c0.6709,0.25586,1.40967,0.53125,2.21484,0.82666c0.80566,0.29639,1.54395,0.67969,2.21533,1.1499
			c0.6709,0.47119,1.23438,1.08301,1.69141,1.83594c0.45605,0.75293,0.68457,1.72119,0.68457,2.90479
			c0,2.04443-0.65137,3.65088-1.95313,4.82129c-1.30273,1.16992-3.25586,1.75488-5.85986,1.75488
			c-1.42383,0-2.75879-0.18164-4.00732-0.54492c-1.24854-0.36279-2.2627-0.78662-3.04102-1.27051l1.44971-3.91357
			c0.61768,0.34961,1.43604,0.69287,2.45703,1.02881c1.02002,0.33643,2.06738,0.50439,3.1416,0.50439
			c0.77832,0,1.40234-0.14746,1.87256-0.44385C276.8736,58.38607,277.10895,57.889,277.10895,57.18929z"/>
	</g>
</g>
<g id="EN">
	<g>
		<path d="M4.35357,7.38265h17.01514v5.00195H9.97076v6.68311H20.3438v5.00195H9.97076v7.01123h11.60303v5.00195H4.35357V7.38265z"
			/>
		<path d="M32.88921,21.118l-2.25537-4.51025h-0.20508l0.65625,4.51025v14.96484h-5.33008V7.17806h4.1001l10.86475,15.29297
			l2.17334,4.38672h0.20508l-0.65625-4.38672V7.38265h5.33008v28.90527h-4.1001L32.88921,21.118z"/>
	</g>
	<g>
		<path d="M27.06548,42.78402l1.146,1.6709h0.04102l1.02295-1.70605l4.58252-5.11816h3.51904l-8.71533,8.9873h-1.3916
			l-8.87939-8.9873h3.76465L27.06548,42.78402z"/>
	</g>
	<g style="display:none;">
		<path style="display:inline;" d="M63.36285,7.38265h17.01514v5.00195H68.98003v6.68311h10.37305v5.00195H68.98003v7.01123
			h11.60303v5.00195H63.36285V7.38265z"/>
		<path style="display:inline;" d="M91.89849,21.118l-2.25537-4.51025h-0.20508l0.65625,4.51025v14.96484h-5.33008V7.17806h4.1001
			l10.86475,15.29297l2.17334,4.38672h0.20508l-0.65625-4.38672V7.38265h5.33008v28.90527h-4.1001L91.89849,21.118z"/>
	</g>
	<g style="display:none;">
		<path style="display:inline;" d="M77.03179,38.99349h18.16797v2.66162H77.03179V38.99349z"/>
	</g>
	<g>
	</g>
	<g>
	</g>
	<g>
	</g>
	<g>
	</g>
	<g>
	</g>
</g>
</svg>
