<?xml version="1.0" encoding="utf-8"?>
<!-- Generator: Adobe Illustrator 23.0.1, SVG Export Plug-In . SVG Version: 6.00 Build 0)  -->
<svg version="1.1" id="Layer_1" xmlns="http://www.w3.org/2000/svg" xmlns:xlink="http://www.w3.org/1999/xlink" x="0px" y="0px"
	 viewBox="0 0 283.87219 97.61432" style="enable-background:new 0 0 283.87219 97.61432;" xml:space="preserve">
<g>
	<g>
		<path style="fill:#868689;" d="M7.89312,1.51107h5.6167v20.99219c0,1.09375-0.12256,2.13184-0.36865,3.11621
			c-0.24609,0.98389-0.6499,1.85205-1.20947,2.60352c-0.56055,0.75195-1.27832,1.35254-2.15283,1.80371
			c-0.875,0.45117-1.94092,0.67676-3.19775,0.67676c-0.79297,0-1.6543-0.08203-2.58301-0.24609
			c-0.92969-0.16406-1.73535-0.396-2.41895-0.69727l1.22998-4.5918c0.71045,0.35547,1.51709,0.5332,2.41895,0.5332
			c1.14795,0,1.87891-0.42383,2.19336-1.271c0.31396-0.84717,0.47168-1.96826,0.47168-3.3623V1.51107z"/>
		<path style="fill:#868689;" d="M18.42974,10.90023c1.09326-0.49219,2.3916-0.88135,3.89502-1.16846
			c1.50293-0.28711,3.0752-0.43066,4.71533-0.43066c1.4209,0,2.60986,0.17139,3.56689,0.5127
			c0.95654,0.34229,1.71484,0.82715,2.27539,1.45557c0.56006,0.62891,0.95654,1.38037,1.18896,2.25488
			c0.23193,0.875,0.34863,1.85889,0.34863,2.95215c0,1.20313-0.04102,2.4126-0.12305,3.62842
			c-0.08203,1.21631-0.12988,2.4126-0.14355,3.5874c-0.01416,1.17578,0.02051,2.31641,0.10254,3.42334
			c0.08203,1.10742,0.28711,2.15283,0.61475,3.13672h-4.3457l-0.86084-2.8291h-0.20508
			c-0.54736,0.84766-1.30566,1.57861-2.27588,2.19336c-0.97021,0.61523-2.2207,0.92285-3.75146,0.92285
			c-0.95703,0-1.81787-0.14355-2.58301-0.43066s-1.42139-0.69678-1.96777-1.22998c-0.54736-0.5332-0.9707-1.16162-1.271-1.88574
			c-0.30127-0.72412-0.45117-1.5376-0.45117-2.43994c0-1.25684,0.28027-2.31641,0.84082-3.17725
			c0.55957-0.86084,1.36621-1.55811,2.41895-2.09082c1.05176-0.5332,2.30908-0.90234,3.77197-1.10742
			c1.46191-0.20459,3.09521-0.26611,4.89941-0.18408c0.19092-1.53076,0.08203-2.63086-0.32813-3.30078
			c-0.40967-0.66943-1.32617-1.00439-2.74707-1.00439c-1.06592,0-2.19336,0.10938-3.38232,0.32813s-2.1665,0.50586-2.93164,0.86084
			L18.42974,10.90023z M25.19488,26.15218c1.06592,0,1.91309-0.23877,2.54199-0.71729
			c0.62842-0.47803,1.09277-0.99072,1.39404-1.5376v-2.66504c-0.84766-0.08203-1.66064-0.09521-2.43945-0.04102
			c-0.7793,0.05518-1.46973,0.17822-2.0708,0.36914c-0.60156,0.19141-1.08008,0.46484-1.43457,0.81982
			c-0.35596,0.35547-0.5332,0.80664-0.5332,1.35303c0,0.76563,0.22559,1.35986,0.67627,1.78369
			C23.78033,25.94076,24.40191,26.15218,25.19488,26.15218z"/>
		<path style="fill:#868689;" d="M44.01324,9.71126v11.64404c0,1.66748,0.19824,2.87012,0.59473,3.60791
			c0.396,0.73828,1.16846,1.10693,2.31641,1.10693c1.01074,0,1.85156-0.30029,2.52148-0.90186
			c0.66943-0.60107,1.16846-1.33887,1.49658-2.21387V9.71126h5.33008v14.26807c0,1.12109,0.0542,2.22119,0.16357,3.30029
			c0.10938,1.08008,0.27295,2.05713,0.49219,2.93164h-4.01807l-0.94287-3.03418h-0.16406
			c-0.62891,1.03906-1.50342,1.90039-2.62402,2.58301c-1.12109,0.68311-2.44629,1.02539-3.97705,1.02539
			c-1.03906,0-1.96777-0.13721-2.78809-0.41016c-0.81982-0.27295-1.50342-0.72412-2.0498-1.35303
			c-0.54688-0.62842-0.96338-1.47607-1.25049-2.54199s-0.43066-2.40479-0.43066-4.01807V9.71126H44.01324z M43.07037,0.69125
			c0.46436,0.81982,1.11328,1.42871,1.94727,1.82471c0.8335,0.39648,1.71533,0.59424,2.64453,0.59424
			s1.78369-0.20508,2.5625-0.61475c0.7793-0.41016,1.37354-1.01123,1.78369-1.8042l2.45996,1.10693
			c-0.08203,0.65625-0.30762,1.30566-0.67627,1.94775c-0.36914,0.64258-0.85498,1.20947-1.45557,1.70117
			c-0.60156,0.49219-1.30566,0.88867-2.11182,1.18896c-0.80615,0.30127-1.67432,0.45117-2.60352,0.45117
			c-1.80371,0-3.34814-0.45752-4.63281-1.37354c-1.28516-0.91553-2.11865-2.15234-2.50098-3.71045L43.07037,0.69125z"/>
		<path style="fill:#868689;" d="M73.49224,30.21127V18.56722c0-1.66699-0.23242-2.87012-0.69678-3.60791
			c-0.46533-0.73828-1.31201-1.10693-2.54199-1.10693c-0.90186,0-1.729,0.30762-2.48047,0.92236
			c-0.75195,0.61523-1.25049,1.40088-1.49658,2.35742v13.0791h-5.33008V1.51107h5.33008v10.49609h0.16406
			c0.65576-0.87451,1.46191-1.57129,2.41895-2.09082c0.95654-0.51904,2.17285-0.7793,3.64893-0.7793
			c1.03857,0,1.9541,0.13721,2.74707,0.41016c0.79248,0.27344,1.45557,0.72461,1.98828,1.35303
			c0.5332,0.62891,0.9292,1.48291,1.18945,2.5625c0.25928,1.08008,0.38916,2.4126,0.38916,3.99756v12.75098H73.49224z"/>
		<path style="fill:#868689;" d="M82.96294,3.9305c0-0.79248,0.29346-1.46924,0.88184-2.02979
			c0.5874-0.56006,1.40039-0.84033,2.43945-0.84033c1.03857,0,1.87891,0.28027,2.52148,0.84033
			c0.6416,0.56055,0.96338,1.2373,0.96338,2.02979c0,0.79297-0.32178,1.45508-0.96338,1.98828
			c-0.64258,0.5332-1.48291,0.79932-2.52148,0.79932c-1.03906,0-1.85205-0.26611-2.43945-0.79932
			C83.2564,5.38558,82.96294,4.72347,82.96294,3.9305z M83.74224,9.71126h5.33008v20.5h-5.33008V9.71126z"/>
		<path style="fill:#868689;" d="M110.71978,28.44808c-0.81982,0.65625-1.93408,1.20947-3.34131,1.66064
			c-1.4082,0.45117-2.90479,0.67676-4.48975,0.67676c-3.30713,0-5.72607-0.96387-7.25684-2.89063
			c-1.53125-1.92725-2.2959-4.57178-2.2959-7.93359c0-3.60791,0.86084-6.31397,2.58301-8.11817
			c1.72217-1.80371,4.14111-2.70605,7.25684-2.70605c1.03857,0,2.05029,0.13721,3.03418,0.41016
			c0.98389,0.27344,1.8584,0.72461,2.62402,1.35303c0.76465,0.62891,1.37988,1.47607,1.84473,2.54199
			s0.69727,2.39209,0.69727,3.97705c0,0.57422-0.03467,1.18896-0.10254,1.84521c-0.06787,0.65576-0.17041,1.33936-0.30615,2.0498
			H98.70708c0.08105,1.72217,0.52393,3.02051,1.32813,3.89502c0.80322,0.875,2.104,1.31201,3.90186,1.31201
			c1.1167,0,2.11768-0.17041,3.00342-0.5127c0.88525-0.34131,1.55908-0.68994,2.02246-1.04541L110.71978,28.44808z
			 M103.11187,13.40121c-1.38672,0-2.41309,0.41699-3.07959,1.25049c-0.66602,0.83398-1.06641,1.94775-1.20215,3.3418h7.58496
			c0.10889-1.47607-0.11523-2.61035-0.67285-3.40332C105.18511,13.79769,104.30816,13.40121,103.11187,13.40121z"/>
		<path style="fill:#868689;" d="M127.6939,30.21127V18.56722c0-1.66699-0.23926-2.87012-0.71729-3.60791
			c-0.47852-0.73828-1.2915-1.10693-2.43945-1.10693c-1.01172,0-1.86572,0.29395-2.5625,0.88135
			c-0.69727,0.58789-1.19629,1.31885-1.49658,2.19336v13.28418H115.148v-20.5h4.22314l0.61475,2.70605h0.16406
			c0.62842-0.87451,1.46191-1.64014,2.50098-2.2959c1.03857-0.65625,2.37793-0.98438,4.01807-0.98438
			c1.01123,0,1.91308,0.13721,2.70605,0.41016c0.79248,0.27344,1.46191,0.72461,2.00928,1.35303
			c0.54639,0.62891,0.95605,1.48291,1.22998,2.5625c0.27246,1.08008,0.40967,2.4126,0.40967,3.99756v12.75098H127.6939z"/>
		<path style="fill:#868689;" d="M166.15141,30.21127h-18.16309V1.51107h5.61719v23.69824h12.5459V30.21127z"/>
		<path style="fill:#868689;" d="M183.90434,28.44808c-0.81982,0.65625-1.93408,1.20947-3.34131,1.66064
			c-1.4082,0.45117-2.90479,0.67676-4.48975,0.67676c-3.30713,0-5.72607-0.96387-7.25684-2.89063
			c-1.53125-1.92725-2.2959-4.57178-2.2959-7.93359c0-3.60791,0.86084-6.31397,2.58301-8.11817
			c1.72217-1.80371,4.14111-2.70605,7.25684-2.70605c1.03857,0,2.05029,0.13721,3.03418,0.41016
			c0.98389,0.27344,1.8584,0.72461,2.62402,1.35303c0.76465,0.62891,1.37988,1.47607,1.84473,2.54199
			s0.69727,2.39209,0.69727,3.97705c0,0.57422-0.03467,1.18896-0.10254,1.84521c-0.06787,0.65576-0.17041,1.33936-0.30615,2.0498
			h-12.26025c0.08105,1.72217,0.52393,3.02051,1.32813,3.89502c0.80322,0.875,2.104,1.31201,3.90186,1.31201
			c1.1167,0,2.11768-0.17041,3.00342-0.5127c0.88525-0.34131,1.55908-0.68994,2.02246-1.04541L183.90434,28.44808z
			 M176.29643,13.40121c-1.38672,0-2.41309,0.41699-3.07959,1.25049c-0.66602,0.83398-1.06641,1.94775-1.20215,3.3418h7.58496
			c0.10889-1.47607-0.11523-2.61035-0.67285-3.40332C178.36967,13.79769,177.49272,13.40121,176.29643,13.40121z"/>
		<path style="fill:#868689;" d="M188.20903,10.90023c1.09326-0.49219,2.3916-0.88135,3.89502-1.16846
			c1.50293-0.28711,3.0752-0.43066,4.71533-0.43066c1.4209,0,2.60986,0.17139,3.56689,0.5127
			c0.95654,0.34229,1.71484,0.82715,2.27539,1.45557c0.56006,0.62891,0.95654,1.38037,1.18896,2.25488
			c0.23193,0.875,0.34863,1.85889,0.34863,2.95215c0,1.20313-0.04102,2.4126-0.12305,3.62842
			c-0.08203,1.21631-0.12988,2.4126-0.14355,3.5874c-0.01416,1.17578,0.02051,2.31641,0.10254,3.42334
			c0.08203,1.10742,0.28711,2.15283,0.61475,3.13672h-4.3457l-0.86084-2.8291h-0.20508
			c-0.54736,0.84766-1.30566,1.57861-2.27588,2.19336c-0.97021,0.61523-2.2207,0.92285-3.75146,0.92285
			c-0.95703,0-1.81787-0.14355-2.58301-0.43066s-1.42139-0.69678-1.96777-1.22998c-0.54736-0.5332-0.9707-1.16162-1.271-1.88574
			c-0.30127-0.72412-0.45117-1.5376-0.45117-2.43994c0-1.25684,0.28027-2.31641,0.84082-3.17725
			c0.55957-0.86084,1.36621-1.55811,2.41895-2.09082c1.05176-0.5332,2.30908-0.90234,3.77197-1.10742
			c1.46191-0.20459,3.09521-0.26611,4.89941-0.18408c0.19092-1.53076,0.08203-2.63086-0.32813-3.30078
			c-0.40967-0.66943-1.32617-1.00439-2.74707-1.00439c-1.06592,0-2.19336,0.10938-3.38232,0.32813s-2.1665,0.50586-2.93164,0.86084
			L188.20903,10.90023z M194.97417,26.15218c1.06592,0,1.91309-0.23877,2.54199-0.71729
			c0.62842-0.47803,1.09277-0.99072,1.39404-1.5376v-2.66504c-0.84766-0.08203-1.66064-0.09521-2.43945-0.04102
			c-0.7793,0.05518-1.46973,0.17822-2.0708,0.36914c-0.60156,0.19141-1.08008,0.46484-1.43457,0.81982
			c-0.35596,0.35547-0.5332,0.80664-0.5332,1.35303c0,0.76563,0.22559,1.35986,0.67627,1.78369
			C193.55962,25.94076,194.1812,26.15218,194.97417,26.15218z"/>
		<path style="fill:#868689;" d="M221.21342,30.21127V18.56722c0-1.66699-0.23926-2.87012-0.71729-3.60791
			c-0.47852-0.73828-1.2915-1.10693-2.43945-1.10693c-1.01172,0-1.86572,0.29395-2.5625,0.88135
			c-0.69727,0.58789-1.19629,1.31885-1.49658,2.19336v13.28418h-5.33008v-20.5h4.22314l0.61475,2.70605h0.16406
			c0.62842-0.87451,1.46191-1.64014,2.50098-2.2959c1.03857-0.65625,2.37793-0.98438,4.01807-0.98438
			c1.01123,0,1.91309,0.13721,2.70605,0.41016c0.79248,0.27344,1.46191,0.72461,2.00928,1.35303
			c0.54639,0.62891,0.95605,1.48291,1.22998,2.5625c0.27246,1.08008,0.40967,2.4126,0.40967,3.99756v12.75098H221.21342z"/>
		<path style="fill:#868689;" d="M230.68462,3.9305c0-0.79248,0.29346-1.46924,0.88184-2.02979
			c0.5874-0.56006,1.40039-0.84033,2.43945-0.84033c1.03857,0,1.87891,0.28027,2.52148,0.84033
			c0.6416,0.56055,0.96338,1.2373,0.96338,2.02979c0,0.79297-0.32178,1.45508-0.96338,1.98828
			c-0.64258,0.5332-1.48291,0.79932-2.52148,0.79932c-1.03906,0-1.85205-0.26611-2.43945-0.79932
			C230.97807,5.38558,230.68462,4.72347,230.68462,3.9305z M231.46391,9.71126h5.33008v20.5h-5.33008V9.71126z"/>
		<path style="fill:#868689;" d="M247.16655,9.71126v11.64404c0,1.66748,0.19824,2.87012,0.59473,3.60791
			c0.396,0.73828,1.16846,1.10693,2.31641,1.10693c1.01074,0,1.85156-0.30029,2.52148-0.90186
			c0.66943-0.60107,1.16846-1.33887,1.49658-2.21387V9.71126h5.33009v14.26807c0,1.12109,0.0542,2.22119,0.16357,3.30029
			c0.10938,1.08008,0.27295,2.05713,0.49219,2.93164h-4.01807l-0.94289-3.03418h-0.16406
			c-0.62891,1.03906-1.50342,1.90039-2.62402,2.58301c-1.12109,0.68311-2.44629,1.02539-3.97705,1.02539
			c-1.03906,0-1.96777-0.13721-2.78809-0.41016c-0.81982-0.27295-1.50342-0.72412-2.0498-1.35303
			c-0.54688-0.62842-0.96338-1.47607-1.25049-2.54199s-0.43066-2.40479-0.43066-4.01807V9.71126H247.16655z"/>
		<path style="fill:#868689;" d="M270.86432,21.72445h-1.43506v8.48682h-5.33008V1.51107h5.33008v16.93311l1.22998-0.57373
			l4.67383-8.15918h5.86328l-4.91992,7.79004l-2.09131,1.55811l2.25537,1.59863l5.53467,9.55322h-6.10889L270.86432,21.72445z"/>
	</g>
</g>
<g>
	<path style="fill:#868689;" d="M7.89312,65.71517h5.6167v20.99219c0,1.09375-0.12256,2.13184-0.36865,3.11621
		c-0.24609,0.98389-0.6499,1.85205-1.20947,2.60352c-0.56055,0.75195-1.27832,1.35254-2.15283,1.80371
		c-0.875,0.45117-1.94092,0.67676-3.19775,0.67676c-0.79297,0-1.6543-0.08203-2.58301-0.24609
		c-0.92969-0.16406-1.73535-0.396-2.41895-0.69727l1.22998-4.5918c0.71045,0.35547,1.51709,0.5332,2.41895,0.5332
		c1.14795,0,1.87891-0.42383,2.19336-1.271c0.31396-0.84717,0.47168-1.96826,0.47168-3.3623V65.71517z"/>
	<path style="fill:#868689;" d="M18.42974,75.10433c1.09326-0.49219,2.3916-0.88135,3.89502-1.16846
		c1.50293-0.28711,3.0752-0.43066,4.71533-0.43066c1.4209,0,2.60986,0.17139,3.56689,0.5127
		c0.95654,0.34229,1.71484,0.82715,2.27539,1.45557c0.56006,0.62891,0.95654,1.38037,1.18896,2.25488
		c0.23193,0.875,0.34863,1.85889,0.34863,2.95215c0,1.20313-0.04102,2.4126-0.12305,3.62842
		c-0.08203,1.21631-0.12988,2.4126-0.14355,3.5874c-0.01416,1.17578,0.02051,2.31641,0.10254,3.42334
		c0.08203,1.10742,0.28711,2.15283,0.61475,3.13672h-4.3457l-0.86084-2.8291h-0.20508
		c-0.54736,0.84766-1.30566,1.57861-2.27588,2.19336c-0.97021,0.61523-2.2207,0.92285-3.75146,0.92285
		c-0.95703,0-1.81787-0.14355-2.58301-0.43066s-1.42139-0.69678-1.96777-1.22998c-0.54736-0.5332-0.9707-1.16162-1.271-1.88574
		c-0.30127-0.72412-0.45117-1.5376-0.45117-2.43994c0-1.25684,0.28027-2.31641,0.84082-3.17725
		c0.55957-0.86084,1.36621-1.55811,2.41895-2.09082c1.05176-0.5332,2.30908-0.90234,3.77197-1.10742
		c1.46191-0.20459,3.09521-0.26611,4.89941-0.18408c0.19092-1.53076,0.08203-2.63086-0.32813-3.30078
		c-0.40967-0.66943-1.32617-1.00439-2.74707-1.00439c-1.06592,0-2.19336,0.10938-3.38232,0.32813s-2.1665,0.50586-2.93164,0.86084
		L18.42974,75.10433z M25.19488,90.35629c1.06592,0,1.91309-0.23877,2.54199-0.71729
		c0.62842-0.47803,1.09277-0.99072,1.39404-1.5376v-2.66504c-0.84766-0.08203-1.66064-0.09521-2.43945-0.04102
		c-0.7793,0.05518-1.46973,0.17822-2.0708,0.36914c-0.60156,0.19141-1.08008,0.46484-1.43457,0.81982
		c-0.35596,0.35547-0.5332,0.80664-0.5332,1.35303c0,0.76563,0.22559,1.35986,0.67627,1.78369
		C23.78033,90.14486,24.40191,90.35629,25.19488,90.35629z"/>
	<path style="fill:#868689;" d="M44.01324,73.91537v11.64404c0,1.66748,0.19824,2.87012,0.59473,3.60791
		c0.396,0.73828,1.16846,1.10693,2.31641,1.10693c1.01074,0,1.85156-0.30029,2.52148-0.90186
		c0.66943-0.60107,1.16846-1.33887,1.49658-2.21387V73.91537h5.33008v14.26807c0,1.12109,0.0542,2.22119,0.16357,3.30029
		c0.10938,1.08008,0.27295,2.05713,0.49219,2.93164h-4.01807l-0.94287-3.03418h-0.16406
		c-0.62891,1.03906-1.50342,1.90039-2.62402,2.58301c-1.12109,0.68311-2.44629,1.02539-3.97705,1.02539
		c-1.03906,0-1.96777-0.13721-2.78809-0.41016c-0.81982-0.27295-1.50342-0.72412-2.0498-1.35303
		c-0.54688-0.62842-0.96338-1.47607-1.25049-2.54199s-0.43066-2.40479-0.43066-4.01807V73.91537H44.01324z M43.07037,64.89535
		c0.46436,0.81982,1.11328,1.42871,1.94727,1.82471c0.8335,0.39648,1.71533,0.59424,2.64453,0.59424s1.78369-0.20508,2.5625-0.61475
		c0.7793-0.41016,1.37354-1.01123,1.78369-1.8042l2.45996,1.10693c-0.08203,0.65625-0.30762,1.30566-0.67627,1.94775
		c-0.36914,0.64258-0.85498,1.20947-1.45557,1.70117c-0.60156,0.49219-1.30566,0.88867-2.11182,1.18896
		c-0.80615,0.30127-1.67432,0.45117-2.60352,0.45117c-1.80371,0-3.34814-0.45752-4.63281-1.37354
		c-1.28516-0.91553-2.11865-2.15234-2.50098-3.71045L43.07037,64.89535z"/>
	<path style="fill:#868689;" d="M73.49224,94.41537V82.77132c0-1.66699-0.23242-2.87012-0.69678-3.60791
		c-0.46533-0.73828-1.31201-1.10693-2.54199-1.10693c-0.90186,0-1.729,0.30762-2.48047,0.92236
		c-0.75195,0.61523-1.25049,1.40088-1.49658,2.35742v13.0791h-5.33008v-28.7002h5.33008v10.49609h0.16406
		c0.65576-0.87451,1.46191-1.57129,2.41895-2.09082c0.95654-0.51904,2.17285-0.7793,3.64893-0.7793
		c1.03857,0,1.9541,0.13721,2.74707,0.41016c0.79248,0.27344,1.45557,0.72461,1.98828,1.35303
		c0.5332,0.62891,0.9292,1.48291,1.18945,2.5625c0.25928,1.08008,0.38916,2.4126,0.38916,3.99756v12.75098H73.49224z"/>
	<path style="fill:#868689;" d="M82.96294,68.13461c0-0.79248,0.29346-1.46924,0.88184-2.02979
		c0.5874-0.56006,1.40039-0.84033,2.43945-0.84033c1.03857,0,1.87891,0.28027,2.52148,0.84033
		c0.6416,0.56055,0.96338,1.2373,0.96338,2.02979c0,0.79297-0.32178,1.45508-0.96338,1.98828
		c-0.64258,0.5332-1.48291,0.79932-2.52148,0.79932c-1.03906,0-1.85205-0.26611-2.43945-0.79932
		C83.2564,69.58968,82.96294,68.92757,82.96294,68.13461z M83.74224,73.91537h5.33008v20.5h-5.33008V73.91537z"/>
	<path style="fill:#868689;" d="M110.71978,92.65218c-0.81982,0.65625-1.93408,1.20947-3.34131,1.66064
		c-1.4082,0.45117-2.90479,0.67676-4.48975,0.67676c-3.30713,0-5.72607-0.96387-7.25684-2.89063
		c-1.53125-1.92725-2.2959-4.57178-2.2959-7.93359c0-3.60791,0.86084-6.31396,2.58301-8.11816
		c1.72217-1.80371,4.14111-2.70605,7.25684-2.70605c1.03857,0,2.05029,0.13721,3.03418,0.41016
		c0.98389,0.27344,1.8584,0.72461,2.62402,1.35303c0.76465,0.62891,1.37988,1.47607,1.84473,2.54199
		s0.69727,2.39209,0.69727,3.97705c0,0.57422-0.03467,1.18896-0.10254,1.84521c-0.06787,0.65576-0.17041,1.33936-0.30615,2.0498
		H98.70708c0.08105,1.72217,0.52393,3.02051,1.32813,3.89502c0.80322,0.875,2.104,1.31201,3.90186,1.31201
		c1.1167,0,2.11768-0.17041,3.00342-0.5127c0.88525-0.34131,1.55908-0.68994,2.02246-1.04541L110.71978,92.65218z
		 M103.11187,77.60531c-1.38672,0-2.41309,0.41699-3.07959,1.25049c-0.66602,0.83398-1.06641,1.94775-1.20215,3.3418h7.58496
		c0.10889-1.47607-0.11523-2.61035-0.67285-3.40332C105.18511,78.00179,104.30816,77.60531,103.11187,77.60531z"/>
	<path style="fill:#868689;" d="M127.6939,94.41537V82.77132c0-1.66699-0.23926-2.87012-0.71729-3.60791
		c-0.47852-0.73828-1.2915-1.10693-2.43945-1.10693c-1.01172,0-1.86572,0.29395-2.5625,0.88135
		c-0.69727,0.58789-1.19629,1.31885-1.49658,2.19336v13.28418H115.148v-20.5h4.22314l0.61475,2.70605h0.16406
		c0.62842-0.87451,1.46191-1.64014,2.50098-2.2959c1.03857-0.65625,2.37793-0.98438,4.01807-0.98438
		c1.01123,0,1.91308,0.13721,2.70605,0.41016c0.79248,0.27344,1.46191,0.72461,2.00928,1.35303
		c0.54639,0.62891,0.95605,1.48291,1.22998,2.5625c0.27246,1.08008,0.40967,2.4126,0.40967,3.99756v12.75098H127.6939z"/>
	<path style="fill:#868689;" d="M166.15141,94.41537h-18.16309v-28.7002h5.61719v23.69824h12.5459V94.41537z"/>
	<path style="fill:#868689;" d="M183.90434,92.65218c-0.81982,0.65625-1.93408,1.20947-3.34131,1.66064
		c-1.4082,0.45117-2.90479,0.67676-4.48975,0.67676c-3.30713,0-5.72607-0.96387-7.25684-2.89063
		c-1.53125-1.92725-2.2959-4.57178-2.2959-7.93359c0-3.60791,0.86084-6.31396,2.58301-8.11816
		c1.72217-1.80371,4.14111-2.70605,7.25684-2.70605c1.03857,0,2.05029,0.13721,3.03418,0.41016
		c0.98389,0.27344,1.8584,0.72461,2.62402,1.35303c0.76465,0.62891,1.37988,1.47607,1.84473,2.54199
		s0.69727,2.39209,0.69727,3.97705c0,0.57422-0.03467,1.18896-0.10254,1.84521c-0.06787,0.65576-0.17041,1.33936-0.30615,2.0498
		h-12.26025c0.08105,1.72217,0.52393,3.02051,1.32813,3.89502c0.80322,0.875,2.104,1.31201,3.90186,1.31201
		c1.1167,0,2.11768-0.17041,3.00342-0.5127c0.88525-0.34131,1.55908-0.68994,2.02246-1.04541L183.90434,92.65218z
		 M176.29643,77.60531c-1.38672,0-2.41309,0.41699-3.07959,1.25049c-0.66602,0.83398-1.06641,1.94775-1.20215,3.3418h7.58496
		c0.10889-1.47607-0.11523-2.61035-0.67285-3.40332C178.36967,78.00179,177.49272,77.60531,176.29643,77.60531z"/>
	<path style="fill:#868689;" d="M188.20903,75.10433c1.09326-0.49219,2.3916-0.88135,3.89502-1.16846
		c1.50293-0.28711,3.0752-0.43066,4.71533-0.43066c1.4209,0,2.60986,0.17139,3.56689,0.5127
		c0.95654,0.34229,1.71484,0.82715,2.27539,1.45557c0.56006,0.62891,0.95654,1.38037,1.18896,2.25488
		c0.23193,0.875,0.34863,1.85889,0.34863,2.95215c0,1.20313-0.04102,2.4126-0.12305,3.62842
		c-0.08203,1.21631-0.12988,2.4126-0.14355,3.5874c-0.01416,1.17578,0.02051,2.31641,0.10254,3.42334
		c0.08203,1.10742,0.28711,2.15283,0.61475,3.13672h-4.3457l-0.86084-2.8291h-0.20508
		c-0.54736,0.84766-1.30566,1.57861-2.27588,2.19336c-0.97021,0.61523-2.2207,0.92285-3.75146,0.92285
		c-0.95703,0-1.81787-0.14355-2.58301-0.43066s-1.42139-0.69678-1.96777-1.22998c-0.54736-0.5332-0.9707-1.16162-1.271-1.88574
		c-0.30127-0.72412-0.45117-1.5376-0.45117-2.43994c0-1.25684,0.28027-2.31641,0.84082-3.17725
		c0.55957-0.86084,1.36621-1.55811,2.41895-2.09082c1.05176-0.5332,2.30908-0.90234,3.77197-1.10742
		c1.46191-0.20459,3.09521-0.26611,4.89941-0.18408c0.19092-1.53076,0.08203-2.63086-0.32813-3.30078
		c-0.40967-0.66943-1.32617-1.00439-2.74707-1.00439c-1.06592,0-2.19336,0.10938-3.38232,0.32813s-2.1665,0.50586-2.93164,0.86084
		L188.20903,75.10433z M194.97417,90.35629c1.06592,0,1.91309-0.23877,2.54199-0.71729
		c0.62842-0.47803,1.09277-0.99072,1.39404-1.5376v-2.66504c-0.84766-0.08203-1.66064-0.09521-2.43945-0.04102
		c-0.7793,0.05518-1.46973,0.17822-2.0708,0.36914c-0.60156,0.19141-1.08008,0.46484-1.43457,0.81982
		c-0.35596,0.35547-0.5332,0.80664-0.5332,1.35303c0,0.76563,0.22559,1.35986,0.67627,1.78369
		C193.55962,90.14486,194.1812,90.35629,194.97417,90.35629z"/>
	<path style="fill:#868689;" d="M221.21342,94.41537V82.77132c0-1.66699-0.23926-2.87012-0.71729-3.60791
		c-0.47852-0.73828-1.2915-1.10693-2.43945-1.10693c-1.01172,0-1.86572,0.29395-2.5625,0.88135
		c-0.69727,0.58789-1.19629,1.31885-1.49658,2.19336v13.28418h-5.33008v-20.5h4.22314l0.61475,2.70605h0.16406
		c0.62842-0.87451,1.46191-1.64014,2.50098-2.2959c1.03857-0.65625,2.37793-0.98438,4.01807-0.98438
		c1.01123,0,1.91309,0.13721,2.70605,0.41016c0.79248,0.27344,1.46191,0.72461,2.00928,1.35303
		c0.54639,0.62891,0.95605,1.48291,1.22998,2.5625c0.27246,1.08008,0.40967,2.4126,0.40967,3.99756v12.75098H221.21342z"/>
	<path style="fill:#868689;" d="M230.68462,68.13461c0-0.79248,0.29346-1.46924,0.88184-2.02979
		c0.5874-0.56006,1.40039-0.84033,2.43945-0.84033c1.03857,0,1.87891,0.28027,2.52148,0.84033
		c0.6416,0.56055,0.96338,1.2373,0.96338,2.02979c0,0.79297-0.32178,1.45508-0.96338,1.98828
		c-0.64258,0.5332-1.48291,0.79932-2.52148,0.79932c-1.03906,0-1.85205-0.26611-2.43945-0.79932
		C230.97807,69.58968,230.68462,68.92757,230.68462,68.13461z M231.46391,73.91537h5.33008v20.5h-5.33008V73.91537z"/>
	<path style="fill:#868689;" d="M247.16655,73.91537v11.64404c0,1.66748,0.19824,2.87012,0.59473,3.60791
		c0.396,0.73828,1.16846,1.10693,2.31641,1.10693c1.01074,0,1.85156-0.30029,2.52148-0.90186
		c0.66943-0.60107,1.16846-1.33887,1.49658-2.21387V73.91537h5.33009v14.26807c0,1.12109,0.0542,2.22119,0.16357,3.30029
		c0.10938,1.08008,0.27295,2.05713,0.49219,2.93164h-4.01807l-0.94289-3.03418h-0.16406
		c-0.62891,1.03906-1.50342,1.90039-2.62402,2.58301c-1.12109,0.68311-2.44629,1.02539-3.97705,1.02539
		c-1.03906,0-1.96777-0.13721-2.78809-0.41016c-0.81982-0.27295-1.50342-0.72412-2.0498-1.35303
		c-0.54688-0.62842-0.96338-1.47607-1.25049-2.54199s-0.43066-2.40479-0.43066-4.01807V73.91537H247.16655z"/>
	<path style="fill:#868689;" d="M270.86432,85.92855h-1.43506v8.48682h-5.33008v-28.7002h5.33008v16.93311l1.22998-0.57373
		l4.67383-8.15918h5.86328l-4.91992,7.79004l-2.09131,1.55811l2.25537,1.59863l5.53467,9.55322h-6.10889L270.86432,85.92855z"/>
</g>
<g>
	<g>
		<path style="fill:#BC5050;" d="M7.89312,33.61312h5.6167v20.99219c0,1.09375-0.12256,2.13184-0.36865,3.11621
			s-0.6499,1.85254-1.20947,2.60352c-0.56055,0.75195-1.27832,1.35254-2.15283,1.80371
			c-0.875,0.45117-1.94092,0.67676-3.19775,0.67676c-0.79297,0-1.6543-0.08203-2.58301-0.24609
			c-0.92969-0.16406-1.73535-0.39551-2.41895-0.69727l1.22998-4.5918c0.71045,0.35547,1.51709,0.5332,2.41895,0.5332
			c1.14795,0,1.87891-0.42383,2.19336-1.27051c0.31396-0.84766,0.47168-1.96875,0.47168-3.3623V33.61312z"/>
		<path style="fill:#BC5050;" d="M18.42974,43.00277c1.09326-0.49219,2.3916-0.88184,3.89502-1.16895
			c1.50293-0.28711,3.0752-0.43066,4.71533-0.43066c1.4209,0,2.60986,0.17188,3.56689,0.5127
			c0.95654,0.34277,1.71484,0.82715,2.27539,1.45605c0.56006,0.62891,0.95654,1.37988,1.18896,2.25488
			c0.23193,0.875,0.34863,1.8584,0.34863,2.95215c0,1.20313-0.04102,2.41211-0.12305,3.62793
			c-0.08203,1.2168-0.12988,2.41309-0.14355,3.58789c-0.01416,1.17578,0.02051,2.31641,0.10254,3.42285
			c0.08203,1.10742,0.28711,2.15332,0.61475,3.13672h-4.3457l-0.86084-2.8291h-0.20508
			c-0.54736,0.84766-1.30566,1.5791-2.27588,2.19336c-0.97021,0.61523-2.2207,0.92285-3.75146,0.92285
			c-0.95703,0-1.81787-0.14355-2.58301-0.43066s-1.42139-0.69629-1.96777-1.22949c-0.54736-0.5332-0.9707-1.16211-1.271-1.88574
			c-0.30127-0.72461-0.45117-1.53809-0.45117-2.44043c0-1.25684,0.28027-2.31641,0.84082-3.17676
			c0.55957-0.86133,1.36621-1.55859,2.41895-2.09082c1.05176-0.5332,2.30908-0.90234,3.77197-1.10742
			c1.46191-0.20508,3.09521-0.2666,4.89941-0.18457c0.19092-1.53027,0.08203-2.63086-0.32813-3.30078
			c-0.40967-0.66895-1.32617-1.00391-2.74707-1.00391c-1.06592,0-2.19336,0.10938-3.38232,0.32813s-2.1665,0.50586-2.93164,0.86035
			L18.42974,43.00277z M25.19488,58.25472c1.06592,0,1.91309-0.23926,2.54199-0.71777
			c0.62842-0.47754,1.09277-0.99023,1.39404-1.53711V53.3348c-0.84766-0.08203-1.66064-0.0957-2.43945-0.04102
			c-0.7793,0.05469-1.46973,0.17773-2.0708,0.36914c-0.60156,0.19141-1.08008,0.46484-1.43457,0.81934
			c-0.35596,0.35547-0.5332,0.80664-0.5332,1.35352c0,0.76563,0.22559,1.35938,0.67627,1.7832
			C23.78033,58.04281,24.40191,58.25472,25.19488,58.25472z"/>
		<path style="fill:#BC5050;" d="M44.01324,41.81332v11.64453c0,1.66699,0.19824,2.87012,0.59473,3.60742
			c0.396,0.73828,1.16846,1.10742,2.31641,1.10742c1.01074,0,1.85156-0.30078,2.52148-0.90234
			c0.66943-0.60059,1.16846-1.33887,1.49658-2.21387V41.81332h5.33008v14.26855c0,1.12109,0.0542,2.2207,0.16357,3.2998
			c0.10938,1.08008,0.27295,2.05762,0.49219,2.93164h-4.01807l-0.94287-3.03418h-0.16406
			c-0.62891,1.03906-1.50342,1.90039-2.62402,2.58301c-1.12109,0.68359-2.44629,1.02539-3.97705,1.02539
			c-1.03906,0-1.96777-0.13672-2.78809-0.41016c-0.81982-0.27246-1.50342-0.72363-2.0498-1.35254
			c-0.54688-0.62891-0.96338-1.47656-1.25049-2.54199c-0.28711-1.06641-0.43066-2.40527-0.43066-4.01855V41.81332H44.01324z
			 M43.07037,32.79379c0.46436,0.81934,1.11328,1.42871,1.94727,1.82422c0.8335,0.39648,1.71533,0.59473,2.64453,0.59473
			s1.78369-0.20508,2.5625-0.61523c0.7793-0.41016,1.37354-1.01074,1.78369-1.80371l2.45996,1.10645
			c-0.08203,0.65625-0.30762,1.30566-0.67627,1.94824c-0.36914,0.64258-0.85498,1.20898-1.45557,1.70117
			c-0.60156,0.49219-1.30566,0.88867-2.11182,1.18848c-0.80615,0.30176-1.67432,0.45117-2.60352,0.45117
			c-1.80371,0-3.34814-0.45703-4.63281-1.37305c-1.28516-0.91602-2.11865-2.15234-2.50098-3.71094L43.07037,32.79379z"/>
		<path style="fill:#BC5050;" d="M73.49224,62.31332V50.66976c0-1.66699-0.23242-2.87012-0.69678-3.6084
			c-0.46533-0.73828-1.31201-1.10645-2.54199-1.10645c-0.90186,0-1.729,0.30762-2.48047,0.92188
			c-0.75195,0.61523-1.25049,1.40137-1.49658,2.35742v13.0791h-5.33008v-28.7002h5.33008v10.49609h0.16406
			c0.65576-0.87402,1.46191-1.57129,2.41895-2.09082c0.95654-0.51855,2.17285-0.7793,3.64893-0.7793
			c1.03857,0,1.9541,0.1377,2.74707,0.41016c0.79248,0.27344,1.45557,0.72461,1.98828,1.35352
			c0.5332,0.62891,0.9292,1.48242,1.18945,2.5625c0.25928,1.08008,0.38916,2.41211,0.38916,3.99707v12.75098H73.49224z"/>
		<path style="fill:#BC5050;" d="M82.96294,36.03304c0-0.79297,0.29346-1.46973,0.88184-2.03027
			c0.5874-0.55957,1.40039-0.83984,2.43945-0.83984c1.03857,0,1.87891,0.28027,2.52148,0.83984
			c0.6416,0.56055,0.96338,1.2373,0.96338,2.03027s-0.32178,1.45508-0.96338,1.98828
			c-0.64258,0.5332-1.48291,0.79883-2.52148,0.79883c-1.03906,0-1.85205-0.26563-2.43945-0.79883
			C83.2564,37.48812,82.96294,36.82601,82.96294,36.03304z M83.74224,41.81332h5.33008v20.5h-5.33008V41.81332z"/>
		<path style="fill:#BC5050;" d="M110.71978,60.55062c-0.81982,0.65625-1.93408,1.20898-3.34131,1.66016
			c-1.4082,0.45117-2.90479,0.67676-4.48975,0.67676c-3.30713,0-5.72607-0.96387-7.25684-2.89063
			c-1.53125-1.92676-2.2959-4.57129-2.2959-7.93359c0-3.60742,0.86084-6.31348,2.58301-8.11816
			c1.72217-1.80371,4.14111-2.70605,7.25684-2.70605c1.03857,0,2.05029,0.1377,3.03418,0.41016
			c0.98389,0.27344,1.8584,0.72461,2.62402,1.35352c0.76465,0.62891,1.37988,1.47559,1.84473,2.54199
			c0.46484,1.06543,0.69727,2.3916,0.69727,3.97656c0,0.57422-0.03467,1.18945-0.10254,1.8457
			c-0.06787,0.65527-0.17041,1.33887-0.30615,2.0498H98.70708c0.08105,1.72168,0.52393,3.02051,1.32813,3.89453
			c0.80322,0.875,2.104,1.3125,3.90186,1.3125c1.1167,0,2.11768-0.1709,3.00342-0.5127
			c0.88525-0.3418,1.55908-0.69043,2.02246-1.0459L110.71978,60.55062z M103.11187,45.50375
			c-1.38672,0-2.41309,0.41699-3.07959,1.25c-0.66602,0.83398-1.06641,1.94824-1.20215,3.3418h7.58496
			c0.10889-1.47559-0.11523-2.61035-0.67285-3.40332C105.18511,45.90023,104.30816,45.50375,103.11187,45.50375z"/>
		<path style="fill:#BC5050;" d="M127.6939,62.31332V50.66976c0-1.66699-0.23926-2.87012-0.71729-3.6084
			c-0.47852-0.73828-1.2915-1.10645-2.43945-1.10645c-1.01172,0-1.86572,0.29395-2.5625,0.88086
			c-0.69727,0.58789-1.19629,1.31934-1.49658,2.19336v13.28418H115.148v-20.5h4.22314l0.61475,2.70605h0.16406
			c0.62842-0.87402,1.46191-1.63965,2.50098-2.2959c1.03857-0.65625,2.37793-0.98438,4.01807-0.98438
			c1.01123,0,1.91308,0.1377,2.70605,0.41016c0.79248,0.27344,1.46191,0.72461,2.00928,1.35352
			c0.54639,0.62891,0.95605,1.48242,1.22998,2.5625c0.27246,1.08008,0.40967,2.41211,0.40967,3.99707v12.75098H127.6939z"/>
		<path style="fill:#BC5050;" d="M166.15141,62.31332h-18.16309v-28.7002h5.61719v23.69824h12.5459V62.31332z"/>
		<path style="fill:#BC5050;" d="M183.90434,60.55062c-0.81982,0.65625-1.93408,1.20898-3.34131,1.66016
			c-1.4082,0.45117-2.90479,0.67676-4.48975,0.67676c-3.30713,0-5.72607-0.96387-7.25684-2.89063
			c-1.53125-1.92676-2.2959-4.57129-2.2959-7.93359c0-3.60742,0.86084-6.31348,2.58301-8.11816
			c1.72217-1.80371,4.14111-2.70605,7.25684-2.70605c1.03857,0,2.05029,0.1377,3.03418,0.41016
			c0.98389,0.27344,1.8584,0.72461,2.62402,1.35352c0.76465,0.62891,1.37988,1.47559,1.84473,2.54199
			c0.46484,1.06543,0.69727,2.3916,0.69727,3.97656c0,0.57422-0.03467,1.18945-0.10254,1.8457
			c-0.06787,0.65527-0.17041,1.33887-0.30615,2.0498h-12.26025c0.08105,1.72168,0.52393,3.02051,1.32813,3.89453
			c0.80322,0.875,2.104,1.3125,3.90186,1.3125c1.1167,0,2.11768-0.1709,3.00342-0.5127
			c0.88525-0.3418,1.55908-0.69043,2.02246-1.0459L183.90434,60.55062z M176.29643,45.50375
			c-1.38672,0-2.41309,0.41699-3.07959,1.25c-0.66602,0.83398-1.06641,1.94824-1.20215,3.3418h7.58496
			c0.10889-1.47559-0.11523-2.61035-0.67285-3.40332C178.36967,45.90023,177.49272,45.50375,176.29643,45.50375z"/>
		<path style="fill:#BC5050;" d="M188.20903,43.00277c1.09326-0.49219,2.3916-0.88184,3.89502-1.16895
			c1.50293-0.28711,3.0752-0.43066,4.71533-0.43066c1.4209,0,2.60986,0.17188,3.56689,0.5127
			c0.95654,0.34277,1.71484,0.82715,2.27539,1.45605c0.56006,0.62891,0.95654,1.37988,1.18896,2.25488
			c0.23193,0.875,0.34863,1.8584,0.34863,2.95215c0,1.20313-0.04102,2.41211-0.12305,3.62793
			c-0.08203,1.2168-0.12988,2.41309-0.14355,3.58789c-0.01416,1.17578,0.02051,2.31641,0.10254,3.42285
			c0.08203,1.10742,0.28711,2.15332,0.61475,3.13672h-4.3457l-0.86084-2.8291h-0.20508
			c-0.54736,0.84766-1.30566,1.5791-2.27588,2.19336c-0.97021,0.61523-2.2207,0.92285-3.75146,0.92285
			c-0.95703,0-1.81787-0.14355-2.58301-0.43066s-1.42139-0.69629-1.96777-1.22949c-0.54736-0.5332-0.9707-1.16211-1.271-1.88574
			c-0.30127-0.72461-0.45117-1.53809-0.45117-2.44043c0-1.25684,0.28027-2.31641,0.84082-3.17676
			c0.55957-0.86133,1.36621-1.55859,2.41895-2.09082c1.05176-0.5332,2.30908-0.90234,3.77197-1.10742
			c1.46191-0.20508,3.09521-0.2666,4.89941-0.18457c0.19092-1.53027,0.08203-2.63086-0.32813-3.30078
			c-0.40967-0.66895-1.32617-1.00391-2.74707-1.00391c-1.06592,0-2.19336,0.10938-3.38232,0.32813s-2.1665,0.50586-2.93164,0.86035
			L188.20903,43.00277z M194.97417,58.25472c1.06592,0,1.91309-0.23926,2.54199-0.71777
			c0.62842-0.47754,1.09277-0.99023,1.39404-1.53711V53.3348c-0.84766-0.08203-1.66064-0.0957-2.43945-0.04102
			c-0.7793,0.05469-1.46973,0.17773-2.0708,0.36914c-0.60156,0.19141-1.08008,0.46484-1.43457,0.81934
			c-0.35596,0.35547-0.5332,0.80664-0.5332,1.35352c0,0.76563,0.22559,1.35938,0.67627,1.7832
			C193.55962,58.04281,194.1812,58.25472,194.97417,58.25472z"/>
		<path style="fill:#BC5050;" d="M221.21342,62.31332V50.66976c0-1.66699-0.23926-2.87012-0.71729-3.6084
			c-0.47852-0.73828-1.2915-1.10645-2.43945-1.10645c-1.01172,0-1.86572,0.29395-2.5625,0.88086
			c-0.69727,0.58789-1.19629,1.31934-1.49658,2.19336v13.28418h-5.33008v-20.5h4.22314l0.61475,2.70605h0.16406
			c0.62842-0.87402,1.46191-1.63965,2.50098-2.2959c1.03857-0.65625,2.37793-0.98438,4.01807-0.98438
			c1.01123,0,1.91309,0.1377,2.70605,0.41016c0.79248,0.27344,1.46191,0.72461,2.00928,1.35352
			c0.54639,0.62891,0.95605,1.48242,1.22998,2.5625c0.27246,1.08008,0.40967,2.41211,0.40967,3.99707v12.75098H221.21342z"/>
		<path style="fill:#BC5050;" d="M230.68462,36.03304c0-0.79297,0.29346-1.46973,0.88184-2.03027
			c0.5874-0.55957,1.40039-0.83984,2.43945-0.83984c1.03857,0,1.87891,0.28027,2.52148,0.83984
			c0.6416,0.56055,0.96338,1.2373,0.96338,2.03027s-0.32178,1.45508-0.96338,1.98828
			c-0.64258,0.5332-1.48291,0.79883-2.52148,0.79883c-1.03906,0-1.85205-0.26563-2.43945-0.79883
			C230.97807,37.48812,230.68462,36.82601,230.68462,36.03304z M231.46391,41.81332h5.33008v20.5h-5.33008V41.81332z"/>
		<path style="fill:#BC5050;" d="M247.16655,41.81332v11.64453c0,1.66699,0.19824,2.87012,0.59473,3.60742
			c0.396,0.73828,1.16846,1.10742,2.31641,1.10742c1.01074,0,1.85156-0.30078,2.52148-0.90234
			c0.66943-0.60059,1.16846-1.33887,1.49658-2.21387V41.81332h5.33009v14.26855c0,1.12109,0.0542,2.2207,0.16357,3.2998
			c0.10938,1.08008,0.27295,2.05762,0.49219,2.93164h-4.01807l-0.94289-3.03418h-0.16406
			c-0.62891,1.03906-1.50342,1.90039-2.62402,2.58301c-1.12109,0.68359-2.44629,1.02539-3.97705,1.02539
			c-1.03906,0-1.96777-0.13672-2.78809-0.41016c-0.81982-0.27246-1.50342-0.72363-2.0498-1.35254
			c-0.54688-0.62891-0.96338-1.47656-1.25049-2.54199c-0.28711-1.06641-0.43066-2.40527-0.43066-4.01855V41.81332H247.16655z"/>
		<path style="fill:#BC5050;" d="M270.86432,53.82699h-1.43506v8.48633h-5.33008v-28.7002h5.33008v16.93359l1.22998-0.57422
			l4.67383-8.15918h5.86328l-4.91992,7.79004l-2.09131,1.55859l2.25537,1.59863l5.53467,9.55273h-6.10889L270.86432,53.82699z"/>
	</g>
</g>
<rect x="0.15207" style="display:none;fill:#FFFFFF;" width="283.72012" height="32.53811"/>
<rect x="0.15207" y="65.07622" style="display:none;fill:#FFFFFF;" width="283.72012" height="32.53811"/>
<rect x="0.15207" y="32.53811" style="display:none;fill:#BC5050;" width="283.72012" height="32.53811"/>
<g style="display:none;">
	<path style="display:inline;fill:#000333;" d="M12.76861,54.07308H9.19146l-1.44727,6.19043H3.44292l1.44727-6.19043H1.91558
		l0.88428-3.89941h3.01465l1.00537-4.26074H3.92535l0.88428-3.89844h2.93457l1.40674-5.78906h4.26123l-1.3667,5.78906h3.57715
		l1.40723-5.78906h4.26074l-1.3667,5.78906h2.89404l-1.00488,3.89844h-2.81396l-1.00488,4.26074h2.77393l-0.96484,3.89941h-2.7334
		l-1.44727,6.19043h-4.30078L12.76861,54.07308z M10.11578,50.17367h3.57764l1.00488-4.26074h-3.57764L10.11578,50.17367z"/>
	<path style="display:inline;fill:#000333;" d="M26.35455,34.45687c1.12549-0.21387,2.36475-0.38184,3.71826-0.50195
		c1.35303-0.12109,2.69971-0.18066,4.04004-0.18066c1.39307,0,2.79346,0.11426,4.20068,0.34082
		c1.40674,0.22852,2.67285,0.68359,3.79834,1.36719s2.04297,1.63477,2.75342,2.85352
		c0.70996,1.21973,1.06543,2.80762,1.06543,4.76367c0,1.76855-0.30859,3.2627-0.9248,4.48242
		c-0.6167,1.21973-1.43359,2.2168-2.45166,2.99414c-1.01904,0.77734-2.17773,1.34082-3.47705,1.68848
		c-1.30029,0.34863-2.64697,0.52246-4.04004,0.52246c-0.13428,0-0.34863,0-0.64307,0c-0.29541,0-0.60303-0.00586-0.92432-0.02051
		c-0.32178-0.0127-0.63721-0.0332-0.94482-0.05957c-0.30859-0.02637-0.5293-0.05371-0.66309-0.08105v9.6875h-5.50732V34.45687z
		 M34.55474,38.51742c-0.53613,0-1.04492,0.01953-1.52734,0.05957c-0.48242,0.04102-0.87109,0.08789-1.16553,0.14063v9.125
		c0.10645,0.02734,0.26758,0.05371,0.48242,0.08008c0.21387,0.02734,0.44189,0.04785,0.68311,0.06055
		c0.24121,0.01367,0.47559,0.02051,0.70361,0.02051c0.22705,0,0.39502,0,0.50244,0c0.72363,0,1.43994-0.06641,2.15039-0.20117
		c0.70996-0.13379,1.34668-0.38184,1.90918-0.74414c0.56299-0.36133,1.01123-0.86426,1.34668-1.50684
		c0.33496-0.64355,0.50244-1.4873,0.50244-2.53223c0-0.88477-0.16064-1.61426-0.48242-2.19141
		c-0.32129-0.5752-0.74365-1.03809-1.26611-1.38672c-0.52246-0.34766-1.11914-0.58887-1.78857-0.72363
		C35.93462,38.58382,35.25152,38.51742,34.55474,38.51742z"/>
	<path style="display:inline;fill:#000333;" d="M59.15533,47.11898c-0.83105-0.29395-1.58154-0.44238-2.25098-0.44238
		c-0.93848,0-1.72266,0.24805-2.35156,0.74414c-0.63037,0.49609-1.05225,1.13184-1.2666,1.90918v12.9834H48.0606V42.21468h4.06006
		l0.60303,2.65332h0.16064c0.45557-0.99121,1.07178-1.75488,1.84912-2.29102c0.77686-0.53613,1.68848-0.80371,2.7334-0.80371
		c0.69678,0,1.4873,0.14746,2.37158,0.44141L59.15533,47.11898z"/>
	<path style="display:inline;fill:#000333;" d="M62.04888,43.3807c1.07178-0.48242,2.34473-0.86426,3.81885-1.14551
		c1.47363-0.28125,3.01465-0.42188,4.62256-0.42188c1.39307,0,2.55908,0.16797,3.49707,0.50195
		c0.93799,0.33594,1.68164,0.81152,2.23096,1.42773s0.93799,1.35352,1.16602,2.20996
		c0.22705,0.8584,0.34131,1.82324,0.34131,2.89453c0,1.17969-0.04004,2.36523-0.12061,3.55762
		c-0.08008,1.19238-0.12744,2.36523-0.14063,3.51758c-0.01367,1.15234,0.02051,2.27051,0.10059,3.35645
		c0.08057,1.08496,0.28125,2.11035,0.60303,3.07422h-4.26074l-0.84424-2.77344h-0.20117
		c-0.53613,0.83105-1.27979,1.54785-2.23096,2.15039c-0.95117,0.60352-2.17725,0.90527-3.67773,0.90527
		c-0.93848,0-1.78271-0.1416-2.53223-0.42285c-0.75098-0.28125-1.39404-0.68262-1.92969-1.20605
		c-0.53613-0.52246-0.95166-1.13867-1.24609-1.84863c-0.29541-0.70996-0.44238-1.50684-0.44238-2.3916
		c0-1.23242,0.2749-2.27148,0.82422-3.11523c0.54883-0.84375,1.33984-1.52734,2.37158-2.0498
		c1.03125-0.52246,2.26416-0.88477,3.69824-1.08594c1.43311-0.2002,3.03467-0.26074,4.80322-0.18066
		c0.1875-1.5,0.08057-2.5791-0.32129-3.23535s-1.30029-0.98535-2.69336-0.98535c-1.04492,0-2.15039,0.10742-3.31592,0.32129
		c-1.16602,0.21484-2.12451,0.49707-2.87451,0.84473L62.04888,43.3807z M68.68169,58.33382
		c1.04492,0,1.87549-0.23438,2.49219-0.70313c0.61621-0.46875,1.07129-0.9707,1.3667-1.50781v-2.6123
		c-0.83105-0.08008-1.62793-0.09375-2.3916-0.04004c-0.76416,0.05371-1.44092,0.1748-2.03027,0.36133
		c-0.58984,0.1875-1.05859,0.45605-1.40674,0.80371c-0.34863,0.34863-0.52246,0.79102-0.52246,1.32715
		c0,0.75,0.22119,1.33301,0.66309,1.74805C67.29498,58.12679,67.90386,58.33382,68.68169,58.33382z"/>
	<path style="display:inline;fill:#000333;" d="M89.42242,53.51058l0.72363,3.13477h0.24121l0.52246-3.1748l3.05518-11.25586
		h5.38623l-6.10986,18.12891c-0.50928,1.50098-0.99854,2.87402-1.46729,4.12012c-0.46924,1.24609-0.98486,2.3252-1.54736,3.23633
		c-0.56299,0.91016-1.18604,1.61426-1.86914,2.11035c-0.68359,0.49512-1.49414,0.74316-2.43213,0.74316
		c-1.39355,0-2.50586-0.22754-3.33643-0.68262l0.96484-4.18066c0.40186,0.16016,0.8042,0.24121,1.20605,0.24121
		c0.61621,0,1.21191-0.26172,1.78857-0.78418c0.57617-0.52246,1.01123-1.4668,1.30664-2.83398l-8.40137-20.09863h6.271
		L89.42242,53.51058z"/>
	<path style="display:inline;fill:#000333;" d="M101.44097,34.17562h16.68164v4.9043H106.9483v6.9541h10.29004v4.9043H106.9483
		v11.375h-5.50732V34.17562z"/>
	<path style="display:inline;fill:#000333;" d="M120.77593,52.26449c0-3.40332,0.83008-6.02246,2.49219-7.8584
		c1.66113-1.83594,3.99268-2.75391,6.99413-2.75391c1.60791,0,3.00098,0.25488,4.18066,0.76367
		c1.17871,0.50977,2.15674,1.22656,2.93408,2.15039c0.77686,0.9248,1.35986,2.04395,1.74854,3.35645
		c0.38818,1.31348,0.58301,2.76074,0.58301,4.3418c0,3.40332-0.82422,6.02344-2.47217,7.8584
		c-1.64795,1.83594-3.97314,2.75391-6.97412,2.75391c-1.60791,0-3.00146-0.25586-4.18066-0.76465s-2.16406-1.22559-2.9541-2.15039
		c-0.79102-0.92383-1.38086-2.04297-1.76904-3.35645C120.96978,55.29281,120.77593,53.84554,120.77593,52.26449z
		 M126.16216,52.26449c0,0.88379,0.08057,1.70215,0.24121,2.45215s0.40186,1.40625,0.72363,1.96973
		c0.32129,0.5625,0.74365,0.99805,1.26611,1.30566c0.52246,0.30859,1.14551,0.46289,1.86914,0.46289
		c1.3667,0,2.38477-0.49609,3.05469-1.4873s1.00537-2.55859,1.00537-4.70313c0-1.84961-0.30859-3.34277-0.9248-4.48242
		c-0.6167-1.13867-1.66162-1.70801-3.13525-1.70801c-1.28613,0-2.29101,0.48242-3.01464,1.44727
		S126.16216,50.06722,126.16216,52.26449z"/>
	<path style="display:inline;fill:#000333;" d="M154.41997,47.11898c-0.83105-0.29395-1.58154-0.44238-2.25098-0.44238
		c-0.93848,0-1.72266,0.24805-2.35156,0.74414c-0.63037,0.49609-1.05225,1.13184-1.2666,1.90918v12.9834h-5.22559V42.21468h4.06006
		l0.60303,2.65332h0.16064c0.45557-0.99121,1.07178-1.75488,1.84912-2.29102c0.77686-0.53613,1.68848-0.80371,2.7334-0.80371
		c0.69678,0,1.4873,0.14746,2.37158,0.44141L154.41997,47.11898z"/>
	<path style="display:inline;fill:#000333;" d="M176.48784,40.72738c0,0.69727-0.08691,1.39453-0.26025,2.09082
		c-0.17334,0.69727-0.45996,1.33301-0.85938,1.90918s-0.91846,1.08496-1.55811,1.52734
		c-0.63916,0.44238-1.41211,0.77051-2.31738,0.98535v0.24121c0.79932,0.13379,1.55957,0.36133,2.2793,0.68262
		c0.71973,0.32227,1.34619,0.76367,1.87988,1.32715c0.5332,0.5625,0.95313,1.24609,1.25977,2.0498s0.46045,1.75586,0.46045,2.85352
		c0,1.44727-0.30859,2.7002-0.9248,3.75879c-0.6167,1.05859-1.44092,1.92285-2.47217,2.59277
		c-1.03174,0.66992-2.20459,1.16602-3.51709,1.4873c-1.31348,0.32129-2.66699,0.48242-4.06006,0.48242
		c-0.45557,0-1.03857,0-1.74854,0s-1.47412-0.02051-2.29102-0.06055c-0.81787-0.04004-1.64795-0.10059-2.49219-0.18066
		s-1.61475-0.20117-2.31152-0.3623V34.37679c0.50879-0.08008,1.0918-0.16113,1.74854-0.24121s1.35986-0.14746,2.11035-0.20117
		c0.75-0.05273,1.521-0.09375,2.31152-0.12012c0.79004-0.02637,1.57373-0.04004,2.35156-0.04004
		c1.3125,0,2.59277,0.09961,3.83887,0.30078s2.35791,0.55664,3.33643,1.06543c0.97754,0.50977,1.76172,1.21973,2.35107,2.13086
		S176.48784,39.3348,176.48784,40.72738z M164.71001,45.99398c0.375,0,0.81006-0.01367,1.30615-0.04004
		c0.49561-0.02637,0.90479-0.06641,1.22607-0.11914c1.01807-0.31738,1.89551-0.79492,2.63281-1.43164
		c0.73682-0.63672,1.10547-1.47168,1.10547-2.50684c0-0.68945-0.13428-1.25879-0.40186-1.70996
		c-0.26807-0.45117-0.62305-0.80859-1.06494-1.07422c-0.44238-0.26465-0.94482-0.4502-1.50781-0.55664
		c-0.5625-0.10547-1.15234-0.15918-1.76855-0.15918c-0.69727,0-1.34033,0.01367-1.9292,0.04004
		c-0.58984,0.02637-1.04541,0.06641-1.3667,0.11914v7.43848H164.71001z M166.45366,58.09261
		c0.65723,0,1.29541-0.0791,1.91357-0.23828s1.16455-0.4043,1.63818-0.73633c0.47363-0.33105,0.85449-0.74902,1.14404-1.25391
		c0.28906-0.50293,0.43408-1.10059,0.43408-1.79004c0-0.87598-0.17139-1.56543-0.51318-2.06934
		c-0.34229-0.50391-0.78955-0.89453-1.34229-1.17383c-0.55273-0.27832-1.17041-0.45801-1.85449-0.53711
		s-1.36816-0.12012-2.05127-0.12012h-2.88086v7.68066c0.13135,0.05371,0.34131,0.09277,0.63086,0.11914
		c0.28906,0.02637,0.59814,0.04688,0.92725,0.05957c0.3291,0.01367,0.6709,0.02734,1.02637,0.04004
		C165.88139,58.08675,166.19048,58.09261,166.45366,58.09261z"/>
	<path style="display:inline;fill:#000333;" d="M197.26909,60.5848c-0.8042,0.64355-1.89648,1.18652-3.27637,1.62793
		c-1.38037,0.44238-2.84766,0.66406-4.40137,0.66406c-3.24268,0-5.61426-0.94531-7.11475-2.83398
		c-1.50098-1.88965-2.25098-4.48242-2.25098-7.77832c0-3.53711,0.84375-6.19043,2.53223-7.95898s4.06006-2.65332,7.11475-2.65332
		c1.01807,0,2.00977,0.13477,2.97461,0.40234s1.82227,0.70996,2.57275,1.32617c0.75,0.61719,1.35254,1.44727,1.80859,2.49219
		c0.45557,1.04492,0.68359,2.3457,0.68359,3.89941c0,0.5625-0.03418,1.16602-0.10059,1.80859
		c-0.06641,0.64355-0.16699,1.31348-0.30029,2.00977h-12.02002c0.07959,1.68848,0.51367,2.96191,1.30176,3.81934
		s2.06348,1.28613,3.82568,1.28613c1.09473,0,2.07666-0.16699,2.94482-0.50293c0.86768-0.33496,1.52832-0.67578,1.98242-1.02441
		L197.26909,60.5848z M189.8101,45.83285c-1.35986,0-2.36621,0.40918-3.01953,1.22559
		c-0.65283,0.81836-1.04541,1.91016-1.17871,3.27637h7.43652c0.10645-1.44727-0.11328-2.55859-0.65967-3.33594
		S190.98247,45.83285,189.8101,45.83285z"/>
	<path style="display:inline;fill:#000333;" d="M206.99663,55.56039c0,0.93848,0.12061,1.62207,0.36182,2.0498
		c0.24121,0.42969,0.62891,0.64355,1.16553,0.64355c0.32178,0,0.63623-0.02637,0.94482-0.08008
		c0.30762-0.05371,0.68945-0.1748,1.14551-0.3623l0.5625,4.10059c-0.42871,0.21484-1.08496,0.42773-1.96973,0.64258
		c-0.88428,0.21484-1.79541,0.32227-2.73291,0.32227c-1.52783,0-2.69336-0.35645-3.49756-1.06543
		c-0.80371-0.70996-1.20557-1.88281-1.20557-3.51758V34.17562h5.22559V55.56039z"/>
	<path style="display:inline;fill:#000333;" d="M213.30669,43.3807c1.07178-0.48242,2.34473-0.86426,3.81885-1.14551
		c1.47363-0.28125,3.01465-0.42188,4.62256-0.42188c1.39307,0,2.55908,0.16797,3.49707,0.50195
		c0.93799,0.33594,1.68164,0.81152,2.23096,1.42773s0.93799,1.35352,1.16602,2.20996
		c0.22705,0.8584,0.34131,1.82324,0.34131,2.89453c0,1.17969-0.04004,2.36523-0.12061,3.55762
		c-0.08008,1.19238-0.12744,2.36523-0.14063,3.51758c-0.01367,1.15234,0.02051,2.27051,0.10059,3.35645
		c0.08057,1.08496,0.28125,2.11035,0.60303,3.07422h-4.26074l-0.84424-2.77344h-0.20117
		c-0.53613,0.83105-1.27979,1.54785-2.23096,2.15039c-0.95117,0.60352-2.17725,0.90527-3.67773,0.90527
		c-0.93848,0-1.78271-0.1416-2.53223-0.42285c-0.75098-0.28125-1.39404-0.68262-1.92969-1.20605
		c-0.53613-0.52246-0.95166-1.13867-1.24609-1.84863c-0.29541-0.70996-0.44238-1.50684-0.44238-2.3916
		c0-1.23242,0.2749-2.27148,0.82422-3.11523c0.54883-0.84375,1.33984-1.52734,2.37158-2.0498
		c1.03125-0.52246,2.26416-0.88477,3.69824-1.08594c1.43311-0.2002,3.03467-0.26074,4.80322-0.18066
		c0.1875-1.5,0.08057-2.5791-0.32129-3.23535s-1.30029-0.98535-2.69336-0.98535c-1.04492,0-2.15039,0.10742-3.31592,0.32129
		c-1.16602,0.21484-2.12451,0.49707-2.87451,0.84473L213.30669,43.3807z M219.9395,58.33382
		c1.04492,0,1.87549-0.23438,2.49219-0.70313c0.61621-0.46875,1.07129-0.9707,1.3667-1.50781v-2.6123
		c-0.83105-0.08008-1.62793-0.09375-2.3916-0.04004c-0.76416,0.05371-1.44092,0.1748-2.03027,0.36133
		c-0.58984,0.1875-1.05859,0.45605-1.40674,0.80371c-0.34863,0.34863-0.52246,0.79102-0.52246,1.32715
		c0,0.75,0.22119,1.33301,0.66309,1.74805C218.55278,58.12679,219.16167,58.33382,219.9395,58.33382z"/>
	<path style="display:inline;fill:#000333;" d="M244.45903,47.11898c-0.83105-0.29395-1.58154-0.44238-2.25098-0.44238
		c-0.93848,0-1.72266,0.24805-2.35156,0.74414c-0.63037,0.49609-1.05225,1.13184-1.2666,1.90918v12.9834h-5.22559V42.21468h4.06006
		l0.60303,2.65332h0.16064c0.45557-0.99121,1.07178-1.75488,1.84912-2.29102c0.77686-0.53613,1.68848-0.80371,2.7334-0.80371
		c0.69678,0,1.4873,0.14746,2.37158,0.44141L244.45903,47.11898z"/>
	<path style="display:inline;fill:#000333;" d="M252.49809,42.21468V53.6307c0,1.63477,0.19385,2.81445,0.58252,3.53809
		c0.38818,0.72266,1.146,1.08496,2.27148,1.08496c0.99123,0,1.81496-0.29492,2.47218-0.88477
		c0.65625-0.58887,1.14551-1.3125,1.4668-2.16992V42.21468h5.22559v13.98926c0,1.09863,0.05371,2.17676,0.16113,3.23535
		c0.10645,1.05957,0.26758,2.0166,0.48242,2.87402h-3.93945l-0.9248-2.97461h-0.16064
		c-0.6167,1.01855-1.47412,1.86328-2.57227,2.53223c-1.09961,0.66992-2.39894,1.00586-3.89943,1.00586
		c-1.01855,0-1.9292-0.13477-2.7334-0.40234c-0.80371-0.26758-1.47412-0.70996-2.00977-1.32617
		c-0.53613-0.61621-0.94482-1.44727-1.22607-2.49219c-0.28125-1.0459-0.42188-2.3584-0.42188-3.93945V42.21468H252.49809z"/>
	<path style="display:inline;fill:#000333;" d="M277.41949,56.76644c0-0.53613-0.22803-0.96484-0.68311-1.28613
		c-0.45605-0.32227-1.01904-0.61621-1.68848-0.88477c-0.66992-0.26758-1.40674-0.54199-2.21094-0.82422
		c-0.80371-0.28125-1.54102-0.66895-2.21045-1.16504c-0.67041-0.49609-1.23291-1.12598-1.68848-1.88965
		c-0.45605-0.76367-0.68311-1.74805-0.68311-2.9541c0-1.9834,0.58887-3.49707,1.76855-4.54199
		c1.17871-1.0459,2.88037-1.56836,5.10498-1.56836c1.52734,0,2.90723,0.16113,4.14014,0.48242
		c1.23242,0.32129,2.19727,0.68359,2.89404,1.08594l-1.16553,3.77832c-0.6167-0.24121-1.39355-0.49609-2.33154-0.76367
		s-1.88916-0.40234-2.854-0.40234c-1.5542,0-2.33105,0.60254-2.33105,1.80859c0,0.48242,0.22705,0.87109,0.68311,1.16602
		c0.45557,0.29492,1.01807,0.56934,1.68848,0.82422c0.66943,0.25488,1.40674,0.5293,2.21045,0.82422
		c0.8042,0.29492,1.54102,0.67676,2.21094,1.14551c0.66943,0.46875,1.23242,1.0791,1.68848,1.8291
		c0.45508,0.75,0.68311,1.71484,0.68311,2.89355c0,2.03711-0.6499,3.6377-1.94922,4.80371
		c-1.30029,1.16602-3.25,1.74902-5.84863,1.74902c-1.4209,0-2.75391-0.18164-4-0.54297
		c-1.24609-0.3623-2.25781-0.78418-3.03467-1.2666l1.44727-3.89844c0.61621,0.34863,1.43311,0.68945,2.45166,1.02441
		c1.01855,0.33594,2.06348,0.50293,3.13574,0.50293c0.77686,0,1.3999-0.14746,1.86914-0.44238
		C277.18463,57.95882,277.41949,57.46371,277.41949,56.76644z"/>
</g>
<g>
</g>
<g>
</g>
<g>
</g>
<g>
</g>
<g>
</g>
</svg>
