<?xml version="1.0" encoding="utf-8"?>
<!-- Generator: Adobe Illustrator 23.0.1, SVG Export Plug-In . SVG Version: 6.00 Build 0)  -->
<svg version="1.1" id="Layer_1" xmlns="http://www.w3.org/2000/svg" xmlns:xlink="http://www.w3.org/1999/xlink" x="0px" y="0px"
	 viewBox="0 0 1000 1000" style="enable-background:new 0 0 1000 1000;" xml:space="preserve">
<g id="media" style="display:none;">
	<path style="display:inline;" d="M-201.01367,101.18701c-1.9502,0.69971-5.7998,1.8501-10.35059,1.8501
		c-5.09961,0-9.2998-1.30029-12.60059-4.4502c-2.90039-2.80029-4.7002-7.30078-4.7002-12.55078
		c0.0498-10.05078,6.9502-17.40137,18.25098-17.40137c3.90039,0,6.9502,0.8501,8.40039,1.55029l-1.0498,3.55029
		c-1.7998-0.80029-4.0498-1.4502-7.4502-1.4502c-8.20117,0-13.55078,5.1001-13.55078,13.55078
		c0,8.55078,5.15039,13.60107,13.00098,13.60107c2.84961,0,4.7998-0.40039,5.7998-0.90039V88.48633h-6.85059v-3.50049h11.10059
		V101.18701z"/>
	<path style="display:inline;" d="M-189.61523,71.68506c0.05078,1.5-1.0498,2.7002-2.7998,2.7002
		c-1.5498,0-2.65039-1.2002-2.65039-2.7002c0-1.5498,1.15039-2.75,2.75098-2.75
		C-190.66504,68.93506-189.61523,70.13525-189.61523,71.68506z M-194.51465,102.68701V78.48535h4.39941v24.20166H-194.51465z"/>
	<path style="display:inline;" d="M-177.51465,71.53516v6.9502h6.2998v3.35059h-6.2998v13.05078c0,3,0.84961,4.7002,3.2998,4.7002
		c1.15039,0,2-0.1499,2.5498-0.30029l0.2002,3.30029c-0.84961,0.3501-2.2002,0.6001-3.90039,0.6001
		c-2.0498,0-3.7002-0.6499-4.75-1.8501c-1.25-1.30029-1.7002-3.4502-1.7002-6.30029V81.83594h-3.75v-3.35059h3.75v-5.80029
		L-177.51465,71.53516z"/>
	<path style="display:inline;" d="M-161.76563,68.98486v14.10107h16.30176V68.98486h4.39941v33.70215h-4.39941V86.88623h-16.30176
		v15.80078h-4.34961V68.98486H-161.76563z"/>
	<path style="display:inline;" d="M-113.41504,96.08643c0,2.50049,0.05078,4.70068,0.2002,6.60059h-3.90039l-0.25-3.9502h-0.09961
		c-1.15039,1.9502-3.7002,4.5-8.00098,4.5c-3.7998,0-8.35059-2.1001-8.35059-10.60059V78.48535h4.40039v13.40088
		c0,4.60059,1.40039,7.70068,5.40039,7.70068c2.9502,0,5.00098-2.05029,5.80078-4.00049c0.25-0.6499,0.39941-1.44971,0.39941-2.25
		V78.48535h4.40039V96.08643z"/>
	<path style="display:inline;" d="M-106.31641,102.68701c0.10059-1.6499,0.2002-4.1001,0.2002-6.25049V67.18506h4.35059v15.20068
		h0.09961c1.5498-2.7002,4.35059-4.4502,8.25098-4.4502c6,0,10.25,5.00049,10.2002,12.35059
		c0,8.65088-5.4502,12.95068-10.85059,12.95068c-3.5,0-6.30078-1.3501-8.10059-4.55029h-0.14941l-0.2002,4.00049H-106.31641z
		 M-101.76563,92.98633c0,0.55029,0.09961,1.1001,0.2002,1.6001c0.84961,3.05029,3.39941,5.15039,6.59961,5.15039
		c4.60059,0,7.35059-3.75,7.35059-9.30078c0-4.8501-2.5-9.00049-7.2002-9.00049c-3,0-5.80078,2.05029-6.7002,5.40039
		c-0.10059,0.5-0.25,1.1001-0.25,1.80029V92.98633z"/>
	<path style="display:inline;" d="M-222.31445,128.98486v33.70215h-4.35059v-33.70215H-222.31445z"/>
	<path style="display:inline;" d="M-214.36523,145.03613c0-2.50049-0.0498-4.55029-0.2002-6.55078h3.90039l0.25,4.00049h0.10059
		c1.19922-2.30029,4-4.55029,8-4.55029c3.35059,0,8.55078,2,8.55078,10.30078v14.45068h-4.40039v-13.95068
		c0-3.90039-1.4502-7.15039-5.60059-7.15039c-2.90039,0-5.15039,2.0498-5.90039,4.5c-0.2002,0.55029-0.2998,1.30029-0.2998,2.05029
		v14.55078h-4.40039V145.03613z"/>
	<path style="display:inline;" d="M-187.21582,158.18652c1.2998,0.8501,3.60059,1.75049,5.80078,1.75049
		c3.2002,0,4.7002-1.6001,4.7002-3.60059c0-2.1001-1.25-3.25-4.5-4.4502c-4.35059-1.5498-6.40039-3.9502-6.40039-6.8501
		c0-3.90039,3.14941-7.10059,8.34961-7.10059c2.4502,0,4.60059,0.7002,5.95117,1.5l-1.10059,3.2002
		c-0.9502-0.6001-2.7002-1.3999-4.9502-1.3999c-2.60059,0-4.0498,1.5-4.0498,3.30029c0,2,1.44922,2.8999,4.59961,4.1001
		c4.2002,1.6001,6.35059,3.7002,6.35059,7.30029c0,4.25049-3.2998,7.25049-9.05078,7.25049c-2.64941,0-5.09961-0.6499-6.7998-1.6499
		L-187.21582,158.18652z"/>
	<path style="display:inline;" d="M-161.51563,131.53516v6.9502h6.30078v3.35059h-6.30078v13.05078
		c0,3,0.85059,4.7002,3.30078,4.7002c1.14941,0,2-0.1499,2.5498-0.30029l0.2002,3.30029
		c-0.85059,0.3501-2.2002,0.6001-3.90039,0.6001c-2.0498,0-3.7002-0.6499-4.75-1.8501
		c-1.25098-1.30029-1.7002-3.4502-1.7002-6.30029v-13.20068h-3.75098v-3.35059h3.75098v-5.80029L-161.51563,131.53516z"/>
	<path style="display:inline;" d="M-136.86523,162.68701l-0.34961-3.05029h-0.15039c-1.35059,1.90039-3.9502,3.6001-7.40039,3.6001
		c-4.90039,0-7.40039-3.4502-7.40039-6.9502c0-5.85059,5.2002-9.05078,14.55078-9.00049v-0.5c0-2-0.5498-5.60059-5.5-5.60059
		c-2.25098,0-4.60059,0.7002-6.30078,1.80029l-1-2.90039c2-1.2998,4.90039-2.1499,7.9502-2.1499
		c7.40039,0,9.20117,5.05029,9.20117,9.90039v9.05078c0,2.1001,0.09961,4.15039,0.39941,5.80029H-136.86523z M-137.51563,150.33643
		c-4.7998-0.1001-10.25,0.75-10.25,5.4502c0,2.8501,1.89941,4.2002,4.15039,4.2002c3.14941,0,5.15039-2,5.84961-4.05029
		c0.15039-0.4502,0.25-0.9502,0.25-1.3999V150.33643z"/>
	<path style="display:inline;" d="M-105.31543,138.48535c-0.09961,1.75049-0.2002,3.7002-0.2002,6.65039v14.05127
		c0,5.55029-1.09961,8.9502-3.4502,11.05029c-2.34961,2.2002-5.75,2.90039-8.7998,2.90039c-2.90039,0-6.10059-0.7002-8.05078-2
		l1.09961-3.35059c1.60059,1.00049,4.10059,1.90039,7.10059,1.90039c4.50098,0,7.80078-2.3501,7.80078-8.45068v-2.7002h-0.09961
		c-1.35059,2.25049-3.9502,4.05029-7.70117,4.05029c-6,0-10.30078-5.1001-10.30078-11.80078
		c0-8.2002,5.35059-12.85059,10.90137-12.85059c4.2002,0,6.5,2.2002,7.5498,4.2002h0.10059l0.2002-3.65039H-105.31543z
		 M-109.86523,148.03613c0-0.75-0.0498-1.3999-0.25-2c-0.7998-2.55029-2.9502-4.65039-6.15039-4.65039
		c-4.2002,0-7.2002,3.55029-7.2002,9.15039c0,4.75049,2.39941,8.70068,7.15039,8.70068c2.7002,0,5.15039-1.7002,6.09961-4.50049
		c0.25-0.75,0.35059-1.6001,0.35059-2.3501V148.03613z"/>
	<path style="display:inline;" d="M-98.5166,146.03613c0-2.8501-0.0498-5.30029-0.2002-7.55078h3.85059l0.15039,4.75049h0.19922
		c1.10059-3.25,3.75098-5.30029,6.70117-5.30029c0.5,0,0.84961,0.0498,1.25,0.1499v4.15039
		c-0.4502-0.1001-0.90039-0.1499-1.5-0.1499c-3.10059,0-5.30078,2.3501-5.90039,5.65039
		c-0.10059,0.59961-0.2002,1.2998-0.2002,2.0498v12.90088h-4.35059V146.03613z"/>
	<path style="display:inline;" d="M-69.01563,162.68701l-0.34961-3.05029h-0.15039c-1.35059,1.90039-3.9502,3.6001-7.40039,3.6001
		c-4.90039,0-7.40039-3.4502-7.40039-6.9502c0-5.85059,5.2002-9.05078,14.55078-9.00049v-0.5c0-2-0.5498-5.60059-5.5-5.60059
		c-2.25098,0-4.60059,0.7002-6.30078,1.80029l-1-2.90039c2-1.2998,4.90039-2.1499,7.9502-2.1499
		c7.40039,0,9.20117,5.05029,9.20117,9.90039v9.05078c0,2.1001,0.09961,4.15039,0.39941,5.80029H-69.01563z M-69.66602,150.33643
		c-4.7998-0.1001-10.25,0.75-10.25,5.4502c0,2.8501,1.89941,4.2002,4.15039,4.2002c3.14941,0,5.15039-2,5.84961-4.05029
		c0.15039-0.4502,0.25-0.9502,0.25-1.3999V150.33643z"/>
	<path style="display:inline;" d="M-58.31641,145.03613c0-2.50049-0.05078-4.55029-0.2002-6.55078h3.84961l0.2002,3.90039h0.15039
		c1.34961-2.30029,3.59961-4.4502,7.60059-4.4502c3.2998,0,5.7998,2,6.85059,4.8501h0.09961
		c0.75-1.3501,1.7002-2.3999,2.7002-3.1499c1.4502-1.1001,3.0498-1.7002,5.35059-1.7002c3.2002,0,7.9502,2.1001,7.9502,10.50049
		v14.25098h-4.30078v-13.70068c0-4.65039-1.69922-7.45068-5.25-7.45068c-2.5,0-4.4502,1.8501-5.2002,4.00049
		c-0.2002,0.6001-0.34961,1.3999-0.34961,2.2002v14.95068h-4.30078v-14.50098c0-3.8501-1.7002-6.65039-5.0498-6.65039
		c-2.75098,0-4.75098,2.2002-5.45117,4.40039c-0.25,0.6499-0.34961,1.3999-0.34961,2.1499v14.60107h-4.2998V145.03613z"/>
	<path style="display:inline;" d="M-226.66504,188.98486h4.35059v30.05176h14.40039v3.65039h-18.75098V188.98486z"/>
	<path style="display:inline;" d="M-198.31543,191.68506c0.0498,1.5-1.0498,2.7002-2.7998,2.7002
		c-1.55078,0-2.65039-1.2002-2.65039-2.7002c0-1.5498,1.15039-2.75,2.75-2.75
		C-199.36523,188.93506-198.31543,190.13525-198.31543,191.68506z M-203.21582,222.68701v-24.20166h4.40039v24.20166H-203.21582z"/>
	<path style="display:inline;" d="M-191.51563,205.03613c0-2.50049-0.05078-4.55029-0.2002-6.55078h3.90039l0.25,4.00049h0.09961
		c1.2002-2.30029,4-4.55029,8.00098-4.55029c3.34961,0,8.5498,2,8.5498,10.30078v14.45068h-4.40039v-13.95068
		c0-3.90039-1.4502-7.15039-5.59961-7.15039c-2.90039,0-5.15039,2.0498-5.90039,4.5
		c-0.2002,0.55029-0.30078,1.30029-0.30078,2.05029v14.55078h-4.39941V205.03613z"/>
	<path style="display:inline;" d="M-159.41602,209.58643h0.09961c0.60059-0.8501,1.4502-1.90039,2.15039-2.75049l7.10059-8.35059
		h5.2998l-9.35059,9.95068l10.65137,14.25098h-5.35059l-8.35059-11.60059l-2.25,2.5v9.10059h-4.35059v-35.50195h4.35059V209.58643z"
		/>
	<path style="display:inline;" d="M-137.86621,211.38623c0.09961,5.95068,3.89941,8.40039,8.2998,8.40039
		c3.15039,0,5.05078-0.5498,6.7002-1.25l0.75098,3.15039c-1.55078,0.7002-4.20117,1.5-8.05078,1.5
		c-7.4502,0-11.90137-4.90039-11.90137-12.20068s4.30078-13.05078,11.35156-13.05078c7.90039,0,10,6.9502,10,11.40088
		c0,0.8999-0.09961,1.6001-0.14941,2.0498H-137.86621z M-124.96582,208.23633c0.0498-2.80029-1.15039-7.15039-6.10059-7.15039
		c-4.4502,0-6.40039,4.1001-6.75,7.15039H-124.96582z"/>
	<path style="display:inline;" d="M-94.36621,187.18506v29.25146c0,2.15039,0.05078,4.60059,0.2002,6.25049h-3.9502l-0.2002-4.2002
		h-0.09961c-1.34961,2.7002-4.2998,4.75-8.25,4.75c-5.85059,0-10.35156-4.9502-10.35156-12.30029
		c-0.0498-8.05078,4.95117-13.00098,10.85156-13.00098c3.7002,0,6.2002,1.75,7.2998,3.7002h0.10059v-14.45068H-94.36621z
		 M-98.76563,208.33594c0-0.5498-0.05078-1.2998-0.2002-1.8501c-0.65039-2.7998-3.05078-5.1001-6.35059-5.1001
		c-4.5498,0-7.25,4-7.25,9.35059c0,4.90039,2.39941,8.95068,7.15039,8.95068c2.9502,0,5.65039-1.9502,6.4502-5.25049
		c0.14941-0.6001,0.2002-1.2002,0.2002-1.8999V208.33594z"/>
	<path style="display:inline;" d="M-82.56738,188.98486v33.70215h-4.34961v-33.70215H-82.56738z"/>
	<path style="display:inline;" d="M-74.61719,205.03613c0-2.50049-0.05078-4.55029-0.2002-6.55078h3.90039l0.25,4.00049h0.09961
		c1.2002-2.30029,4-4.55029,8.00098-4.55029c3.34961,0,8.5498,2,8.5498,10.30078v14.45068h-4.40039v-13.95068
		c0-3.90039-1.4502-7.15039-5.59961-7.15039c-2.90039,0-5.15039,2.0498-5.90039,4.5
		c-0.2002,0.55029-0.30078,1.30029-0.30078,2.05029v14.55078h-4.39941V205.03613z"/>
	<path style="display:inline;" d="M-226.66504,249.43506c2.2002-0.4502,5.35059-0.7002,8.35059-0.7002
		c4.65039,0,7.65039,0.8501,9.75098,2.75049c1.7002,1.5,2.64941,3.7998,2.64941,6.40039c0,4.4502-2.7998,7.40039-6.34961,8.6001
		v0.15039c2.59961,0.8999,4.15039,3.2998,4.9502,6.80029c1.09961,4.7002,1.90039,7.9502,2.59961,9.25049h-4.5
		c-0.5498-0.9502-1.2998-3.8501-2.25-8.05029c-1-4.65039-2.7998-6.40039-6.75-6.55078h-4.10059v14.60107h-4.35059V249.43506z
		 M-222.31445,264.78613h4.4502c4.65039,0,7.60059-2.55029,7.60059-6.40039c0-4.35059-3.15039-6.25049-7.75098-6.30078
		c-2.09961,0-3.59961,0.2002-4.2998,0.40039V264.78613z"/>
	<path style="display:inline;" d="M-197.26465,271.38623c0.09961,5.95068,3.89941,8.40039,8.2998,8.40039
		c3.15039,0,5.05078-0.5498,6.7002-1.25l0.75098,3.15039c-1.55078,0.7002-4.20117,1.5-8.05078,1.5
		c-7.4502,0-11.90137-4.90039-11.90137-12.20068s4.30078-13.05078,11.35156-13.05078c7.90039,0,10,6.9502,10,11.40088
		c0,0.8999-0.09961,1.6001-0.14941,2.0498H-197.26465z M-184.36426,268.23633c0.0498-2.80029-1.15039-7.15039-6.10059-7.15039
		c-4.4502,0-6.40039,4.1001-6.75,7.15039H-184.36426z"/>
	<path style="display:inline;" d="M-175.26563,278.18652c1.2998,0.8501,3.60059,1.75049,5.80078,1.75049
		c3.2002,0,4.7002-1.6001,4.7002-3.60059c0-2.1001-1.25-3.25-4.5-4.4502c-4.35059-1.5498-6.40039-3.9502-6.40039-6.8501
		c0-3.90039,3.14941-7.10059,8.34961-7.10059c2.4502,0,4.60059,0.7002,5.95117,1.5l-1.10059,3.2002
		c-0.9502-0.6001-2.7002-1.3999-4.9502-1.3999c-2.60059,0-4.0498,1.5-4.0498,3.30029c0,2,1.44922,2.8999,4.59961,4.1001
		c4.2002,1.6001,6.35059,3.7002,6.35059,7.30029c0,4.25049-3.2998,7.25049-9.05078,7.25049c-2.64941,0-5.09961-0.6499-6.7998-1.6499
		L-175.26563,278.18652z"/>
	<path style="display:inline;" d="M-134.61426,276.08643c0,2.50049,0.0498,4.70068,0.2002,6.60059h-3.90039l-0.25-3.9502h-0.10059
		c-1.14941,1.9502-3.7002,4.5-8,4.5c-3.80078,0-8.35059-2.1001-8.35059-10.60059v-14.15088h4.40039v13.40088
		c0,4.60059,1.40039,7.70068,5.40039,7.70068c2.9502,0,5-2.05029,5.7998-4.00049c0.25-0.6499,0.40039-1.44971,0.40039-2.25
		v-14.85107h4.40039V276.08643z"/>
	<path style="display:inline;" d="M-127.31641,265.03613c0-2.50049-0.0498-4.55029-0.2002-6.55078h3.85059l0.2002,3.90039h0.14941
		c1.35059-2.30029,3.60059-4.4502,7.60059-4.4502c3.30078,0,5.80078,2,6.85059,4.8501h0.09961
		c0.75-1.3501,1.7002-2.3999,2.7002-3.1499c1.4502-1.1001,3.05078-1.7002,5.35059-1.7002c3.2002,0,7.9502,2.1001,7.9502,10.50049
		v14.25098h-4.2998v-13.70068c0-4.65039-1.7002-7.45068-5.25-7.45068c-2.50098,0-4.4502,1.8501-5.2002,4.00049
		c-0.2002,0.6001-0.35059,1.3999-0.35059,2.2002v14.95068h-4.2998v-14.50098c0-3.8501-1.7002-6.65039-5.05078-6.65039
		c-2.75,0-4.75,2.2002-5.4502,4.40039c-0.25,0.6499-0.34961,1.3999-0.34961,2.1499v14.60107h-4.30078V265.03613z"/>
	<path style="display:inline;" d="M-83.16602,271.38623c0.09961,5.95068,3.90039,8.40039,8.30078,8.40039
		c3.15039,0,5.0498-0.5498,6.7002-1.25l0.75,3.15039c-1.5498,0.7002-4.2002,1.5-8.05078,1.5
		c-7.4502,0-11.90039-4.90039-11.90039-12.20068s4.2998-13.05078,11.35059-13.05078c7.90039,0,10.00098,6.9502,10.00098,11.40088
		c0,0.8999-0.10059,1.6001-0.15039,2.0498H-83.16602z M-70.26563,268.23633c0.05078-2.80029-1.14941-7.15039-6.09961-7.15039
		c-4.4502,0-6.40039,4.1001-6.75098,7.15039H-70.26563z"/>
	<path style="display:inline;" d="M-220.26465,312.68506h-10.25v-3.7002h24.95117v3.7002h-10.30078v30.00195h-4.40039V312.68506z"/>
	<path style="display:inline;" d="M-203.06445,331.38623c0.09961,5.95068,3.89941,8.40039,8.2998,8.40039
		c3.15039,0,5.05078-0.5498,6.7002-1.25l0.75098,3.15039c-1.55078,0.7002-4.20117,1.5-8.05078,1.5
		c-7.4502,0-11.90137-4.90039-11.90137-12.20068s4.30078-13.05078,11.35156-13.05078c7.90039,0,10,6.9502,10,11.40088
		c0,0.8999-0.09961,1.6001-0.14941,2.0498H-203.06445z M-190.16406,328.23633c0.0498-2.80029-1.15039-7.15039-6.10059-7.15039
		c-4.4502,0-6.40039,4.1001-6.75,7.15039H-190.16406z"/>
	<path style="display:inline;" d="M-180.46582,307.18506h4.40039v35.50195h-4.40039V307.18506z"/>
	<path style="display:inline;" d="M-166.21582,331.38623c0.09961,5.95068,3.90039,8.40039,8.30078,8.40039
		c3.15039,0,5.0498-0.5498,6.7002-1.25l0.75,3.15039c-1.5498,0.7002-4.2002,1.5-8.05078,1.5
		c-7.4502,0-11.90039-4.90039-11.90039-12.20068s4.2998-13.05078,11.35059-13.05078c7.90039,0,10.00098,6.9502,10.00098,11.40088
		c0,0.8999-0.10059,1.6001-0.15039,2.0498H-166.21582z M-153.31543,328.23633c0.05078-2.80029-1.14941-7.15039-6.09961-7.15039
		c-4.4502,0-6.40039,4.1001-6.75098,7.15039H-153.31543z"/>
	<path style="display:inline;" d="M-122.76465,318.48535c-0.10059,1.75049-0.2002,3.7002-0.2002,6.65039v14.05127
		c0,5.55029-1.10059,8.9502-3.4502,11.05029c-2.35059,2.2002-5.75,2.90039-8.80078,2.90039c-2.90039,0-6.10059-0.7002-8.05078-2
		l1.10059-3.35059c1.59961,1.00049,4.10059,1.90039,7.10059,1.90039c4.5,0,7.7998-2.3501,7.7998-8.45068v-2.7002h-0.09961
		c-1.34961,2.25049-3.9502,4.05029-7.7002,4.05029c-6.00098,0-10.30078-5.1001-10.30078-11.80078
		c0-8.2002,5.35059-12.85059,10.90039-12.85059c4.2002,0,6.50098,2.2002,7.55078,4.2002h0.09961l0.2002-3.65039H-122.76465z
		 M-127.31543,328.03613c0-0.75-0.0498-1.3999-0.25-2c-0.7998-2.55029-2.9502-4.65039-6.15039-4.65039
		c-4.2002,0-7.2002,3.55029-7.2002,9.15039c0,4.75049,2.40039,8.70068,7.15039,8.70068c2.7002,0,5.15039-1.7002,6.10059-4.50049
		c0.25-0.75,0.34961-1.6001,0.34961-2.3501V328.03613z"/>
	<path style="display:inline;" d="M-115.9668,326.03613c0-2.8501-0.0498-5.30029-0.2002-7.55078h3.85059l0.15039,4.75049h0.19922
		c1.10059-3.25,3.75098-5.30029,6.70117-5.30029c0.5,0,0.84961,0.0498,1.25,0.1499v4.15039
		c-0.4502-0.1001-0.90039-0.1499-1.5-0.1499c-3.10059,0-5.30078,2.3501-5.90039,5.65039
		c-0.10059,0.59961-0.2002,1.2998-0.2002,2.0498v12.90088h-4.35059V326.03613z"/>
	<path style="display:inline;" d="M-86.46484,342.68701l-0.35059-3.05029h-0.15039c-1.34961,1.90039-3.9502,3.6001-7.40039,3.6001
		c-4.89941,0-7.40039-3.4502-7.40039-6.9502c0-5.85059,5.2002-9.05078,14.55078-9.00049v-0.5c0-2-0.5498-5.60059-5.5-5.60059
		c-2.25,0-4.60059,0.7002-6.2998,1.80029l-1.00098-2.90039c2.00098-1.2998,4.90039-2.1499,7.95117-2.1499
		c7.40039,0,9.2002,5.05029,9.2002,9.90039v9.05078c0,2.1001,0.10059,4.15039,0.40039,5.80029H-86.46484z M-87.11523,330.33643
		c-4.80078-0.1001-10.25098,0.75-10.25098,5.4502c0,2.8501,1.90039,4.2002,4.15039,4.2002c3.15039,0,5.15039-2,5.85059-4.05029
		c0.14941-0.4502,0.25-0.9502,0.25-1.3999V330.33643z"/>
	<path style="display:inline;" d="M-75.7666,325.03613c0-2.50049-0.0498-4.55029-0.2002-6.55078h3.85059l0.2002,3.90039h0.14941
		c1.35059-2.30029,3.60059-4.4502,7.60059-4.4502c3.30078,0,5.80078,2,6.85059,4.8501h0.09961
		c0.75-1.3501,1.7002-2.3999,2.7002-3.1499c1.4502-1.1001,3.05078-1.7002,5.35059-1.7002c3.2002,0,7.9502,2.1001,7.9502,10.50049
		v14.25098h-4.2998v-13.70068c0-4.65039-1.7002-7.45068-5.25-7.45068c-2.50098,0-4.4502,1.8501-5.2002,4.00049
		c-0.2002,0.6001-0.35059,1.3999-0.35059,2.2002v14.95068h-4.2998v-14.50098c0-3.8501-1.7002-6.65039-5.05078-6.65039
		c-2.75,0-4.75,2.2002-5.4502,4.40039c-0.25,0.6499-0.34961,1.3999-0.34961,2.1499v14.60107h-4.30078V325.03613z"/>
</g>
<image style="display:none;overflow:visible;" width="700" height="701" id="colors" xlink:href="../../resourses/colors.jpg"  transform="matrix(0.71092 0 0 0.71092 -522.50781 376.42484)">
</image>
<g id="github_1_">
	<path d="M340.1344,1000c-113.231,0-226.46201,0-339.69299,0c0-333.18542,0-666.37097,0-999.5564
		c333.18549,0,666.37097,0,999.5564,0c0,333.18549,0,666.37097,0,999.5564c-109.65186,0-219.30371,0-328.95557,0
		c-1.51337-4.1308-5.00519-1.84644-7.37067-1.86102c-11.22925-0.06952-21.24561-8.74329-23.20697-19.35168
		c-1.11768-6.04541-1.79828-12.26483-1.8064-18.40698c-0.05194-39.20282,0.33588-78.40692,0.14697-117.60858
		c-0.07196-14.93445-0.60083-29.9339-2.13086-44.77911c-2.5932-25.16052-11.6347-47.87952-28.45831-67.16089
		c-1.10638-1.26801-2.02338-2.70117-3.49829-4.69165c2.51886-0.70801,4.16577-1.29626,5.86285-1.62823
		c14.51544-2.83972,29.05878-5.53949,43.55762-8.46082c25.09607-5.0564,49.43463-12.45789,72.66809-23.38232
		c43.5116-20.45947,75.68811-52.03674,95.2959-96.18243c10.73578-24.1709,19.03699-49.11926,23.62897-75.16064
		c5.40906-30.6752,5.83948-61.45758,0.31543-92.22476c-4.24426-23.63892-10.18982-46.673-22.99872-67.392
		c-7.01111-11.3407-13.81146-22.81204-20.86554-34.12561c-5.37488-8.62045-6.72803-17.33072-3.85925-27.409
		c2.69446-9.46567,4.12286-19.41196,5.02106-29.24609c2.67621-29.30125-1.99426-57.6886-11.84088-85.31796
		c-2.78046-7.8018-8.28424-11.60316-16.62823-11.55945c-26.38947,0.13826-50.41833,8.75139-73.39862,20.72195
		c-17.00714,8.85916-33.73297,18.26471-50.48401,27.60635c-7.57916,4.22668-15.46906,5.88199-23.92719,3.9335
		c-25.06329-5.77377-50.35663-9.99715-75.99231-12.30156c-53.71442-4.82845-106.95514-1.78232-159.47397,10.39209
		c-15.04669,3.48798-28.12912,2.68721-41.15314-6.20628c-10.0235-6.8446-21.01715-12.33521-31.8313-17.94206
		c-26.71951-13.85332-54.52664-24.45927-84.84503-27.17195c-8.79536-0.78694-13.51041,1.35425-15.94844,9.35429
		c-4.01826,13.18529-8.04372,26.46957-10.55165,39.993c-5.23499,28.22844-3.78961,56.37054,4.17581,84.02771
		c1.99139,6.91434,0.52966,12.67297-3.66084,18.26654c-5.9406,7.92963-11.96693,15.83456-17.30791,24.16592
		c-12.58487,19.63107-20.90503,41.16132-25.77791,63.85739c-5.00523,23.31226-6.39694,47.01727-4.83603,70.8418
		c2.24184,34.21701,7.43236,67.8624,20.16034,99.95511c24.26158,61.17377,69.29147,99.95844,130.65199,121.24017
		c27.32404,9.47681,55.64639,14.4292,83.98523,19.41608c2.73917,0.48206,5.42407,1.27203,8.6254,2.03632
		c-1.02051,1.56281-1.37668,2.29828-1.90076,2.88336c-15.0376,16.78619-23.78278,36.69659-28.67416,58.42224
		c-1.47845,6.56689-5.20898,10.54315-11.29242,12.85724c-18.23312,6.93585-36.85565,11.26544-56.59396,10.52667
		c-24.54929-0.91888-45.21399-10.67596-63.547-26.31451c-14.41615-12.29742-24.42735-28.24078-35.47089-43.28748
		c-15.59904-21.25336-35.49565-36.06012-61.43874-41.87061c-10.43317-2.33673-21.04317-2.00562-31.36817,1.0694
		c-5.84324,1.74023-7.40093,6.13715-4.31113,11.41791c1.05609,1.80493,2.30619,3.64862,3.89098,4.9649
		c5.98537,4.97125,11.92141,10.05212,18.28558,14.50665c13.20467,9.24225,24.33395,20.34619,33.68852,33.52338
		c9.59579,13.51697,16.18352,28.53796,23.20439,43.34583c9.72569,20.51263,23.61697,37.35822,42.91028,49.33545
		c21.58252,13.39832,45.72429,18.79926,70.71544,19.04822c20.93851,0.20862,41.90134-1.61731,62.84482-2.70624
		c3.60394-0.18738,5.46069,0.44012,5.42783,4.57416c-0.25488,32.04205-0.2269,64.08746-0.70544,96.12555
		c-0.06387,4.27472-1.72028,8.97308-3.9617,12.67444c-4.60718,7.60846-12.66055,9.51563-20.90036,10.68445
		C342.70462,998.21442,341.44919,999.31653,340.1344,1000z"/>
	<path style="fill:#FFFFFF;" d="M340.1344,1000c1.31479-0.68347,2.57022-1.78558,3.95413-1.98187
		c8.23981-1.16882,16.29318-3.07599,20.90036-10.68445c2.24142-3.70135,3.89783-8.39972,3.9617-12.67444
		c0.47855-32.03809,0.45056-64.0835,0.70544-96.12555c0.03287-4.13403-1.82388-4.76154-5.42783-4.57416
		c-20.94348,1.08893-41.90631,2.91486-62.84482,2.70624c-24.99115-0.24896-49.13292-5.6499-70.71544-19.04822
		c-19.2933-11.97723-33.18459-28.82281-42.91028-49.33545c-7.02087-14.80786-13.6086-29.82886-23.20439-43.34583
		c-9.35457-13.17719-20.48386-24.28113-33.68852-33.52338c-6.36417-4.45453-12.3002-9.5354-18.28558-14.50665
		c-1.58479-1.31628-2.83488-3.15997-3.89098-4.9649c-3.08981-5.28076-1.53211-9.67767,4.31113-11.41791
		c10.325-3.07501,20.93501-3.40613,31.36817-1.0694c25.94308,5.81049,45.83969,20.61725,61.43874,41.87061
		c11.04353,15.04669,21.05473,30.99005,35.47089,43.28748c18.33301,15.63855,38.99771,25.39563,63.547,26.31451
		c19.73831,0.73877,38.36084-3.59082,56.59396-10.52667c6.08344-2.31409,9.81396-6.29034,11.29242-12.85724
		c4.89139-21.72565,13.63657-41.63605,28.67416-58.42224c0.52408-0.58508,0.88025-1.32056,1.90076-2.88336
		c-3.20132-0.76428-5.88623-1.55426-8.6254-2.03632c-28.33884-4.98688-56.66119-9.93927-83.98523-19.41608
		c-61.36052-21.28174-106.39041-60.06641-130.65199-121.24017c-12.72798-32.09271-17.9185-65.7381-20.16034-99.95511
		c-1.56091-23.82452-0.1692-47.52954,4.83603-70.8418c4.87288-22.69608,13.19304-44.22632,25.77791-63.85739
		c5.34097-8.33136,11.36731-16.2363,17.30791-24.16592c4.19051-5.59357,5.65224-11.3522,3.66084-18.26654
		c-7.96542-27.65717-9.4108-55.79927-4.17581-84.02771c2.50793-13.52342,6.53339-26.80771,10.55165-39.993
		c2.43803-8.00005,7.15308-10.14124,15.94844-9.35429c30.31839,2.71268,58.12552,13.31863,84.84503,27.17195
		c10.81415,5.60686,21.8078,11.09746,31.8313,17.94206c13.02402,8.89349,26.10645,9.69426,41.15314,6.20628
		c52.51883-12.17441,105.75955-15.22054,159.47397-10.39209c25.63568,2.30441,50.92902,6.52779,75.99231,12.30156
		c8.45813,1.94849,16.34802,0.29318,23.92719-3.9335c16.75104-9.34164,33.47687-18.74719,50.48401-27.60635
		c22.98029-11.97057,47.00916-20.58369,73.39862-20.72195c8.34399-0.04372,13.84778,3.75764,16.62823,11.55945
		c9.84662,27.62936,14.51709,56.01671,11.84088,85.31796c-0.89819,9.83414-2.3266,19.78043-5.02106,29.24609
		c-2.86877,10.07828-1.51563,18.78854,3.85925,27.409c7.05408,11.31357,13.85443,22.78491,20.86554,34.12561
		c12.8089,20.71899,18.75446,43.75308,22.99872,67.392c5.52405,30.76718,5.09363,61.54956-0.31543,92.22476
		c-4.59198,26.04138-12.89319,50.98975-23.62897,75.16064c-19.60779,44.14569-51.7843,75.72296-95.2959,96.18243
		c-23.23346,10.92444-47.57202,18.32593-72.66809,23.38232c-14.49884,2.92133-29.04218,5.62109-43.55762,8.46082
		c-1.69708,0.33197-3.34399,0.92023-5.86285,1.62823c1.47491,1.99048,2.39191,3.42365,3.49829,4.69165
		c16.82361,19.28137,25.86511,42.00037,28.45831,67.16089c1.53003,14.84521,2.0589,29.84467,2.13086,44.77911
		c0.1889,39.20166-0.19891,78.40576-0.14697,117.60858c0.00812,6.14215,0.68872,12.36157,1.8064,18.40698
		c1.96136,10.6084,11.97772,19.28217,23.20697,19.35168c2.36548,0.01459,5.8573-2.26978,7.37067,1.86102
		C560.73962,1000,450.43701,1000,340.1344,1000z"/>
</g>
<g id="github" style="display:none;">
	<path style="display:inline;fill:#FFFFFF;" d="M341.20868,1000c-112.99826,0-225.99651,0-338.99475,0
		c0-332.50055,0-665.00116,0-997.50177c332.50061,0,665.00122,0,997.50177,0c0,332.50061,0,665.00122,0,997.50177
		c-109.42645,0-218.85297,0-328.27942,0c-1.32947-0.5545-2.63745-1.51581-3.99243-1.58722
		c-4.04742-0.21332-8.11481-0.01678-12.17114-0.11566c-1.22693-0.02991-2.63269-0.19531-3.63477-0.81708
		c-9.7088-6.0246-14.33142-14.97272-14.56836-26.24768c-1.16705-55.56256,2.21112-111.16888-1.84625-166.71448
		c-0.98932-13.54346-4.05914-26.50055-8.9881-38.93304c-5.11554-12.90295-11.85059-25.04211-21.65369-35.20343
		c-3.21143-3.3288-2.24854-6.52808,2.33521-7.67151c2.61566-0.65247,5.46277-0.32721,8.12628-0.84802
		c9.04816-1.76929,18.08002-3.63293,27.08313-5.61884c16.44714-3.62793,33.01434-6.83661,49.24805-11.26007
		c9.94513-2.7099,19.5119-7.01776,28.98871-11.19702c24.95221-11.00391,47.30524-26.17743,66.01978-45.87982
		c9.24017-9.72797,16.74377-21.41718,23.5033-33.10394c7.09625-12.26874,13.19604-25.28003,18.22174-38.53906
		c6.57568-17.34869,11.86853-35.15222,14.75732-53.65466c1.6781-10.74792,3.73236-21.37094,3.67938-32.30136
		c-0.01624-3.34778,0.55334-6.69943,0.87311-10.04755c0.27264-2.85464,0.93445-5.72549,0.78857-8.55643
		c-0.38708-7.51559-1.00494-15.02469-1.74799-22.51483c-0.58185-5.86569-1.16797-11.76364-2.32935-17.53104
		c-1.5058-7.47751-3.60315-14.83505-5.41089-22.25278c-1.42737-5.8573-1.92279-12.12875-4.37946-17.50986
		c-5.41309-11.85712-11.49872-23.43933-17.88794-34.8089c-5.53387-9.8476-12.11292-19.10461-17.74786-28.89996
		c-3.28094-5.70337-5.93121-11.95438-4.73944-18.83578c1.10907-6.40436,2.87439-12.69427,4.01093-19.09485
		c1.41864-7.98889,3.13715-16.004,3.57916-24.07065c0.99445-18.15034-0.65967-36.12286-5.65479-53.70406
		c-2.38953-8.4104-4.43542-16.92108-6.94653-25.29349c-1.9187-6.39694-5.79449-9.11818-12.49329-9.01334
		c-5.14124,0.08044-10.3363,0.21509-15.39923,1.01257c-7.9928,1.25897-16.1402,2.35025-23.77448,4.8694
		c-10.01434,3.30455-19.88507,7.3511-29.29602,12.11c-16.56641,8.37729-32.76935,17.47818-49.0611,26.39192
		c-8.28333,4.53206-16.51929,9.24751-26.43243,8.09813c-5.03546-0.58383-9.98511-1.89514-14.98016-2.84283
		c-4.49146-0.85214-8.9967-1.63257-13.48743-2.48854c-5.76135-1.09816-11.48456-2.43793-17.27899-3.30992
		c-6.30994-0.9496-12.67944-1.51311-19.02881-2.19064c-11.77948-1.25697-23.56232-3.49188-35.34515-3.50058
		c-26.02036-0.01918-52.04495,0.98442-78.06015,1.81206c-6.8699,0.21855-13.763,0.99654-20.55466,2.08443
		c-10.02707,1.60614-19.98282,3.66885-29.9502,5.63252c-8.83923,1.74142-17.64194,3.66962-26.48679,5.38094
		c-1.85211,0.35837-4.05847,0.72505-5.68918,0.06654c-6.70242-2.70659-13.4184-5.47787-19.81226-8.83028
		c-14.17804-7.43373-27.9791-15.60388-42.29086-22.75966c-10.78986-5.39487-22.04849-9.89624-33.27078-14.3623
		c-4.97992-1.98184-10.32388-3.21791-15.61118-4.21909c-8.14087-1.54153-16.40088-2.44452-24.56207-3.89084
		c-6.97417-1.23595-11.77512,1.04321-14.4487,7.49451c-0.89809,2.16708-1.67908,4.40431-2.27148,6.6727
		c-2.84341,10.8878-6.67325,21.65738-8.12183,32.73454c-1.79065,13.69286-1.72446,27.64267-2.18982,41.49052
		c-0.42348,12.60175,2.19286,24.79883,5.37956,36.92746c2.33217,8.87628,2.87361,17.55194-3.4109,25.55652
		c-5.98228,7.6196-11.32793,15.73663-17.02625,23.58206c-8.85605,12.19308-14.41907,26.00891-18.95079,40.16113
		c-3.11406,9.72498-4.70851,19.93008-7.13701,29.88278c-2.5192,10.32443-3.961,20.72818-3.757,31.39542
		c0.22032,11.52249-0.46831,23.08221,0.19096,34.57114c0.70413,12.27078,2.00963,24.56149,3.99911,36.68832
		c1.84468,11.24384,4.4856,22.41156,7.60454,33.3772c3.4041,11.96802,6.58333,24.23993,12.00003,35.33478
		c6.74728,13.82019,14.85655,27.17542,23.9294,39.59821c7.5518,10.34009,16.65353,19.83258,26.30589,28.28821
		c14.87578,13.03131,31.472,23.8584,49.53316,32.15259c8.12967,3.7334,16.2984,7.60046,24.81384,10.22424
		c13.03253,4.01556,26.3009,7.36487,39.61807,10.32758c11.80753,2.62683,23.83212,4.26642,35.73267,6.49261
		c5.44687,1.01892,10.87527,2.22064,16.21658,3.68719c2.97421,0.81653,3.59763,3.12518,1.78604,5.65991
		c-1.55777,2.17963-3.40759,4.14838-5.08554,6.24463c-11.6217,14.5188-18.89664,31.09454-23.29034,49.05597
		c-1.99979,8.17529-5.09344,15.77216-14.15536,18.35144c-12.44083,3.54089-24.81628,8.18463-37.53278,9.66266
		c-15.87579,1.84534-32.10391,1.20135-47.68567-3.79095c-20.81812-6.67004-37.09538-20.17084-51.36945-35.95166
		c-8.00362-8.84851-13.98512-19.49585-21.29675-29.01074c-5.03653-6.5542-10.48798-12.8606-16.3358-18.69458
		c-3.68831-3.6795-8.38127-6.38397-12.74254-9.35089c-12.85652-8.74597-26.85477-14.47821-42.58496-14.71136
		c-5.05612-0.07495-10.16529,0.99921-15.1842,1.91089c-2.36609,0.42981-6.06369,1.26953-6.50221,2.72418
		c-0.62952,2.0882,1.0321,4.9621,1.99644,7.3891c0.38733,0.97491,1.44638,1.74347,2.32274,2.45428
		c9.42346,7.64343,18.66153,15.53668,28.36493,22.80829c12.81725,9.60504,22.3045,22.01172,29.95233,35.69952
		c7.62688,13.65039,13.33562,28.38336,21.12108,41.93152c10.45398,18.19196,24.33699,33.53967,43.62828,42.8313
		c12.90457,6.21545,26.14064,11.82428,40.70958,13.04596c11.48932,0.96332,22.96347,2.3092,34.47284,2.76306
		c8.35782,0.32953,16.76968-0.39502,25.14264-0.89667c4.45331-0.26678,8.86252-1.35291,13.31418-1.54419
		c6.39297-0.27466,12.80655-0.07007,19.14688-0.07007c0.17249,0.97809,0.32773,1.44818,0.32806,1.91852
		c0.02267,34.0929,0.21262,68.18787-0.17816,102.27618c-0.04999,4.35767-2.36911,9.22052-4.97668,12.8999
		c-4.52988,6.39172-10.88388,10.06659-19.35562,8.97839C345.90952,998.1795,343.51343,999.44525,341.20868,1000z"/>
	<path style="display:inline;" d="M341.20868,1000c2.30475-0.55475,4.70084-1.8205,6.89807-1.53827
		c8.47174,1.0882,14.82574-2.58667,19.35562-8.97839c2.60757-3.67938,4.9267-8.54224,4.97668-12.8999
		c0.39078-34.08832,0.20084-68.18329,0.17816-102.27618c-0.00034-0.47034-0.15558-0.94043-0.32806-1.91852
		c-6.34033,0-12.75391-0.20459-19.14688,0.07007c-4.45166,0.19128-8.86087,1.2774-13.31418,1.54419
		c-8.37296,0.50165-16.78482,1.2262-25.14264,0.89667c-11.50937-0.45386-22.98352-1.79974-34.47284-2.76306
		c-14.56894-1.22168-27.80501-6.83051-40.70958-13.04596c-19.29129-9.29163-33.1743-24.63934-43.62828-42.8313
		c-7.78546-13.54816-13.4942-28.28113-21.12108-41.93152c-7.64783-13.68781-17.13509-26.09448-29.95233-35.69952
		c-9.7034-7.27161-18.94147-15.16486-28.36493-22.80829c-0.87636-0.71082-1.93541-1.47937-2.32274-2.45428
		c-0.96434-2.427-2.62596-5.3009-1.99644-7.3891c0.43852-1.45465,4.13612-2.29437,6.50221-2.72418
		c5.01891-0.91168,10.12808-1.98584,15.1842-1.91089c15.73019,0.23315,29.72844,5.96539,42.58496,14.71136
		c4.36127,2.96692,9.05423,5.67139,12.74254,9.35089c5.84782,5.83398,11.29927,12.14038,16.3358,18.69458
		c7.31163,9.51489,13.29314,20.16223,21.29675,29.01074c14.27406,15.78082,30.55133,29.28162,51.36945,35.95166
		c15.58176,4.99231,31.80988,5.63629,47.68567,3.79095c12.71649-1.47803,25.09195-6.12177,37.53278-9.66266
		c9.06192-2.57928,12.15558-10.17615,14.15536-18.35144c4.39371-17.96143,11.66864-34.53717,23.29034-49.05597
		c1.67795-2.09625,3.52777-4.065,5.08554-6.24463c1.81158-2.53473,1.18817-4.84338-1.78604-5.65991
		c-5.34131-1.46655-10.76971-2.66827-16.21658-3.68719c-11.90054-2.2262-23.92514-3.86578-35.73267-6.49261
		c-13.31717-2.96271-26.58554-6.31201-39.61807-10.32758c-8.51544-2.62378-16.68417-6.49084-24.81384-10.22424
		c-18.06116-8.29419-34.65738-19.12128-49.53316-32.15259c-9.65236-8.45563-18.75409-17.94812-26.30589-28.28821
		c-9.07285-12.42279-17.18211-25.77802-23.9294-39.59821c-5.4167-11.09485-8.59593-23.36676-12.00003-35.33478
		c-3.11894-10.96564-5.75986-22.13336-7.60454-33.3772c-1.98949-12.12683-3.29498-24.41754-3.99911-36.68832
		c-0.65927-11.48892,0.02936-23.04865-0.19096-34.57114c-0.20399-10.66724,1.23781-21.07098,3.757-31.39542
		c2.4285-9.9527,4.02295-20.15781,7.13701-29.88278c4.53172-14.15222,10.09474-27.96805,18.95079-40.16113
		c5.69832-7.84543,11.04396-15.96246,17.02625-23.58206c6.28452-8.00458,5.74307-16.68024,3.4109-25.55652
		c-3.18671-12.12863-5.80304-24.32571-5.37956-36.92746c0.46536-13.84785,0.39917-27.79767,2.18982-41.49052
		c1.44858-11.07716,5.27841-21.84674,8.12183-32.73454c0.59241-2.26839,1.3734-4.50562,2.27148-6.6727
		c2.67358-6.45129,7.47453-8.73045,14.4487-7.49451c8.16119,1.44632,16.4212,2.3493,24.56207,3.89084
		c5.28729,1.00117,10.63126,2.23724,15.61118,4.21909c11.22229,4.46606,22.48093,8.96744,33.27078,14.3623
		c14.31177,7.15578,28.11282,15.32593,42.29086,22.75966c6.39386,3.3524,13.10983,6.12369,19.81226,8.83028
		c1.63071,0.65851,3.83707,0.29182,5.68918-0.06654c8.84485-1.71132,17.64755-3.63951,26.48679-5.38094
		c9.96738-1.96367,19.92313-4.02638,29.9502-5.63252c6.79166-1.08789,13.68475-1.86588,20.55466-2.08443
		c26.0152-0.82764,52.03979-1.83124,78.06015-1.81206c11.78284,0.0087,23.56567,2.24361,35.34515,3.50058
		c6.34937,0.67754,12.71887,1.24104,19.02881,2.19064c5.79443,0.87199,11.51764,2.21176,17.27899,3.30992
		c4.49072,0.85597,8.99597,1.6364,13.48743,2.48854c4.99506,0.94769,9.9447,2.259,14.98016,2.84283
		c9.91315,1.14938,18.14911-3.56607,26.43243-8.09813c16.29175-8.91374,32.49469-18.01463,49.0611-26.39192
		c9.41095-4.7589,19.28168-8.80545,29.29602-12.11c7.63428-2.51915,15.78168-3.61043,23.77448-4.8694
		c5.06293-0.79749,10.258-0.93213,15.39923-1.01257c6.69879-0.10484,10.57458,2.61639,12.49329,9.01334
		c2.51111,8.37241,4.55701,16.88309,6.94653,25.29349c4.99512,17.58119,6.64923,35.55371,5.65479,53.70406
		c-0.44202,8.06665-2.16052,16.08176-3.57916,24.07065c-1.13654,6.40057-2.90186,12.69049-4.01093,19.09485
		c-1.19177,6.88141,1.4585,13.13242,4.73944,18.83578c5.63495,9.79535,12.21399,19.05237,17.74786,28.89996
		c6.38922,11.36957,12.47485,22.95178,17.88794,34.8089c2.45667,5.3811,2.95209,11.65256,4.37946,17.50986
		c1.80774,7.41772,3.90509,14.77527,5.41089,22.25278c1.16138,5.7674,1.7475,11.66534,2.32935,17.53104
		c0.74304,7.49014,1.3609,14.99924,1.74799,22.51483c0.14587,2.83093-0.51593,5.70178-0.78857,8.55643
		c-0.31976,3.34811-0.88934,6.69977-0.87311,10.04755c0.05298,10.93042-2.00128,21.55344-3.67938,32.30136
		c-2.88879,18.50244-8.18164,36.30597-14.75732,53.65466c-5.0257,13.25903-11.12549,26.27032-18.22174,38.53906
		c-6.75952,11.68677-14.26312,23.37598-23.5033,33.10394c-18.71454,19.70239-41.06757,34.87592-66.01978,45.87982
		c-9.47681,4.17926-19.04358,8.48712-28.98871,11.19702c-16.2337,4.42346-32.8009,7.63214-49.24805,11.26007
		c-9.00311,1.9859-18.03497,3.84955-27.08313,5.61884c-2.66351,0.52081-5.51062,0.19556-8.12628,0.84802
		c-4.58374,1.14343-5.54663,4.34271-2.33521,7.67151c9.8031,10.16132,16.53815,22.30048,21.65369,35.20343
		c4.92896,12.4325,7.99878,25.38959,8.9881,38.93304c4.05737,55.54559,0.6792,111.15192,1.84625,166.71448
		c0.23694,11.27496,4.85956,20.22308,14.56836,26.24768c1.00208,0.62177,2.40784,0.78717,3.63477,0.81708
		c4.05634,0.09888,8.12372-0.09766,12.17114,0.11566c1.35498,0.07141,2.66296,1.03271,3.99243,1.58722
		C561.36041,1000,451.28455,1000,341.20868,1000z"/>
</g>
<g>
</g>
<g>
</g>
<g>
</g>
<g>
</g>
<g>
</g>
</svg>
